# Blender v3.0.1 OBJ File: ''
# www.blender.org
mtllib Roof2.mtl
g BuildingPieces.003
v -2.000000 0.100000 2.000000
v -2.000000 -0.000000 1.000000
v -2.000000 -0.000000 2.000000
v -2.000000 0.100000 1.900000
v -2.000000 0.100000 1.800000
v -2.000000 0.100000 1.600000
v -2.000000 0.100000 1.500000
v -2.000000 0.100000 1.400000
v -2.000000 0.100000 1.300000
v -2.000000 0.100000 1.100000
v -2.000000 0.300000 1.900000
v -2.000000 0.300000 1.800000
v -2.000000 0.300000 1.600000
v -2.000000 0.300000 1.500000
v -2.000000 0.300000 1.400000
v -2.000000 0.300000 1.300000
v -2.000000 0.300000 1.100000
v -2.000000 0.300000 1.000000
v -2.000000 0.400000 1.800000
v -2.000000 0.400000 1.600000
v -2.000000 0.400000 1.300000
v -2.000000 0.400000 1.100000
v -1.900000 0.300000 2.000000
v -1.900000 0.100000 1.900000
v -1.900000 0.100000 2.000000
v -1.900000 0.300000 1.900000
v -1.800000 0.400000 2.000000
v -1.800000 0.300000 1.900000
v -1.800000 0.300000 2.000000
v -1.800000 0.400000 1.900000
v -1.600000 0.300000 2.000000
v -1.600000 0.100000 1.900000
v -1.600000 0.100000 2.000000
v -1.600000 0.300000 1.900000
v -1.400000 0.300000 2.000000
v -1.400000 0.100000 1.900000
v -1.400000 0.100000 2.000000
v -1.400000 0.300000 1.900000
v -1.300000 0.400000 2.000000
v -1.300000 0.300000 1.900000
v -1.300000 0.300000 2.000000
v -1.300000 0.400000 1.900000
v -1.100000 0.300000 2.000000
v -1.100000 0.100000 1.900000
v -1.100000 0.100000 2.000000
v -1.100000 0.300000 1.900000
v -1.900000 0.100000 1.900000
v -1.900000 0.100000 1.800000
v -1.900000 0.300000 1.900000
v -1.900000 0.300000 1.800000
v -1.900000 0.100000 1.600000
v -1.900000 0.100000 1.500000
v -1.900000 0.300000 1.600000
v -1.900000 0.300000 1.500000
v -1.900000 0.100000 1.400000
v -1.900000 0.100000 1.300000
v -1.900000 0.300000 1.400000
v -1.900000 0.300000 1.300000
v -1.900000 0.100000 1.100000
v -1.900000 0.100000 1.000000
v -1.900000 0.300000 1.100000
v -1.900000 0.300000 1.000000
v -1.900000 0.400000 1.800000
v -1.900000 0.400000 1.600000
v -1.900000 0.400000 1.300000
v -1.900000 0.400000 1.100000
v -1.800000 0.100000 2.000000
v -1.800000 0.100000 1.900000
v -1.800000 0.300000 2.000000
v -1.800000 0.300000 1.900000
v -1.600000 0.300000 2.000000
v -1.600000 0.300000 1.900000
v -1.600000 0.400000 2.000000
v -1.600000 0.400000 1.900000
v -1.500000 0.100000 2.000000
v -1.500000 0.100000 1.900000
v -1.500000 0.300000 2.000000
v -1.500000 0.300000 1.900000
v -1.300000 0.100000 2.000000
v -1.300000 0.100000 1.900000
v -1.300000 0.300000 2.000000
v -1.300000 0.300000 1.900000
v -1.100000 0.300000 2.000000
v -1.100000 0.300000 1.900000
v -1.100000 0.400000 2.000000
v -1.100000 0.400000 1.900000
v -1.000000 0.100000 2.000000
v -1.000000 0.100000 1.900000
v -1.000000 0.300000 2.000000
v -1.000000 0.300000 1.900000
v -0.900000 -0.000000 2.000000
v -0.900000 -0.000000 1.000000
v -0.900000 0.100000 2.000000
v -0.900000 0.100000 1.000000
v -1.900000 0.100000 2.000000
v -2.000000 0.100000 2.000000
v -2.000000 -0.000000 2.000000
v -1.800000 0.100000 2.000000
v -1.900000 0.300000 2.000000
v -1.800000 0.300000 2.000000
v -1.600000 0.100000 2.000000
v -1.600000 0.300000 2.000000
v -1.800000 0.400000 2.000000
v -1.600000 0.400000 2.000000
v -1.500000 0.100000 2.000000
v -1.500000 0.300000 2.000000
v -1.400000 0.100000 2.000000
v -1.300000 0.100000 2.000000
v -1.400000 0.300000 2.000000
v -1.300000 0.300000 2.000000
v -1.100000 0.100000 2.000000
v -1.100000 0.300000 2.000000
v -1.300000 0.400000 2.000000
v -1.100000 0.400000 2.000000
v -1.000000 0.100000 2.000000
v -1.000000 0.300000 2.000000
v -0.900000 -0.000000 2.000000
v -0.900000 0.100000 2.000000
v -1.900000 0.100000 1.900000
v -2.000000 0.300000 1.900000
v -2.000000 0.100000 1.900000
v -1.900000 0.300000 1.900000
v -1.900000 0.300000 1.800000
v -2.000000 0.400000 1.800000
v -2.000000 0.300000 1.800000
v -1.900000 0.400000 1.800000
v -1.900000 0.100000 1.600000
v -2.000000 0.300000 1.600000
v -2.000000 0.100000 1.600000
v -1.900000 0.300000 1.600000
v -1.900000 0.100000 1.400000
v -2.000000 0.300000 1.400000
v -2.000000 0.100000 1.400000
v -1.900000 0.300000 1.400000
v -1.900000 0.300000 1.300000
v -2.000000 0.400000 1.300000
v -2.000000 0.300000 1.300000
v -1.900000 0.400000 1.300000
v -1.900000 0.100000 1.100000
v -2.000000 0.300000 1.100000
v -2.000000 0.100000 1.100000
v -1.900000 0.300000 1.100000
v -1.900000 0.100000 1.900000
v -1.900000 0.300000 1.900000
v -1.800000 0.100000 1.900000
v -1.800000 0.300000 1.900000
v -1.800000 0.400000 1.900000
v -1.600000 0.300000 1.900000
v -1.600000 0.400000 1.900000
v -1.600000 0.100000 1.900000
v -1.500000 0.100000 1.900000
v -1.500000 0.300000 1.900000
v -1.400000 0.100000 1.900000
v -1.400000 0.300000 1.900000
v -1.300000 0.100000 1.900000
v -1.300000 0.300000 1.900000
v -1.300000 0.400000 1.900000
v -1.100000 0.300000 1.900000
v -1.100000 0.400000 1.900000
v -1.100000 0.100000 1.900000
v -1.000000 0.100000 1.900000
v -1.000000 0.300000 1.900000
v -2.000000 0.100000 1.800000
v -2.000000 0.300000 1.800000
v -1.900000 0.100000 1.800000
v -1.900000 0.300000 1.800000
v -2.000000 0.300000 1.600000
v -2.000000 0.400000 1.600000
v -1.900000 0.300000 1.600000
v -1.900000 0.400000 1.600000
v -2.000000 0.100000 1.500000
v -2.000000 0.300000 1.500000
v -1.900000 0.100000 1.500000
v -1.900000 0.300000 1.500000
v -2.000000 0.100000 1.300000
v -2.000000 0.300000 1.300000
v -1.900000 0.100000 1.300000
v -1.900000 0.300000 1.300000
v -2.000000 0.300000 1.100000
v -2.000000 0.400000 1.100000
v -1.900000 0.300000 1.100000
v -1.900000 0.400000 1.100000
v -2.000000 -0.000000 1.000000
v -2.000000 0.300000 1.000000
v -1.900000 0.100000 1.000000
v -1.900000 0.300000 1.000000
v -0.900000 -0.000000 1.000000
v -0.900000 0.100000 1.000000
v -2.000000 -0.000000 1.000000
v -0.900000 -0.000000 2.000000
v -2.000000 -0.000000 2.000000
v -0.900000 -0.000000 1.000000
v -1.800000 0.300000 1.900000
v -1.600000 0.300000 2.000000
v -1.800000 0.300000 2.000000
v -1.600000 0.300000 1.900000
v -1.300000 0.300000 1.900000
v -1.100000 0.300000 2.000000
v -1.300000 0.300000 2.000000
v -1.100000 0.300000 1.900000
v -2.000000 0.300000 1.600000
v -1.900000 0.300000 1.800000
v -2.000000 0.300000 1.800000
v -1.900000 0.300000 1.600000
v -2.000000 0.300000 1.100000
v -1.900000 0.300000 1.300000
v -2.000000 0.300000 1.300000
v -1.900000 0.300000 1.100000
v -2.000000 0.100000 2.000000
v -1.900000 0.100000 2.000000
v -2.000000 0.100000 1.900000
v -1.900000 0.100000 1.900000
v -1.800000 0.100000 2.000000
v -1.600000 0.100000 2.000000
v -1.800000 0.100000 1.900000
v -1.600000 0.100000 1.900000
v -1.500000 0.100000 2.000000
v -1.400000 0.100000 2.000000
v -1.500000 0.100000 1.900000
v -1.400000 0.100000 1.900000
v -1.300000 0.100000 2.000000
v -1.100000 0.100000 2.000000
v -1.300000 0.100000 1.900000
v -1.100000 0.100000 1.900000
v -1.000000 0.100000 2.000000
v -0.900000 0.100000 2.000000
v -1.000000 0.100000 1.900000
v -1.900000 0.100000 1.800000
v -2.000000 0.100000 1.800000
v -2.000000 0.100000 1.600000
v -1.900000 0.100000 1.600000
v -1.900000 0.100000 1.500000
v -2.000000 0.100000 1.500000
v -2.000000 0.100000 1.400000
v -1.900000 0.100000 1.400000
v -1.900000 0.100000 1.300000
v -2.000000 0.100000 1.300000
v -2.000000 0.100000 1.100000
v -1.900000 0.100000 1.100000
v -1.900000 0.100000 1.000000
v -0.900000 0.100000 1.000000
v -1.900000 0.300000 2.000000
v -1.800000 0.300000 2.000000
v -1.900000 0.300000 1.900000
v -1.800000 0.300000 1.900000
v -1.600000 0.300000 2.000000
v -1.500000 0.300000 2.000000
v -1.600000 0.300000 1.900000
v -1.500000 0.300000 1.900000
v -1.400000 0.300000 2.000000
v -1.300000 0.300000 2.000000
v -1.400000 0.300000 1.900000
v -1.300000 0.300000 1.900000
v -1.100000 0.300000 2.000000
v -1.000000 0.300000 2.000000
v -1.100000 0.300000 1.900000
v -1.000000 0.300000 1.900000
v -2.000000 0.300000 1.900000
v -2.000000 0.300000 1.800000
v -1.900000 0.300000 1.800000
v -2.000000 0.300000 1.600000
v -1.900000 0.300000 1.600000
v -2.000000 0.300000 1.500000
v -1.900000 0.300000 1.500000
v -2.000000 0.300000 1.400000
v -1.900000 0.300000 1.400000
v -2.000000 0.300000 1.300000
v -1.900000 0.300000 1.300000
v -2.000000 0.300000 1.100000
v -1.900000 0.300000 1.100000
v -2.000000 0.300000 1.000000
v -1.900000 0.300000 1.000000
v -1.800000 0.400000 2.000000
v -1.600000 0.400000 2.000000
v -1.800000 0.400000 1.900000
v -1.600000 0.400000 1.900000
v -1.300000 0.400000 2.000000
v -1.100000 0.400000 2.000000
v -1.300000 0.400000 1.900000
v -1.100000 0.400000 1.900000
v -2.000000 0.400000 1.800000
v -1.900000 0.400000 1.800000
v -2.000000 0.400000 1.600000
v -1.900000 0.400000 1.600000
v -2.000000 0.400000 1.300000
v -1.900000 0.400000 1.300000
v -2.000000 0.400000 1.100000
v -1.900000 0.400000 1.100000
vt 0.958984 0.500000
vt 0.958984 0.500000
vt 0.958984 0.500000
vt 0.958984 0.500000
vt 0.958984 0.500000
vt 0.958984 0.500000
vt 0.958984 0.500000
vt 0.958984 0.500000
vt 0.958984 0.500000
vt 0.958984 0.500000
vt 0.958984 0.500000
vt 0.958984 0.500000
vt 0.958984 0.500000
vt 0.958984 0.500000
vt 0.958984 0.500000
vt 0.958984 0.500000
vt 0.958984 0.500000
vt 0.958984 0.500000
vt 0.958984 0.500000
vt 0.958984 0.500000
vt 0.958984 0.500000
vt 0.958984 0.500000
vt 0.958984 0.500000
vt 0.958984 0.500000
vt 0.958984 0.500000
vt 0.958984 0.500000
vt 0.958984 0.500000
vt 0.958984 0.500000
vt 0.958984 0.500000
vt 0.958984 0.500000
vt 0.958984 0.500000
vt 0.958984 0.500000
vt 0.958984 0.500000
vt 0.958984 0.500000
vt 0.958984 0.500000
vt 0.958984 0.500000
vt 0.958984 0.500000
vt 0.958984 0.500000
vt 0.958984 0.500000
vt 0.958984 0.500000
vt 0.958984 0.500000
vt 0.958984 0.500000
vt 0.958984 0.500000
vt 0.958984 0.500000
vt 0.958984 0.500000
vt 0.958984 0.500000
vt 0.958984 0.500000
vt 0.958984 0.500000
vt 0.958984 0.500000
vt 0.958984 0.500000
vt 0.958984 0.500000
vt 0.958984 0.500000
vt 0.958984 0.500000
vt 0.958984 0.500000
vt 0.958984 0.500000
vt 0.958984 0.500000
vt 0.958984 0.500000
vt 0.958984 0.500000
vt 0.958984 0.500000
vt 0.958984 0.500000
vt 0.958984 0.500000
vt 0.958984 0.500000
vt 0.958984 0.500000
vt 0.958984 0.500000
vt 0.958984 0.500000
vt 0.958984 0.500000
vt 0.958984 0.500000
vt 0.958984 0.500000
vt 0.958984 0.500000
vt 0.958984 0.500000
vt 0.958984 0.500000
vt 0.958984 0.500000
vt 0.958984 0.500000
vt 0.958984 0.500000
vt 0.958984 0.500000
vt 0.958984 0.500000
vt 0.958984 0.500000
vt 0.958984 0.500000
vt 0.958984 0.500000
vt 0.958984 0.500000
vt 0.958984 0.500000
vt 0.958984 0.500000
vt 0.958984 0.500000
vt 0.958984 0.500000
vt 0.958984 0.500000
vt 0.958984 0.500000
vt 0.958984 0.500000
vt 0.958984 0.500000
vt 0.958984 0.500000
vt 0.958984 0.500000
vt 0.958984 0.500000
vt 0.958984 0.500000
vt 0.958984 0.500000
vt 0.958984 0.500000
vt 0.958984 0.500000
vt 0.958984 0.500000
vt 0.958984 0.500000
vt 0.958984 0.500000
vt 0.958984 0.500000
vt 0.958984 0.500000
vt 0.958984 0.500000
vt 0.958984 0.500000
vt 0.958984 0.500000
vt 0.958984 0.500000
vt 0.958984 0.500000
vt 0.958984 0.500000
vt 0.958984 0.500000
vt 0.958984 0.500000
vt 0.958984 0.500000
vt 0.958984 0.500000
vt 0.958984 0.500000
vt 0.958984 0.500000
vt 0.958984 0.500000
vt 0.958984 0.500000
vt 0.958984 0.500000
vt 0.958984 0.500000
vt 0.958984 0.500000
vt 0.958984 0.500000
vt 0.958984 0.500000
vt 0.958984 0.500000
vt 0.958984 0.500000
vt 0.958984 0.500000
vt 0.958984 0.500000
vt 0.958984 0.500000
vt 0.958984 0.500000
vt 0.958984 0.500000
vt 0.958984 0.500000
vt 0.958984 0.500000
vt 0.958984 0.500000
vt 0.958984 0.500000
vt 0.958984 0.500000
vt 0.958984 0.500000
vt 0.958984 0.500000
vt 0.958984 0.500000
vt 0.958984 0.500000
vt 0.958984 0.500000
vt 0.958984 0.500000
vt 0.958984 0.500000
vt 0.958984 0.500000
vt 0.958984 0.500000
vt 0.958984 0.500000
vt 0.958984 0.500000
vt 0.958984 0.500000
vt 0.958984 0.500000
vt 0.958984 0.500000
vt 0.958984 0.500000
vt 0.958984 0.500000
vt 0.958984 0.500000
vt 0.958984 0.500000
vt 0.958984 0.500000
vt 0.958984 0.500000
vt 0.958984 0.500000
vt 0.958984 0.500000
vt 0.958984 0.500000
vt 0.958984 0.500000
vt 0.958984 0.500000
vt 0.958984 0.500000
vt 0.958984 0.500000
vt 0.958984 0.500000
vt 0.958984 0.500000
vt 0.958984 0.500000
vt 0.958984 0.500000
vt 0.958984 0.500000
vt 0.958984 0.500000
vt 0.958984 0.500000
vt 0.958984 0.500000
vt 0.958984 0.500000
vt 0.958984 0.500000
vt 0.958984 0.500000
vt 0.958984 0.500000
vt 0.958984 0.500000
vt 0.958984 0.500000
vt 0.958984 0.500000
vt 0.958984 0.500000
vt 0.958984 0.500000
vt 0.958984 0.500000
vt 0.958984 0.500000
vt 0.958984 0.500000
vt 0.958984 0.500000
vt 0.958984 0.500000
vt 0.958984 0.500000
vt 0.958984 0.500000
vt 0.958984 0.500000
vt 0.958984 0.500000
vt 0.958984 0.500000
vt 0.958984 0.500000
vt 0.958984 0.500000
vt 0.958984 0.500000
vt 0.958984 0.500000
vt 0.958984 0.500000
vt 0.958984 0.500000
vt 0.958984 0.500000
vt 0.958984 0.500000
vt 0.958984 0.500000
vt 0.958984 0.500000
vt 0.958984 0.500000
vt 0.958984 0.500000
vt 0.958984 0.500000
vt 0.958984 0.500000
vt 0.958984 0.500000
vt 0.958984 0.500000
vt 0.958984 0.500000
vt 0.958984 0.500000
vt 0.958984 0.500000
vt 0.958984 0.500000
vt 0.958984 0.500000
vt 0.958984 0.500000
vt 0.958984 0.500000
vt 0.958984 0.500000
vt 0.958984 0.500000
vt 0.958984 0.500000
vt 0.958984 0.500000
vt 0.958984 0.500000
vt 0.958984 0.500000
vt 0.958984 0.500000
vt 0.958984 0.500000
vt 0.958984 0.500000
vt 0.958984 0.500000
vt 0.958984 0.500000
vt 0.958984 0.500000
vt 0.958984 0.500000
vt 0.958984 0.500000
vt 0.958984 0.500000
vt 0.958984 0.500000
vt 0.958984 0.500000
vt 0.958984 0.500000
vt 0.958984 0.500000
vt 0.958984 0.500000
vt 0.958984 0.500000
vt 0.958984 0.500000
vt 0.958984 0.500000
vt 0.958984 0.500000
vt 0.958984 0.500000
vt 0.958984 0.500000
vt 0.958984 0.500000
vt 0.958984 0.500000
vt 0.958984 0.500000
vt 0.958984 0.500000
vt 0.958984 0.500000
vt 0.958984 0.500000
vt 0.958984 0.500000
vt 0.958984 0.500000
vt 0.958984 0.500000
vt 0.958984 0.500000
vt 0.958984 0.500000
vt 0.958984 0.500000
vt 0.958984 0.500000
vt 0.958984 0.500000
vt 0.958984 0.500000
vt 0.958984 0.500000
vt 0.958984 0.500000
vt 0.958984 0.500000
vt 0.958984 0.500000
vt 0.958984 0.500000
vt 0.958984 0.500000
vt 0.958984 0.500000
vt 0.958984 0.500000
vt 0.958984 0.500000
vt 0.958984 0.500000
vt 0.958984 0.500000
vt 0.958984 0.500000
vt 0.958984 0.500000
vt 0.958984 0.500000
vt 0.958984 0.500000
vt 0.958984 0.500000
vt 0.958984 0.500000
vt 0.958984 0.500000
vt 0.958984 0.500000
vt 0.958984 0.500000
vt 0.958984 0.500000
vt 0.958984 0.500000
vt 0.958984 0.500000
vt 0.958984 0.500000
vt 0.958984 0.500000
vt 0.958984 0.500000
vt 0.958984 0.500000
vt 0.958984 0.500000
vt 0.958984 0.500000
vt 0.958984 0.500000
vt 0.958984 0.500000
vt 0.958984 0.500000
vt 0.958984 0.500000
vt 0.958984 0.500000
vt 0.958984 0.500000
vt 0.958984 0.500000
vt 0.958984 0.500000
vt 0.958984 0.500000
vt 0.958984 0.500000
vn -1.0000 0.0000 0.0000
vn 1.0000 0.0000 0.0000
vn 0.0000 0.0000 1.0000
vn 0.0000 0.0000 -1.0000
vn 0.0000 -1.0000 -0.0000
vn 0.0000 1.0000 0.0000
usemtl palette.001
s 1
f 1/1/1 2/2/1 3/3/1
f 4/4/1 2/2/1 1/1/1
f 5/5/1 2/2/1 4/4/1
f 6/6/1 2/2/1 5/5/1
f 7/7/1 2/2/1 6/6/1
f 8/8/1 2/2/1 7/7/1
f 9/9/1 2/2/1 8/8/1
f 10/10/1 2/2/1 9/9/1
f 11/11/1 5/5/1 4/4/1
f 12/12/1 5/5/1 11/11/1
f 13/13/1 7/7/1 6/6/1
f 14/14/1 7/7/1 13/13/1
f 15/15/1 9/9/1 8/8/1
f 16/16/1 9/9/1 15/15/1
f 17/17/1 2/2/1 10/10/1
f 18/18/1 2/2/1 17/17/1
f 19/19/1 13/13/1 12/12/1
f 20/20/1 13/13/1 19/19/1
f 21/21/1 17/17/1 16/16/1
f 22/22/1 17/17/1 21/21/1
f 23/23/1 24/24/1 25/25/1
f 26/26/1 24/24/1 23/23/1
f 27/27/1 28/28/1 29/29/1
f 30/30/1 28/28/1 27/27/1
f 31/31/1 32/32/1 33/33/1
f 34/34/1 32/32/1 31/31/1
f 35/35/1 36/36/1 37/37/1
f 38/38/1 36/36/1 35/35/1
f 39/39/1 40/40/1 41/41/1
f 42/42/1 40/40/1 39/39/1
f 43/43/1 44/44/1 45/45/1
f 46/46/1 44/44/1 43/43/1
f 47/47/2 48/48/2 49/49/2
f 49/49/2 48/48/2 50/50/2
f 51/51/2 52/52/2 53/53/2
f 53/53/2 52/52/2 54/54/2
f 55/55/2 56/56/2 57/57/2
f 57/57/2 56/56/2 58/58/2
f 59/59/2 60/60/2 61/61/2
f 61/61/2 60/60/2 62/62/2
f 50/50/2 53/53/2 63/63/2
f 63/63/2 53/53/2 64/64/2
f 58/58/2 61/61/2 65/65/2
f 65/65/2 61/61/2 66/66/2
f 67/67/2 68/68/2 69/69/2
f 69/69/2 68/68/2 70/70/2
f 71/71/2 72/72/2 73/73/2
f 73/73/2 72/72/2 74/74/2
f 75/75/2 76/76/2 77/77/2
f 77/77/2 76/76/2 78/78/2
f 79/79/2 80/80/2 81/81/2
f 81/81/2 80/80/2 82/82/2
f 83/83/2 84/84/2 85/85/2
f 85/85/2 84/84/2 86/86/2
f 87/87/2 88/88/2 89/89/2
f 89/89/2 88/88/2 90/90/2
f 91/91/2 92/92/2 93/93/2
f 93/93/2 92/92/2 94/94/2
f 95/95/3 96/96/3 97/97/3
f 98/98/3 95/95/3 97/97/3
f 98/98/3 99/99/3 95/95/3
f 100/100/3 99/99/3 98/98/3
f 101/101/3 98/98/3 97/97/3
f 102/102/3 103/103/3 100/100/3
f 104/104/3 103/103/3 102/102/3
f 105/105/3 101/101/3 97/97/3
f 105/105/3 102/102/3 101/101/3
f 106/106/3 102/102/3 105/105/3
f 107/107/3 105/105/3 97/97/3
f 108/108/3 107/107/3 97/97/3
f 108/108/3 109/109/3 107/107/3
f 110/110/3 109/109/3 108/108/3
f 111/111/3 108/108/3 97/97/3
f 112/112/3 113/113/3 110/110/3
f 114/114/3 113/113/3 112/112/3
f 115/115/3 111/111/3 97/97/3
f 115/115/3 112/112/3 111/111/3
f 116/116/3 112/112/3 115/115/3
f 117/117/3 115/115/3 97/97/3
f 118/118/3 115/115/3 117/117/3
f 119/119/3 120/120/3 121/121/3
f 122/122/3 120/120/3 119/119/3
f 123/123/3 124/124/3 125/125/3
f 126/126/3 124/124/3 123/123/3
f 127/127/3 128/128/3 129/129/3
f 130/130/3 128/128/3 127/127/3
f 131/131/3 132/132/3 133/133/3
f 134/134/3 132/132/3 131/131/3
f 135/135/3 136/136/3 137/137/3
f 138/138/3 136/136/3 135/135/3
f 139/139/3 140/140/3 141/141/3
f 142/142/3 140/140/3 139/139/3
f 143/143/4 144/144/4 145/145/4
f 145/145/4 144/144/4 146/146/4
f 146/146/4 147/147/4 148/148/4
f 148/148/4 147/147/4 149/149/4
f 150/150/4 148/148/4 151/151/4
f 151/151/4 148/148/4 152/152/4
f 153/153/4 154/154/4 155/155/4
f 155/155/4 154/154/4 156/156/4
f 156/156/4 157/157/4 158/158/4
f 158/158/4 157/157/4 159/159/4
f 160/160/4 158/158/4 161/161/4
f 161/161/4 158/158/4 162/162/4
f 163/163/4 164/164/4 165/165/4
f 165/165/4 164/164/4 166/166/4
f 167/167/4 168/168/4 169/169/4
f 169/169/4 168/168/4 170/170/4
f 171/171/4 172/172/4 173/173/4
f 173/173/4 172/172/4 174/174/4
f 175/175/4 176/176/4 177/177/4
f 177/177/4 176/176/4 178/178/4
f 179/179/4 180/180/4 181/181/4
f 181/181/4 180/180/4 182/182/4
f 183/183/4 184/184/4 185/185/4
f 185/185/4 184/184/4 186/186/4
f 183/183/4 185/185/4 187/187/4
f 187/187/4 185/185/4 188/188/4
f 189/189/5 190/190/5 191/191/5
f 192/192/5 190/190/5 189/189/5
f 193/193/5 194/194/5 195/195/5
f 196/196/5 194/194/5 193/193/5
f 197/197/5 198/198/5 199/199/5
f 200/200/5 198/198/5 197/197/5
f 201/201/5 202/202/5 203/203/5
f 204/204/5 202/202/5 201/201/5
f 205/205/5 206/206/5 207/207/5
f 208/208/5 206/206/5 205/205/5
f 209/209/6 210/210/6 211/211/6
f 211/211/6 210/210/6 212/212/6
f 213/213/6 214/214/6 215/215/6
f 215/215/6 214/214/6 216/216/6
f 217/217/6 218/218/6 219/219/6
f 219/219/6 218/218/6 220/220/6
f 221/221/6 222/222/6 223/223/6
f 223/223/6 222/222/6 224/224/6
f 225/225/6 226/226/6 227/227/6
f 215/215/6 216/216/6 228/228/6
f 219/219/6 220/220/6 228/228/6
f 223/223/6 224/224/6 228/228/6
f 224/224/6 227/227/6 228/228/6
f 212/212/6 215/215/6 228/228/6
f 216/216/6 219/219/6 228/228/6
f 220/220/6 223/223/6 228/228/6
f 229/229/6 228/228/6 230/230/6
f 228/228/6 227/227/6 231/231/6
f 230/230/6 228/228/6 231/231/6
f 231/231/6 227/227/6 232/232/6
f 233/233/6 232/232/6 234/234/6
f 232/232/6 227/227/6 235/235/6
f 234/234/6 232/232/6 235/235/6
f 235/235/6 227/227/6 236/236/6
f 237/237/6 236/236/6 238/238/6
f 236/236/6 227/227/6 239/239/6
f 238/238/6 236/236/6 239/239/6
f 239/239/6 227/227/6 240/240/6
f 227/227/6 226/226/6 241/241/6
f 240/240/6 227/227/6 241/241/6
f 242/242/6 243/243/6 244/244/6
f 244/244/6 243/243/6 245/245/6
f 246/246/6 247/247/6 248/248/6
f 248/248/6 247/247/6 249/249/6
f 250/250/6 251/251/6 252/252/6
f 252/252/6 251/251/6 253/253/6
f 254/254/6 255/255/6 256/256/6
f 256/256/6 255/255/6 257/257/6
f 258/258/6 244/244/6 259/259/6
f 259/259/6 244/244/6 260/260/6
f 261/261/6 262/262/6 263/263/6
f 263/263/6 262/262/6 264/264/6
f 265/265/6 266/266/6 267/267/6
f 267/267/6 266/266/6 268/268/6
f 269/269/6 270/270/6 271/271/6
f 271/271/6 270/270/6 272/272/6
f 273/273/6 274/274/6 275/275/6
f 275/275/6 274/274/6 276/276/6
f 277/277/6 278/278/6 279/279/6
f 279/279/6 278/278/6 280/280/6
f 281/281/6 282/282/6 283/283/6
f 283/283/6 282/282/6 284/284/6
f 285/285/6 286/286/6 287/287/6
f 287/287/6 286/286/6 288/288/6
