# Blender v3.0.1 OBJ File: ''
# www.blender.org
mtllib Window.mtl
g BuildingPieces.008
v -0.400000 2.200000 -1.900000
v -0.400000 1.200000 -2.000000
v -0.400000 1.200000 -1.900000
v -0.400000 2.200000 -2.000000
v -0.300000 1.400000 -1.800000
v -0.300000 1.300000 -1.900000
v -0.300000 1.300000 -1.800000
v -0.300000 1.400000 -1.900000
v 0.300000 2.000000 -1.900000
v 0.300000 1.400000 -2.000000
v 0.300000 1.400000 -1.900000
v 0.300000 2.000000 -2.000000
v -0.200000 1.400000 -1.900000
v -0.200000 1.400000 -2.000000
v -0.200000 2.000000 -1.900000
v -0.200000 2.000000 -2.000000
v 0.400000 1.300000 -1.800000
v 0.400000 1.300000 -1.900000
v 0.400000 1.400000 -1.800000
v 0.400000 1.400000 -1.900000
v 0.500000 1.200000 -1.900000
v 0.500000 1.200000 -2.000000
v 0.500000 2.200000 -1.900000
v 0.500000 2.200000 -2.000000
v 0.400000 1.300000 -1.800000
v -0.300000 1.400000 -1.800000
v -0.300000 1.300000 -1.800000
v 0.400000 1.400000 -1.800000
v -0.300000 1.300000 -1.900000
v -0.400000 2.200000 -1.900000
v -0.400000 1.200000 -1.900000
v -0.300000 1.400000 -1.900000
v -0.200000 1.400000 -1.900000
v -0.200000 2.000000 -1.900000
v 0.300000 2.000000 -1.900000
v 0.400000 1.300000 -1.900000
v 0.400000 1.400000 -1.900000
v 0.300000 1.400000 -1.900000
v 0.500000 1.200000 -1.900000
v 0.500000 2.200000 -1.900000
v -0.400000 1.200000 -2.000000
v -0.400000 2.200000 -2.000000
v -0.200000 1.400000 -2.000000
v -0.200000 2.000000 -2.000000
v 0.300000 1.400000 -2.000000
v 0.300000 2.000000 -2.000000
v 0.500000 1.200000 -2.000000
v 0.500000 2.200000 -2.000000
v -0.400000 1.200000 -2.000000
v 0.500000 1.200000 -1.900000
v -0.400000 1.200000 -1.900000
v 0.500000 1.200000 -2.000000
v -0.300000 1.300000 -1.900000
v 0.400000 1.300000 -1.800000
v -0.300000 1.300000 -1.800000
v 0.400000 1.300000 -1.900000
v -0.200000 2.000000 -2.000000
v 0.300000 2.000000 -1.900000
v -0.200000 2.000000 -1.900000
v 0.300000 2.000000 -2.000000
v -0.300000 1.400000 -1.800000
v 0.400000 1.400000 -1.800000
v -0.300000 1.400000 -1.900000
v -0.200000 1.400000 -1.900000
v 0.300000 1.400000 -1.900000
v 0.400000 1.400000 -1.900000
v -0.200000 1.400000 -2.000000
v 0.300000 1.400000 -2.000000
v -0.400000 2.200000 -1.900000
v 0.500000 2.200000 -1.900000
v -0.400000 2.200000 -2.000000
v 0.500000 2.200000 -2.000000
vt 0.958984 0.500000
vt 0.958984 0.500000
vt 0.958984 0.500000
vt 0.958984 0.500000
vt 0.958984 0.500000
vt 0.958984 0.500000
vt 0.958984 0.500000
vt 0.958984 0.500000
vt 0.958984 0.500000
vt 0.958984 0.500000
vt 0.958984 0.500000
vt 0.958984 0.500000
vt 0.958984 0.500000
vt 0.958984 0.500000
vt 0.958984 0.500000
vt 0.958984 0.500000
vt 0.958984 0.500000
vt 0.958984 0.500000
vt 0.958984 0.500000
vt 0.958984 0.500000
vt 0.958984 0.500000
vt 0.958984 0.500000
vt 0.958984 0.500000
vt 0.958984 0.500000
vt 0.958984 0.500000
vt 0.958984 0.500000
vt 0.958984 0.500000
vt 0.958984 0.500000
vt 0.958984 0.500000
vt 0.958984 0.500000
vt 0.958984 0.500000
vt 0.958984 0.500000
vt 0.958984 0.500000
vt 0.958984 0.500000
vt 0.958984 0.500000
vt 0.958984 0.500000
vt 0.958984 0.500000
vt 0.958984 0.500000
vt 0.958984 0.500000
vt 0.958984 0.500000
vt 0.958984 0.500000
vt 0.958984 0.500000
vt 0.958984 0.500000
vt 0.958984 0.500000
vt 0.958984 0.500000
vt 0.958984 0.500000
vt 0.958984 0.500000
vt 0.958984 0.500000
vt 0.958984 0.500000
vt 0.958984 0.500000
vt 0.958984 0.500000
vt 0.958984 0.500000
vt 0.958984 0.500000
vt 0.958984 0.500000
vt 0.958984 0.500000
vt 0.958984 0.500000
vt 0.958984 0.500000
vt 0.958984 0.500000
vt 0.958984 0.500000
vt 0.958984 0.500000
vt 0.958984 0.500000
vt 0.958984 0.500000
vt 0.958984 0.500000
vt 0.958984 0.500000
vt 0.958984 0.500000
vt 0.958984 0.500000
vt 0.958984 0.500000
vt 0.958984 0.500000
vt 0.958984 0.500000
vt 0.958984 0.500000
vt 0.958984 0.500000
vt 0.958984 0.500000
vn -1.0000 0.0000 0.0000
vn 1.0000 0.0000 0.0000
vn 0.0000 0.0000 1.0000
vn 0.0000 0.0000 -1.0000
vn 0.0000 -1.0000 0.0000
vn 0.0000 1.0000 0.0000
usemtl palette.001
s 1
f 1/1/1 2/2/1 3/3/1
f 4/4/1 2/2/1 1/1/1
f 5/5/1 6/6/1 7/7/1
f 8/8/1 6/6/1 5/5/1
f 9/9/1 10/10/1 11/11/1
f 12/12/1 10/10/1 9/9/1
f 13/13/2 14/14/2 15/15/2
f 15/15/2 14/14/2 16/16/2
f 17/17/2 18/18/2 19/19/2
f 19/19/2 18/18/2 20/20/2
f 21/21/2 22/22/2 23/23/2
f 23/23/2 22/22/2 24/24/2
f 25/25/3 26/26/3 27/27/3
f 28/28/3 26/26/3 25/25/3
f 29/29/3 30/30/3 31/31/3
f 32/32/3 30/30/3 29/29/3
f 33/33/3 30/30/3 32/32/3
f 34/34/3 30/30/3 33/33/3
f 35/35/3 30/30/3 34/34/3
f 36/36/3 29/29/3 31/31/3
f 37/37/3 35/35/3 38/38/3
f 39/39/3 36/36/3 31/31/3
f 39/39/3 37/37/3 36/36/3
f 40/40/3 35/35/3 37/37/3
f 40/40/3 37/37/3 39/39/3
f 40/40/3 30/30/3 35/35/3
f 41/41/4 42/42/4 43/43/4
f 43/43/4 42/42/4 44/44/4
f 41/41/4 43/43/4 45/45/4
f 44/44/4 42/42/4 46/46/4
f 41/41/4 45/45/4 47/47/4
f 45/45/4 46/46/4 47/47/4
f 46/46/4 42/42/4 48/48/4
f 47/47/4 46/46/4 48/48/4
f 49/49/5 50/50/5 51/51/5
f 52/52/5 50/50/5 49/49/5
f 53/53/5 54/54/5 55/55/5
f 56/56/5 54/54/5 53/53/5
f 57/57/5 58/58/5 59/59/5
f 60/60/5 58/58/5 57/57/5
f 61/61/6 62/62/6 63/63/6
f 63/63/6 62/62/6 64/64/6
f 64/64/6 62/62/6 65/65/6
f 65/65/6 62/62/6 66/66/6
f 64/64/6 65/65/6 67/67/6
f 67/67/6 65/65/6 68/68/6
f 69/69/6 70/70/6 71/71/6
f 71/71/6 70/70/6 72/72/6
g BuildingPieces.011
v 0.049102 1.396853 -1.998956
v 0.049102 1.396853 -1.898956
v 0.049102 1.996853 -1.998956
v 0.049102 1.996853 -1.898956
v 0.049102 1.396853 -1.998956
v 0.049102 1.996853 -1.998956
v 0.049102 1.396853 -1.898956
v 0.049102 1.996853 -1.898956
v 0.049102 1.396853 -1.998956
v 0.049102 1.396853 -1.898956
v 0.049102 1.996853 -1.998956
v 0.049102 1.996853 -1.898956
v 0.299102 1.396853 -1.998956
v 0.299102 1.996853 -1.998956
v 0.299102 1.996853 -1.898956
v 0.299102 1.396853 -1.898956
v 0.299102 1.396853 -1.898956
v 0.299102 1.996853 -1.898956
vt 0.615234 0.500000
vt 0.615234 0.500000
vt 0.615234 0.500000
vt 0.615234 0.500000
vt 0.615234 0.500000
vt 0.615234 0.500000
vt 0.615234 0.500000
vt 0.615234 0.500000
vt 0.615234 0.500000
vt 0.615234 0.500000
vt 0.615234 0.500000
vt 0.615234 0.500000
vt 0.615234 0.500000
vt 0.615234 0.500000
vt 0.615234 0.500000
vt 0.615234 0.500000
vt 0.615234 0.500000
vt 0.615234 0.500000
vn -1.0000 0.0000 0.0000
vn 0.0000 -0.0000 -1.0000
vn 0.0000 0.0000 1.0000
vn 0.0000 -1.0000 0.0000
vn 0.0000 1.0000 0.0000
usemtl palette
s 1
f 73/73/7 74/74/7 75/75/7
f 75/75/7 74/74/7 76/76/7
f 78/77/8 86/78/8 77/79/8
f 79/80/9 87/81/9 90/82/9 80/83/9
f 82/84/10 81/85/10 89/86/10
f 88/87/9 87/81/9 79/80/9
f 87/81/11 86/78/11 83/88/11
f 89/86/10 81/85/10 85/89/10
f 77/79/8 86/78/8 85/89/8
f 83/88/11 84/90/11 87/81/11
g BuildingPieces.009_BuildingPieces.012
v 0.053913 1.396853 -1.998956
v 0.053913 1.396853 -1.898956
v 0.053913 1.996853 -1.998956
v 0.053913 1.996853 -1.898956
v 0.053913 1.396853 -1.998956
v 0.053913 1.996853 -1.998956
v 0.053913 1.396853 -1.898956
v 0.053913 1.996853 -1.898956
v 0.053913 1.396853 -1.998956
v 0.053913 1.396853 -1.898956
v 0.053913 1.996853 -1.998956
v 0.053913 1.996853 -1.898956
v -0.196087 1.396853 -1.998956
v -0.196087 1.996853 -1.998956
v -0.196087 1.996853 -1.898956
v -0.196087 1.396853 -1.898956
v -0.196087 1.396853 -1.898956
v -0.196087 1.996853 -1.898956
vt 0.615234 0.500000
vt 0.615234 0.500000
vt 0.615234 0.500000
vt 0.615234 0.500000
vt 0.615234 0.500000
vt 0.615234 0.500000
vt 0.615234 0.500000
vt 0.615234 0.500000
vt 0.615234 0.500000
vt 0.615234 0.500000
vt 0.615234 0.500000
vt 0.615234 0.500000
vt 0.615234 0.500000
vt 0.615234 0.500000
vt 0.615234 0.500000
vt 0.615234 0.500000
vt 0.615234 0.500000
vt 0.615234 0.500000
vn 1.0000 0.0000 0.0000
vn 0.0000 -0.0000 -1.0000
vn 0.0000 0.0000 1.0000
vn 0.0000 -1.0000 0.0000
vn 0.0000 1.0000 0.0000
usemtl palette
s 1
f 91/91/12 93/92/12 92/93/12
f 93/92/12 94/94/12 92/93/12
f 96/95/13 95/96/13 104/97/13
f 97/98/14 98/99/14 108/100/14 105/101/14
f 100/102/15 107/103/15 99/104/15
f 106/105/14 97/98/14 105/101/14
f 105/101/16 101/106/16 104/97/16
f 107/103/15 103/107/15 99/104/15
f 95/96/13 103/107/13 104/97/13
f 101/106/16 105/101/16 102/108/16
