# Blender v3.0.0 OBJ File: ''
# www.blender.org
mtllib rat.mtl
o Rat_and_Mushrooms.004
v 0.115199 0.200000 0.475156
v 0.015199 0.100000 0.475156
v 0.115199 0.100000 0.475156
v 0.015199 0.200000 0.475156
v 0.115199 0.100000 0.375156
v 0.015199 0.000000 0.375156
v 0.115199 0.000000 0.375156
v 0.015199 0.100000 0.375156
v 0.215199 0.200000 0.275156
v 0.115199 0.100000 0.275156
v 0.215199 0.100000 0.275156
v 0.115199 0.200000 0.275156
v 0.015199 0.100000 0.275156
v 0.015199 0.200000 0.275156
v -0.084801 0.100000 0.275156
v -0.084801 0.200000 0.275156
v 0.215199 0.300000 0.175156
v 0.115199 0.200000 0.175156
v 0.215199 0.200000 0.175156
v 0.115200 0.300000 0.175156
v 0.015199 0.300000 0.175156
v -0.084801 0.200000 0.175156
v 0.015199 0.200000 0.175156
v -0.084801 0.300000 0.175156
v 0.215199 0.100000 -0.024844
v 0.115199 0.000000 -0.024844
v 0.215199 0.000000 -0.024844
v 0.115199 0.100000 -0.024844
v 0.015199 0.100000 -0.024844
v -0.084801 0.000000 -0.024844
v 0.015199 0.000000 -0.024844
v -0.084801 0.100000 -0.024844
v 0.215199 0.300000 -0.024844
v -0.084801 0.200000 -0.024844
v 0.215199 0.200000 -0.024844
v -0.084801 0.300000 -0.024844
v 0.215199 0.100000 -0.224844
v 0.115199 0.000000 -0.224844
v 0.215199 0.000000 -0.224844
v 0.115199 0.100000 -0.224844
v 0.015199 0.100000 -0.224844
v -0.084801 0.000000 -0.224844
v 0.015199 0.000000 -0.224844
v -0.084801 0.100000 -0.224844
v 0.115199 0.100000 -0.824844
v 0.015199 0.100000 -0.824844
v 0.115199 0.100000 0.375156
v 0.015199 0.100000 0.375156
v 0.115199 0.200000 0.375156
v 0.015199 0.200000 0.375156
v 0.115199 0.000000 0.175156
v 0.015199 0.000000 0.175156
v 0.115199 0.100000 0.175156
v 0.015199 0.100000 0.175156
v 0.215199 0.200000 0.075156
v 0.115199 0.200000 0.075156
v 0.215199 0.300000 0.075156
v 0.115199 0.300000 0.075156
v 0.015199 0.200000 0.075156
v -0.084801 0.200000 0.075156
v 0.015199 0.300000 0.075156
v -0.084801 0.300000 0.075156
v 0.215199 0.000000 -0.124844
v 0.115199 0.000000 -0.124844
v 0.215199 0.100000 -0.124844
v 0.115199 0.100000 -0.124844
v 0.015199 0.000000 -0.124844
v -0.084801 0.000000 -0.124844
v 0.015199 0.100000 -0.124844
v -0.084801 0.100000 -0.124844
v 0.215199 0.200000 -0.224844
v 0.115199 0.200000 -0.224844
v 0.215199 0.300000 -0.224844
v 0.115199 0.300000 -0.224844
v 0.015199 0.200000 -0.224844
v -0.084801 0.200000 -0.224844
v 0.015199 0.300000 -0.224844
v -0.084801 0.300000 -0.224844
v 0.215199 0.000000 -0.324844
v 0.115199 0.000000 -0.324844
v 0.115199 0.100000 -0.324844
v 0.015199 0.000000 -0.324844
v -0.084801 0.000000 -0.324844
v 0.015199 0.100000 -0.324844
v 0.215199 0.200000 -0.324844
v 0.115199 0.200000 -0.324844
v 0.015199 0.200000 -0.324844
v -0.084801 0.200000 -0.324844
v 0.115199 0.300000 -0.324844
v 0.015199 0.300000 -0.324844
v 0.115199 0.100000 -0.824844
v 0.015199 0.100000 -0.824844
v 0.115199 0.200000 -0.824844
v 0.015199 0.200000 -0.824844
v 0.215199 0.100000 0.175156
v 0.215199 0.200000 0.275156
v 0.215199 0.100000 0.275156
v 0.215199 0.200000 0.175156
v 0.215199 0.200000 0.075156
v 0.215199 0.300000 0.175156
v 0.215199 0.300000 0.075156
v 0.215199 0.100000 -0.024844
v 0.215199 0.200000 -0.024844
v 0.215199 0.000000 -0.124844
v 0.215199 0.000000 -0.024844
v 0.215199 0.300000 -0.024844
v 0.215199 0.100000 -0.124844
v 0.215199 0.100000 -0.224844
v 0.215199 0.200000 -0.224844
v 0.215199 0.300000 -0.224844
v 0.215199 0.000000 -0.324844
v 0.215199 0.000000 -0.224844
v 0.215199 0.200000 -0.324844
v 0.115199 0.100000 0.375156
v 0.115199 0.200000 0.475156
v 0.115199 0.100000 0.475156
v 0.115199 0.200000 0.375156
v 0.115199 0.100000 0.275156
v 0.115199 0.000000 0.375156
v 0.115199 0.000000 0.175156
v 0.115199 0.100000 0.175156
v 0.115199 0.200000 -0.324844
v 0.115199 0.300000 -0.224844
v 0.115199 0.200000 -0.224844
v 0.115199 0.300000 -0.324844
v 0.115199 0.100000 -0.824844
v 0.115199 0.100000 -0.324844
v 0.115199 0.200000 -0.824844
v 0.015199 0.200000 0.075156
v 0.015199 0.300000 0.175156
v 0.015199 0.200000 0.175156
v 0.015199 0.300000 0.075156
v 0.015199 0.000000 -0.124844
v 0.015199 0.100000 -0.024844
v 0.015199 0.000000 -0.024844
v 0.015199 0.100000 -0.124844
v 0.015199 0.000000 -0.324844
v 0.015199 0.100000 -0.224844
v 0.015199 0.000000 -0.224844
v 0.015199 0.100000 -0.324844
v 0.115199 0.200000 0.175156
v 0.115200 0.300000 0.175156
v 0.115199 0.200000 0.075156
v 0.115199 0.300000 0.075156
v 0.115199 0.000000 -0.024844
v 0.115199 0.100000 -0.024844
v 0.115199 0.000000 -0.124844
v 0.115199 0.100000 -0.124844
v 0.115199 0.000000 -0.224844
v 0.115199 0.100000 -0.224844
v 0.115199 0.000000 -0.324844
v 0.115199 0.100000 -0.324844
v 0.015199 0.100000 0.475156
v 0.015199 0.200000 0.475156
v 0.015199 0.100000 0.375156
v 0.015199 0.200000 0.375156
v 0.015199 0.000000 0.375156
v 0.015199 0.100000 0.275156
v 0.015199 0.000000 0.175156
v 0.015199 0.100000 0.175156
v 0.015199 0.200000 -0.224844
v 0.015199 0.300000 -0.224844
v 0.015199 0.200000 -0.324844
v 0.015199 0.300000 -0.324844
v 0.015199 0.100000 -0.324844
v 0.015199 0.100000 -0.824844
v 0.015199 0.200000 -0.824844
v -0.084801 0.100000 0.275156
v -0.084801 0.200000 0.275156
v -0.084801 0.100000 0.175156
v -0.084801 0.200000 0.175156
v -0.084801 0.200000 0.075156
v -0.084801 0.300000 0.175156
v -0.084801 0.300000 0.075156
v -0.084801 0.100000 -0.024844
v -0.084801 0.200000 -0.024844
v -0.084801 0.000000 -0.024844
v -0.084801 0.000000 -0.124844
v -0.084801 0.300000 -0.024844
v -0.084801 0.100000 -0.124844
v -0.084801 0.100000 -0.224844
v -0.084801 0.200000 -0.224844
v -0.084801 0.300000 -0.224844
v -0.084801 0.000000 -0.224844
v -0.084801 0.000000 -0.324844
v -0.084801 0.200000 -0.324844
v 0.115199 0.000000 -0.024844
v 0.215199 0.000000 -0.124844
v 0.215199 0.000000 -0.024844
v 0.115199 0.000000 -0.124844
v 0.115199 0.000000 -0.224844
v 0.215199 0.000000 -0.324844
v 0.215199 0.000000 -0.224844
v 0.115199 0.000000 -0.324844
v 0.015199 0.000000 0.375156
v 0.115199 0.000000 0.175156
v 0.115199 0.000000 0.375156
v 0.015199 0.000000 0.175156
v -0.084801 0.000000 -0.024844
v 0.015199 0.000000 -0.124844
v 0.015199 0.000000 -0.024844
v -0.084801 0.000000 -0.124844
v -0.084801 0.000000 -0.224844
v 0.015199 0.000000 -0.324844
v 0.015199 0.000000 -0.224844
v -0.084801 0.000000 -0.324844
v 0.115199 0.100000 0.275156
v 0.215199 0.100000 0.175156
v 0.215199 0.100000 0.275156
v 0.115199 0.100000 0.175156
v 0.215199 0.100000 -0.024844
v 0.115199 0.100000 -0.024844
v 0.115199 0.100000 -0.124844
v 0.215199 0.100000 -0.224844
v 0.215199 0.100000 -0.124844
v 0.115199 0.100000 -0.224844
v 0.015199 0.100000 0.475156
v 0.115199 0.100000 0.375156
v 0.115199 0.100000 0.475156
v 0.015199 0.100000 0.375156
v 0.015199 0.100000 0.175156
v 0.115199 0.100000 -0.324844
v 0.015199 0.100000 -0.024844
v 0.015199 0.100000 -0.124844
v 0.015199 0.100000 -0.224844
v 0.015199 0.100000 -0.324844
v 0.115199 0.100000 -0.824844
v 0.015199 0.100000 -0.824844
v -0.084801 0.100000 0.275156
v 0.015199 0.100000 0.275156
v -0.084801 0.100000 0.175156
v -0.084801 0.100000 -0.024844
v -0.084801 0.100000 -0.124844
v -0.084801 0.100000 -0.224844
v 0.115199 0.100000 0.375156
v 0.115199 0.100000 0.275156
v 0.015199 0.100000 0.375156
v 0.015199 0.100000 0.275156
v 0.115199 0.100000 -0.824844
v 0.015199 0.100000 -0.824844
v 0.215199 0.200000 0.275156
v 0.215199 0.200000 0.175156
v 0.115199 0.200000 0.275156
v 0.115199 0.200000 0.175156
v 0.215199 0.200000 0.075156
v 0.215199 0.200000 -0.024844
v 0.115199 0.200000 0.075156
v 0.215199 0.200000 -0.224844
v 0.215199 0.200000 -0.324844
v 0.115199 0.200000 -0.224844
v 0.115199 0.200000 -0.324844
v 0.115199 0.200000 0.475156
v 0.115199 0.200000 0.375156
v 0.015199 0.200000 0.475156
v 0.015199 0.200000 0.375156
v 0.015199 0.200000 0.275156
v 0.015199 0.200000 0.175156
v 0.015199 0.200000 0.075156
v 0.115199 0.200000 -0.824844
v 0.015199 0.200000 -0.324844
v 0.015199 0.200000 -0.824844
v -0.084801 0.200000 0.275156
v -0.084801 0.200000 0.175156
v -0.084801 0.200000 0.075156
v -0.084801 0.200000 -0.024844
v 0.015199 0.200000 -0.224844
v -0.084801 0.200000 -0.224844
v -0.084801 0.200000 -0.324844
v 0.215199 0.300000 0.175156
v 0.215199 0.300000 0.075156
v 0.115200 0.300000 0.175156
v 0.115199 0.300000 0.075156
v 0.215199 0.300000 -0.024844
v 0.215199 0.300000 -0.224844
v 0.115199 0.300000 -0.224844
v 0.115199 0.300000 -0.324844
v 0.015199 0.300000 -0.224844
v 0.015199 0.300000 -0.324844
v 0.015199 0.300000 0.175156
v 0.015199 0.300000 0.075156
v -0.084801 0.300000 0.175156
v -0.084801 0.300000 0.075156
v -0.084801 0.300000 -0.024844
v -0.084801 0.300000 -0.224844
vt 0.291016 0.500000
vt 0.291016 0.500000
vt 0.291016 0.500000
vt 0.291016 0.500000
vt 0.294922 0.500000
vt 0.294922 0.500000
vt 0.294922 0.500000
vt 0.294922 0.500000
vt 0.994141 0.500000
vt 0.994141 0.500000
vt 0.994141 0.500000
vt 0.294922 0.500000
vt 0.294922 0.500000
vt 0.294922 0.500000
vt 0.994141 0.500000
vt 0.994141 0.500000
vt 0.994141 0.500000
vt 0.994141 0.500000
vt 0.294922 0.500000
vt 0.994141 0.500000
vt 0.294922 0.500000
vt 0.294922 0.500000
vt 0.294922 0.500000
vt 0.294922 0.500000
vt 0.294922 0.500000
vt 0.294922 0.500000
vt 0.294922 0.500000
vt 0.294922 0.500000
vt 0.294922 0.500000
vt 0.294922 0.500000
vt 0.294922 0.500000
vt 0.294922 0.500000
vt 0.294922 0.500000
vt 0.294922 0.500000
vt 0.294922 0.500000
vt 0.294922 0.500000
vt 0.294922 0.500000
vt 0.294922 0.500000
vt 0.294922 0.500000
vt 0.294922 0.500000
vt 0.294922 0.500000
vt 0.294922 0.500000
vt 0.294922 0.500000
vt 0.294922 0.500000
vt 0.294922 0.500000
vt 0.294922 0.500000
vt 0.294922 0.500000
vt 0.294922 0.500000
vt 0.291016 0.500000
vt 0.291016 0.500000
vt 0.291016 0.500000
vt 0.291016 0.500000
vt 0.294922 0.500000
vt 0.294922 0.500000
vt 0.294922 0.500000
vt 0.294922 0.500000
vt 0.294922 0.500000
vt 0.294922 0.500000
vt 0.294922 0.500000
vt 0.294922 0.500000
vt 0.294922 0.500000
vt 0.294922 0.500000
vt 0.294922 0.500000
vt 0.294922 0.500000
vt 0.294922 0.500000
vt 0.294922 0.500000
vt 0.294922 0.500000
vt 0.294922 0.500000
vt 0.294922 0.500000
vt 0.294922 0.500000
vt 0.294922 0.500000
vt 0.294922 0.500000
vt 0.294922 0.500000
vt 0.294922 0.500000
vt 0.294922 0.500000
vt 0.294922 0.500000
vt 0.294922 0.500000
vt 0.294922 0.500000
vt 0.294922 0.500000
vt 0.294922 0.500000
vt 0.294922 0.500000
vt 0.294922 0.500000
vt 0.294922 0.500000
vt 0.294922 0.500000
vt 0.294922 0.500000
vt 0.294922 0.500000
vt 0.294922 0.500000
vt 0.294922 0.500000
vt 0.294922 0.500000
vt 0.294922 0.500000
vt 0.294922 0.500000
vt 0.294922 0.500000
vt 0.291016 0.500000
vt 0.291016 0.500000
vt 0.291016 0.500000
vt 0.291016 0.500000
vt 0.994141 0.500000
vt 0.994141 0.500000
vt 0.994141 0.500000
vt 0.994141 0.500000
vt 0.294922 0.500000
vt 0.294922 0.500000
vt 0.294922 0.500000
vt 0.294922 0.500000
vt 0.294922 0.500000
vt 0.294922 0.500000
vt 0.294922 0.500000
vt 0.294922 0.500000
vt 0.294922 0.500000
vt 0.294922 0.500000
vt 0.294922 0.500000
vt 0.294922 0.500000
vt 0.294922 0.500000
vt 0.294922 0.500000
vt 0.294922 0.500000
vt 0.294922 0.500000
vt 0.294922 0.500000
vt 0.291016 0.500000
vt 0.291016 0.500000
vt 0.291016 0.500000
vt 0.291016 0.500000
vt 0.294922 0.500000
vt 0.294922 0.500000
vt 0.294922 0.500000
vt 0.294922 0.500000
vt 0.294922 0.500000
vt 0.294922 0.500000
vt 0.294922 0.500000
vt 0.294922 0.500000
vt 0.294922 0.500000
vt 0.291016 0.500000
vt 0.291016 0.500000
vt 0.291016 0.500000
vt 0.291016 0.500000
vt 0.294922 0.500000
vt 0.294922 0.500000
vt 0.294922 0.500000
vt 0.294922 0.500000
vt 0.294922 0.500000
vt 0.294922 0.500000
vt 0.294922 0.500000
vt 0.294922 0.500000
vt 0.294922 0.500000
vt 0.294922 0.500000
vt 0.294922 0.500000
vt 0.294922 0.500000
vt 0.294922 0.500000
vt 0.294922 0.500000
vt 0.294922 0.500000
vt 0.294922 0.500000
vt 0.294922 0.500000
vt 0.294922 0.500000
vt 0.294922 0.500000
vt 0.294922 0.500000
vt 0.294922 0.500000
vt 0.294922 0.500000
vt 0.294922 0.500000
vt 0.294922 0.500000
vt 0.291016 0.500000
vt 0.291016 0.500000
vt 0.291016 0.500000
vt 0.291016 0.500000
vt 0.294922 0.500000
vt 0.294922 0.500000
vt 0.294922 0.500000
vt 0.294922 0.500000
vt 0.294922 0.500000
vt 0.294922 0.500000
vt 0.294922 0.500000
vt 0.294922 0.500000
vt 0.294922 0.500000
vt 0.291016 0.500000
vt 0.291016 0.500000
vt 0.291016 0.500000
vt 0.291016 0.500000
vt 0.994141 0.500000
vt 0.994141 0.500000
vt 0.994141 0.500000
vt 0.994141 0.500000
vt 0.294922 0.500000
vt 0.294922 0.500000
vt 0.294922 0.500000
vt 0.294922 0.500000
vt 0.294922 0.500000
vt 0.294922 0.500000
vt 0.294922 0.500000
vt 0.294922 0.500000
vt 0.294922 0.500000
vt 0.294922 0.500000
vt 0.294922 0.500000
vt 0.294922 0.500000
vt 0.294922 0.500000
vt 0.294922 0.500000
vt 0.294922 0.500000
vt 0.294922 0.500000
vt 0.294922 0.500000
vt 0.294922 0.500000
vt 0.294922 0.500000
vt 0.294922 0.500000
vt 0.294922 0.500000
vt 0.294922 0.500000
vt 0.294922 0.500000
vt 0.294922 0.500000
vt 0.294922 0.500000
vt 0.294922 0.500000
vt 0.294922 0.500000
vt 0.294922 0.500000
vt 0.294922 0.500000
vt 0.294922 0.500000
vt 0.294922 0.500000
vt 0.294922 0.500000
vt 0.294922 0.500000
vt 0.294922 0.500000
vt 0.294922 0.500000
vt 0.294922 0.500000
vt 0.294922 0.500000
vt 0.994141 0.500000
vt 0.994141 0.500000
vt 0.994141 0.500000
vt 0.294922 0.500000
vt 0.294922 0.500000
vt 0.294922 0.500000
vt 0.994141 0.500000
vt 0.294922 0.500000
vt 0.294922 0.500000
vt 0.294922 0.500000
vt 0.294922 0.500000
vt 0.294922 0.500000
vt 0.291016 0.500000
vt 0.291016 0.500000
vt 0.291016 0.500000
vt 0.291016 0.500000
vt 0.294922 0.500000
vt 0.294922 0.500000
vt 0.294922 0.500000
vt 0.294922 0.500000
vt 0.294922 0.500000
vt 0.291016 0.500000
vt 0.291016 0.500000
vt 0.291016 0.500000
vt 0.294922 0.500000
vt 0.291016 0.500000
vt 0.994141 0.500000
vt 0.994141 0.500000
vt 0.994141 0.500000
vt 0.294922 0.500000
vt 0.994141 0.500000
vt 0.294922 0.500000
vt 0.294922 0.500000
vt 0.294922 0.500000
vt 0.294922 0.500000
vt 0.294922 0.500000
vt 0.294922 0.500000
vt 0.294922 0.500000
vt 0.994141 0.500000
vt 0.994141 0.500000
vt 0.994141 0.500000
vt 0.994141 0.500000
vt 0.294922 0.500000
vt 0.294922 0.500000
vt 0.294922 0.500000
vt 0.294922 0.500000
vt 0.294922 0.500000
vt 0.294922 0.500000
vt 0.294922 0.500000
vt 0.291016 0.500000
vt 0.291016 0.500000
vt 0.291016 0.500000
vt 0.291016 0.500000
vt 0.294922 0.500000
vt 0.294922 0.500000
vt 0.294922 0.500000
vt 0.294922 0.500000
vt 0.294922 0.500000
vt 0.291016 0.500000
vt 0.291016 0.500000
vt 0.291016 0.500000
vt 0.291016 0.500000
vt 0.994141 0.500000
vt 0.994141 0.500000
vt 0.994141 0.500000
vt 0.994141 0.500000
vt 0.294922 0.500000
vt 0.294922 0.500000
vt 0.294922 0.500000
vt 0.294922 0.500000
vt 0.294922 0.500000
vt 0.294922 0.500000
vt 0.294922 0.500000
vt 0.294922 0.500000
vt 0.294922 0.500000
vt 0.294922 0.500000
vt 0.294922 0.500000
vt 0.294922 0.500000
vt 0.294922 0.500000
vt 0.294922 0.500000
vt 0.294922 0.500000
vt 0.294922 0.500000
vt 0.294922 0.500000
vt 0.294922 0.500000
vt 0.294922 0.500000
vt 0.294922 0.500000
vt 0.294922 0.500000
vt 0.294922 0.500000
vn -0.0000 0.0000 1.0000
vn 0.0000 0.0000 -1.0000
vn 1.0000 0.0000 -0.0000
vn -1.0000 0.0000 0.0000
vn -0.0000 -1.0000 0.0000
vn 0.0000 1.0000 0.0000
usemtl palette
s 1
f 1/1/1 2/2/1 3/3/1
f 4/4/1 2/2/1 1/1/1
f 5/5/1 6/6/1 7/7/1
f 8/8/1 6/6/1 5/5/1
f 9/9/1 10/10/1 11/11/1
f 12/12/1 13/13/1 10/14/1
f 12/15/1 10/10/1 9/9/1
f 14/16/1 15/17/1 13/18/1
f 14/19/1 13/13/1 12/12/1
f 16/20/1 15/17/1 14/16/1
f 17/21/1 18/22/1 19/23/1
f 20/24/1 18/22/1 17/21/1
f 21/25/1 22/26/1 23/27/1
f 24/28/1 22/26/1 21/25/1
f 25/29/1 26/30/1 27/31/1
f 28/32/1 26/30/1 25/29/1
f 29/33/1 30/34/1 31/35/1
f 32/36/1 30/34/1 29/33/1
f 33/37/1 34/38/1 35/39/1
f 36/40/1 34/38/1 33/37/1
f 37/41/1 38/42/1 39/43/1
f 40/44/1 38/42/1 37/41/1
f 41/45/1 42/46/1 43/47/1
f 44/48/1 42/46/1 41/45/1
f 47/49/2 48/50/2 49/51/2
f 49/51/2 48/50/2 50/52/2
f 51/53/2 52/54/2 53/55/2
f 53/55/2 52/54/2 54/56/2
f 55/57/2 56/58/2 57/59/2
f 57/59/2 56/58/2 58/60/2
f 59/61/2 60/62/2 61/63/2
f 61/63/2 60/62/2 62/64/2
f 63/65/2 64/66/2 65/67/2
f 65/67/2 64/66/2 66/68/2
f 67/69/2 68/70/2 69/71/2
f 69/71/2 68/70/2 70/72/2
f 71/73/2 72/74/2 73/75/2
f 73/75/2 72/74/2 74/76/2
f 75/77/2 76/78/2 77/79/2
f 77/79/2 76/78/2 78/80/2
f 79/81/2 80/82/2 81/83/2
f 82/84/2 83/85/2 84/86/2
f 79/81/2 81/83/2 85/87/2
f 85/87/2 81/83/2 86/88/2
f 84/86/2 83/85/2 87/89/2
f 87/89/2 83/85/2 88/90/2
f 86/88/2 87/89/2 89/91/2
f 89/91/2 87/89/2 90/92/2
f 91/93/2 92/94/2 93/95/2
f 93/95/2 92/94/2 94/96/2
f 95/97/3 96/98/3 97/99/3
f 98/100/3 96/98/3 95/97/3
f 99/101/3 98/102/3 95/103/3
f 99/101/3 100/104/3 98/102/3
f 101/105/3 100/104/3 99/101/3
f 102/106/3 99/101/3 95/103/3
f 103/107/3 99/101/3 102/106/3
f 104/108/3 102/106/3 105/109/3
f 104/108/3 106/110/3 103/107/3
f 104/108/3 103/107/3 102/106/3
f 107/111/3 106/110/3 104/108/3
f 108/112/3 106/110/3 107/111/3
f 109/113/3 106/110/3 108/112/3
f 110/114/3 106/110/3 109/113/3
f 111/115/3 108/112/3 112/116/3
f 111/115/3 109/113/3 108/112/3
f 113/117/3 109/113/3 111/115/3
f 114/118/3 115/119/3 116/120/3
f 117/121/3 115/119/3 114/118/3
f 118/122/3 114/123/3 119/124/3
f 120/125/3 118/122/3 119/124/3
f 121/126/3 118/122/3 120/125/3
f 122/127/3 123/128/3 124/129/3
f 125/130/3 123/128/3 122/127/3
f 126/131/3 122/132/3 127/133/3
f 128/134/3 122/132/3 126/131/3
f 129/135/3 130/136/3 131/137/3
f 132/138/3 130/136/3 129/135/3
f 133/139/3 134/140/3 135/141/3
f 136/142/3 134/140/3 133/139/3
f 137/143/3 138/144/3 139/145/3
f 140/146/3 138/144/3 137/143/3
f 141/147/4 142/148/4 143/149/4
f 143/149/4 142/148/4 144/150/4
f 145/151/4 146/152/4 147/153/4
f 147/153/4 146/152/4 148/154/4
f 149/155/4 150/156/4 151/157/4
f 151/157/4 150/156/4 152/158/4
f 153/159/4 154/160/4 155/161/4
f 155/161/4 154/160/4 156/162/4
f 157/163/4 155/164/4 158/165/4
f 157/163/4 158/165/4 159/166/4
f 159/166/4 158/165/4 160/167/4
f 161/168/4 162/169/4 163/170/4
f 163/170/4 162/169/4 164/171/4
f 165/172/4 163/173/4 166/174/4
f 166/174/4 163/173/4 167/175/4
f 168/176/4 169/177/4 170/178/4
f 170/178/4 169/177/4 171/179/4
f 170/180/4 171/181/4 172/182/4
f 171/181/4 173/183/4 172/182/4
f 172/182/4 173/183/4 174/184/4
f 170/180/4 172/182/4 175/185/4
f 175/185/4 172/182/4 176/186/4
f 177/187/4 175/185/4 178/188/4
f 176/186/4 179/189/4 178/188/4
f 175/185/4 176/186/4 178/188/4
f 178/188/4 179/189/4 180/190/4
f 180/190/4 179/189/4 181/191/4
f 181/191/4 179/189/4 182/192/4
f 182/192/4 179/189/4 183/193/4
f 184/194/4 181/191/4 185/195/4
f 181/191/4 182/192/4 185/195/4
f 185/195/4 182/192/4 186/196/4
f 187/197/5 188/198/5 189/199/5
f 190/200/5 188/198/5 187/197/5
f 191/201/5 192/202/5 193/203/5
f 194/204/5 192/202/5 191/201/5
f 195/205/5 196/206/5 197/207/5
f 198/208/5 196/206/5 195/205/5
f 199/209/5 200/210/5 201/211/5
f 202/212/5 200/210/5 199/209/5
f 203/213/5 204/214/5 205/215/5
f 206/216/5 204/214/5 203/213/5
f 207/217/5 208/218/5 209/219/5
f 210/220/5 211/221/5 208/222/5
f 210/223/5 208/218/5 207/217/5
f 212/224/5 211/221/5 210/220/5
f 213/225/5 214/226/5 215/227/5
f 216/228/5 214/226/5 213/225/5
f 217/229/5 218/230/5 219/231/5
f 220/232/5 218/230/5 217/229/5
f 221/233/5 212/224/5 210/220/5
f 221/233/5 213/225/5 212/224/5
f 221/233/5 216/228/5 213/225/5
f 221/233/5 222/234/5 216/228/5
f 223/235/5 222/234/5 221/233/5
f 224/236/5 222/234/5 223/235/5
f 225/237/5 222/234/5 224/236/5
f 226/238/5 227/239/5 222/240/5
f 226/241/5 222/234/5 225/237/5
f 228/242/5 227/239/5 226/238/5
f 229/243/5 221/244/5 230/245/5
f 231/246/5 223/235/5 221/233/5
f 231/247/5 221/244/5 229/243/5
f 232/248/5 223/235/5 231/246/5
f 233/249/5 225/237/5 224/236/5
f 234/250/5 225/237/5 233/249/5
f 235/251/6 236/252/6 237/253/6
f 237/253/6 236/252/6 238/254/6
f 241/255/6 242/256/6 243/257/6
f 243/257/6 242/256/6 244/258/6
f 245/259/6 246/260/6 247/261/6
f 248/262/6 249/263/6 250/264/6
f 250/264/6 249/263/6 251/265/6
f 252/266/6 253/267/6 254/268/6
f 254/268/6 253/267/6 255/269/6
f 243/270/6 244/271/6 256/272/6
f 244/271/6 247/261/6 256/272/6
f 256/272/6 247/261/6 257/273/6
f 247/261/6 246/260/6 258/274/6
f 257/273/6 247/261/6 258/274/6
f 251/275/6 259/276/6 260/277/6
f 260/277/6 259/276/6 261/278/6
f 256/279/6 257/280/6 262/281/6
f 262/281/6 257/280/6 263/282/6
f 258/274/6 246/260/6 264/283/6
f 264/283/6 246/260/6 265/284/6
f 266/285/6 260/286/6 267/287/6
f 267/287/6 260/286/6 268/288/6
f 269/289/6 270/290/6 271/291/6
f 271/291/6 270/290/6 272/292/6
f 273/293/6 274/294/6 275/295/6
f 275/295/6 276/296/6 277/297/6
f 273/293/6 275/295/6 277/297/6
f 277/297/6 276/296/6 278/298/6
f 279/299/6 280/300/6 281/301/6
f 281/301/6 280/300/6 282/302/6
f 273/293/6 277/297/6 283/303/6
f 283/303/6 277/297/6 284/304/6
l 239 240
l 45 46
