# Blender v3.1.2 OBJ File: ''
# www.blender.org
mtllib FloorRock5.mtl
o Circle.003
v -19.089668 0.000000 -14.271873
v -19.975798 0.000000 -14.420048
v -20.774967 0.000000 -13.968700
v -21.205536 0.000000 -13.246573
v -21.433897 0.000000 -12.098523
v -21.205536 0.000000 -10.950473
v -20.652266 0.000000 -10.583752
v -19.731049 0.000000 -10.258762
v -18.597391 0.000000 -10.120358
v -17.434948 0.000000 -10.258762
v -16.648788 0.000000 -10.453944
v -16.097481 0.000000 -10.758932
v -16.092894 0.000000 -11.266634
v -16.829292 0.000000 -11.890300
v -17.865765 0.000000 -12.584908
v -18.413687 0.000000 -13.535053
v -19.089668 -1.000000 -14.271873
v -19.975798 -1.000000 -14.420048
v -20.774967 -1.000000 -13.968700
v -21.205536 -1.000000 -13.246573
v -21.433897 -1.000000 -12.098523
v -21.205536 -1.000000 -10.950473
v -20.652266 -1.000000 -10.583752
v -19.731049 -1.000000 -10.258762
v -18.597391 -1.000000 -10.120358
v -17.434948 -1.000000 -10.258762
v -16.648788 -1.000000 -10.453944
v -16.097481 -1.000000 -10.758932
v -16.092894 -1.000000 -11.266634
v -16.829292 -1.000000 -11.890300
v -17.865765 -1.000000 -12.584908
v -18.413687 -1.000000 -13.535053
vt 0.000000 0.000000
vt 0.000000 0.000000
vt 0.000000 0.000000
vt 0.000000 0.000000
vt 0.000000 0.000000
vt 0.000000 0.000000
vt 0.000000 0.000000
vt 0.000000 0.000000
vt 0.000000 0.000000
vt 0.000000 0.000000
vt 0.000000 0.000000
vt 0.000000 0.000000
vt 0.000000 0.000000
vt 0.000000 0.000000
vt 0.000000 0.000000
vt 0.000000 0.000000
vt 0.000000 0.000000
vt 0.000000 0.000000
vt 0.000000 0.000000
vt 0.000000 0.000000
vt 0.000000 0.000000
vt 0.000000 0.000000
vt 0.000000 0.000000
vt 0.000000 0.000000
vt 0.000000 0.000000
vt 0.000000 0.000000
vt 0.000000 0.000000
vt 0.000000 0.000000
vt 0.000000 0.000000
vt 0.000000 0.000000
vt 0.000000 0.000000
vt 0.000000 0.000000
vn 0.0000 1.0000 0.0000
vn 0.0000 -1.0000 0.0000
vn 0.1649 0.0000 -0.9863
vn -0.4918 0.0000 -0.8707
vn -0.8589 0.0000 -0.5121
vn -0.9808 0.0000 -0.1951
vn -0.9808 0.0000 0.1951
vn -0.5525 0.0000 0.8335
vn -0.3327 0.0000 0.9430
vn -0.1212 0.0000 0.9926
vn 0.1182 0.0000 0.9930
vn 0.2410 0.0000 0.9705
vn 0.4841 0.0000 0.8750
vn 1.0000 0.0000 0.0090
vn 0.6463 0.0000 -0.7631
vn 0.5567 0.0000 -0.8307
vn 0.8663 0.0000 -0.4996
vn 0.7369 0.0000 -0.6760
usemtl None
s off
f 2/1/1 3/2/1 4/3/1 5/4/1 6/5/1 7/6/1 8/7/1 9/8/1 10/9/1 11/10/1 12/11/1 13/12/1 14/13/1 15/14/1 16/15/1 1/16/1
f 18/17/2 17/18/2 32/19/2 31/20/2 30/21/2 29/22/2 28/23/2 27/24/2 26/25/2 25/26/2 24/27/2 23/28/2 22/29/2 21/30/2 20/31/2 19/32/2
f 2/1/3 1/16/3 17/18/3 18/17/3
f 3/2/4 2/1/4 18/17/4 19/32/4
f 4/3/5 3/2/5 19/32/5 20/31/5
f 5/4/6 4/3/6 20/31/6 21/30/6
f 6/5/7 5/4/7 21/30/7 22/29/7
f 7/6/8 6/5/8 22/29/8 23/28/8
f 8/7/9 7/6/9 23/28/9 24/27/9
f 9/8/10 8/7/10 24/27/10 25/26/10
f 10/9/11 9/8/11 25/26/11 26/25/11
f 11/10/12 10/9/12 26/25/12 27/24/12
f 12/11/13 11/10/13 27/24/13 28/23/13
f 13/12/14 12/11/14 28/23/14 29/22/14
f 14/13/15 13/12/15 29/22/15 30/21/15
f 15/14/16 14/13/16 30/21/16 31/20/16
f 16/15/17 15/14/17 31/20/17 32/19/17
f 1/16/18 16/15/18 32/19/18 17/18/18
