# Blender v3.0.0 OBJ File: ''
# www.blender.org
mtllib Mushroom2.mtl
o Rat_and_Mushrooms.001
v -0.297619 0.400000 0.404887
v -0.297619 0.300000 0.104887
v -0.297619 0.300000 0.404887
v -0.297619 0.400000 0.104887
v -0.197619 0.300000 0.304887
v -0.197619 0.000000 0.204887
v -0.197619 0.000000 0.304887
v -0.197619 0.300000 0.204887
v 0.102381 0.300000 0.104887
v 0.102381 0.200000 -0.195113
v 0.102381 0.200000 0.104887
v 0.102381 0.300000 -0.195113
v 0.202381 0.100000 0.504887
v 0.202381 -0.000000 0.404887
v 0.202381 -0.000000 0.504887
v 0.202381 0.100000 0.404887
v 0.202381 0.200000 0.504887
v 0.202381 0.200000 0.404887
v 0.202381 0.200000 0.004887
v 0.202381 0.000000 -0.095113
v 0.202381 0.000000 0.004887
v 0.202381 0.200000 -0.095113
v -0.097620 0.000000 0.304887
v -0.097620 0.000000 0.204887
v -0.097620 0.300000 0.304887
v -0.097620 0.300000 0.204887
v 0.002380 0.300000 0.404887
v 0.002380 0.300000 0.104887
v 0.002380 0.400000 0.404887
v 0.002380 0.400000 0.104887
v 0.302381 -0.000000 0.504887
v 0.302381 -0.000000 0.404887
v 0.302381 0.100000 0.504887
v 0.302381 0.100000 0.404887
v 0.302381 0.200000 0.504887
v 0.302381 0.200000 0.404887
v 0.302381 0.000000 0.004887
v 0.302381 0.000000 -0.095113
v 0.302381 0.200000 0.004887
v 0.302381 0.200000 -0.095113
v 0.402380 0.200000 0.104887
v 0.402380 0.200000 -0.195113
v 0.402380 0.300000 0.104887
v 0.402380 0.300000 -0.195113
v 0.302381 -0.000000 0.504887
v 0.202381 0.100000 0.504887
v 0.202381 -0.000000 0.504887
v 0.302381 0.100000 0.504887
v 0.202381 0.200000 0.504887
v 0.302381 0.200000 0.504887
v 0.002380 0.300000 0.404887
v -0.297619 0.400000 0.404887
v -0.297619 0.300000 0.404887
v 0.002380 0.400000 0.404887
v -0.097620 0.000000 0.304887
v -0.197619 0.300000 0.304887
v -0.197619 0.000000 0.304887
v -0.097620 0.300000 0.304887
v 0.402380 0.200000 0.104887
v 0.102381 0.300000 0.104887
v 0.102381 0.200000 0.104887
v 0.402380 0.300000 0.104887
v 0.302381 0.000000 0.004887
v 0.202381 0.200000 0.004887
v 0.202381 0.000000 0.004887
v 0.302381 0.200000 0.004887
v 0.202381 -0.000000 0.404887
v 0.202381 0.100000 0.404887
v 0.302381 -0.000000 0.404887
v 0.202381 0.200000 0.404887
v 0.302381 0.100000 0.404887
v 0.302381 0.200000 0.404887
v -0.197619 0.000000 0.204887
v -0.197619 0.300000 0.204887
v -0.097620 0.000000 0.204887
v -0.097620 0.300000 0.204887
v -0.297619 0.300000 0.104887
v -0.297619 0.400000 0.104887
v 0.002380 0.300000 0.104887
v 0.002380 0.400000 0.104887
v 0.202381 0.000000 -0.095113
v 0.202381 0.200000 -0.095113
v 0.302381 0.000000 -0.095113
v 0.302381 0.200000 -0.095113
v 0.102381 0.200000 -0.195113
v 0.102381 0.300000 -0.195113
v 0.402380 0.200000 -0.195113
v 0.402380 0.300000 -0.195113
v 0.202381 -0.000000 0.404887
v 0.302381 -0.000000 0.504887
v 0.202381 -0.000000 0.504887
v 0.302381 -0.000000 0.404887
v -0.197619 0.000000 0.204887
v -0.097620 0.000000 0.304887
v -0.197619 0.000000 0.304887
v -0.097620 0.000000 0.204887
v 0.202381 0.000000 -0.095113
v 0.302381 0.000000 0.004887
v 0.202381 0.000000 0.004887
v 0.302381 0.000000 -0.095113
v 0.202381 0.200000 0.004887
v 0.402380 0.200000 0.104887
v 0.102381 0.200000 0.104887
v 0.302381 0.200000 0.004887
v 0.202381 0.200000 -0.095113
v 0.302381 0.200000 -0.095113
v 0.102381 0.200000 -0.195113
v 0.402380 0.200000 -0.195113
v -0.197619 0.300000 0.304887
v 0.002380 0.300000 0.404887
v -0.297619 0.300000 0.404887
v -0.097620 0.300000 0.304887
v -0.197619 0.300000 0.204887
v -0.097620 0.300000 0.204887
v -0.297619 0.300000 0.104887
v 0.002380 0.300000 0.104887
v 0.202381 0.200000 0.504887
v 0.302381 0.200000 0.504887
v 0.202381 0.200000 0.404887
v 0.302381 0.200000 0.404887
v 0.102381 0.300000 0.104887
v 0.402380 0.300000 0.104887
v 0.102381 0.300000 -0.195113
v 0.402380 0.300000 -0.195113
v -0.297619 0.400000 0.404887
v 0.002380 0.400000 0.404887
v -0.297619 0.400000 0.104887
v 0.002380 0.400000 0.104887
vt 0.310547 0.500000
vt 0.310547 0.500000
vt 0.310547 0.500000
vt 0.310547 0.500000
vt 0.306641 0.500000
vt 0.306641 0.500000
vt 0.306641 0.500000
vt 0.306641 0.500000
vt 0.310547 0.500000
vt 0.310547 0.500000
vt 0.310547 0.500000
vt 0.310547 0.500000
vt 0.306641 0.500000
vt 0.306641 0.500000
vt 0.306641 0.500000
vt 0.306641 0.500000
vt 0.310547 0.500000
vt 0.310547 0.500000
vt 0.310547 0.500000
vt 0.310547 0.500000
vt 0.306641 0.500000
vt 0.306641 0.500000
vt 0.306641 0.500000
vt 0.306641 0.500000
vt 0.306641 0.500000
vt 0.306641 0.500000
vt 0.306641 0.500000
vt 0.306641 0.500000
vt 0.310547 0.500000
vt 0.310547 0.500000
vt 0.310547 0.500000
vt 0.310547 0.500000
vt 0.306641 0.500000
vt 0.306641 0.500000
vt 0.306641 0.500000
vt 0.306641 0.500000
vt 0.310547 0.500000
vt 0.310547 0.500000
vt 0.310547 0.500000
vt 0.310547 0.500000
vt 0.306641 0.500000
vt 0.306641 0.500000
vt 0.306641 0.500000
vt 0.306641 0.500000
vt 0.310547 0.500000
vt 0.310547 0.500000
vt 0.310547 0.500000
vt 0.310547 0.500000
vt 0.306641 0.500000
vt 0.306641 0.500000
vt 0.306641 0.500000
vt 0.310547 0.500000
vt 0.310547 0.500000
vt 0.310547 0.500000
vt 0.306641 0.500000
vt 0.310547 0.500000
vt 0.310547 0.500000
vt 0.310547 0.500000
vt 0.310547 0.500000
vt 0.310547 0.500000
vt 0.306641 0.500000
vt 0.306641 0.500000
vt 0.306641 0.500000
vt 0.306641 0.500000
vt 0.310547 0.500000
vt 0.310547 0.500000
vt 0.310547 0.500000
vt 0.310547 0.500000
vt 0.306641 0.500000
vt 0.306641 0.500000
vt 0.306641 0.500000
vt 0.306641 0.500000
vt 0.306641 0.500000
vt 0.306641 0.500000
vt 0.306641 0.500000
vt 0.310547 0.500000
vt 0.310547 0.500000
vt 0.310547 0.500000
vt 0.306641 0.500000
vt 0.310547 0.500000
vt 0.306641 0.500000
vt 0.306641 0.500000
vt 0.306641 0.500000
vt 0.306641 0.500000
vt 0.310547 0.500000
vt 0.310547 0.500000
vt 0.310547 0.500000
vt 0.310547 0.500000
vt 0.306641 0.500000
vt 0.306641 0.500000
vt 0.306641 0.500000
vt 0.306641 0.500000
vt 0.310547 0.500000
vt 0.310547 0.500000
vt 0.310547 0.500000
vt 0.310547 0.500000
vt 0.306641 0.500000
vt 0.306641 0.500000
vt 0.306641 0.500000
vt 0.306641 0.500000
vt 0.306641 0.500000
vt 0.306641 0.500000
vt 0.306641 0.500000
vt 0.306641 0.500000
vt 0.306641 0.500000
vt 0.306641 0.500000
vt 0.306641 0.500000
vt 0.306641 0.500000
vt 0.310547 0.500000
vt 0.310547 0.500000
vt 0.310547 0.500000
vt 0.310547 0.500000
vt 0.310547 0.500000
vt 0.310547 0.500000
vt 0.310547 0.500000
vt 0.310547 0.500000
vt 0.310547 0.500000
vt 0.310547 0.500000
vt 0.310547 0.500000
vt 0.310547 0.500000
vt 0.310547 0.500000
vt 0.310547 0.500000
vt 0.310547 0.500000
vt 0.310547 0.500000
vt 0.310547 0.500000
vt 0.310547 0.500000
vt 0.310547 0.500000
vt 0.310547 0.500000
vt 0.310547 0.500000
vt 0.310547 0.500000
vt 0.310547 0.500000
vt 0.310547 0.500000
vt 0.310547 0.500000
vt 0.310547 0.500000
vt 0.310547 0.500000
vt 0.310547 0.500000
vn -1.0000 0.0000 0.0000
vn 1.0000 0.0000 0.0000
vn 0.0000 0.0000 1.0000
vn 0.0000 0.0000 -1.0000
vn 0.0000 -1.0000 -0.0000
vn 0.0000 1.0000 0.0000
usemtl palette
s 1
f 1/1/1 2/2/1 3/3/1
f 4/4/1 2/2/1 1/1/1
f 5/5/1 6/6/1 7/7/1
f 8/8/1 6/6/1 5/5/1
f 9/9/1 10/10/1 11/11/1
f 12/12/1 10/10/1 9/9/1
f 13/13/1 14/14/1 15/15/1
f 16/16/1 14/14/1 13/13/1
f 17/17/1 16/18/1 13/19/1
f 18/20/1 16/18/1 17/17/1
f 19/21/1 20/22/1 21/23/1
f 22/24/1 20/22/1 19/21/1
f 23/25/2 24/26/2 25/27/2
f 25/27/2 24/26/2 26/28/2
f 27/29/2 28/30/2 29/31/2
f 29/31/2 28/30/2 30/32/2
f 31/33/2 32/34/2 33/35/2
f 33/35/2 32/34/2 34/36/2
f 33/37/2 34/38/2 35/39/2
f 35/39/2 34/38/2 36/40/2
f 37/41/2 38/42/2 39/43/2
f 39/43/2 38/42/2 40/44/2
f 41/45/2 42/46/2 43/47/2
f 43/47/2 42/46/2 44/48/2
f 45/49/3 46/50/3 47/51/3
f 48/52/3 49/53/3 46/54/3
f 48/55/3 46/50/3 45/49/3
f 50/56/3 49/53/3 48/52/3
f 51/57/3 52/58/3 53/59/3
f 54/60/3 52/58/3 51/57/3
f 55/61/3 56/62/3 57/63/3
f 58/64/3 56/62/3 55/61/3
f 59/65/3 60/66/3 61/67/3
f 62/68/3 60/66/3 59/65/3
f 63/69/3 64/70/3 65/71/3
f 66/72/3 64/70/3 63/69/3
f 67/73/4 68/74/4 69/75/4
f 68/76/4 70/77/4 71/78/4
f 69/75/4 68/74/4 71/79/4
f 71/78/4 70/77/4 72/80/4
f 73/81/4 74/82/4 75/83/4
f 75/83/4 74/82/4 76/84/4
f 77/85/4 78/86/4 79/87/4
f 79/87/4 78/86/4 80/88/4
f 81/89/4 82/90/4 83/91/4
f 83/91/4 82/90/4 84/92/4
f 85/93/4 86/94/4 87/95/4
f 87/95/4 86/94/4 88/96/4
f 89/97/5 90/98/5 91/99/5
f 92/100/5 90/98/5 89/97/5
f 93/101/5 94/102/5 95/103/5
f 96/104/5 94/102/5 93/101/5
f 97/105/5 98/106/5 99/107/5
f 100/108/5 98/106/5 97/105/5
f 101/109/5 102/110/5 103/111/5
f 104/112/5 102/110/5 101/109/5
f 105/113/5 101/109/5 103/111/5
f 106/114/5 102/110/5 104/112/5
f 107/115/5 105/113/5 103/111/5
f 107/115/5 106/114/5 105/113/5
f 108/116/5 102/110/5 106/114/5
f 108/116/5 106/114/5 107/115/5
f 109/117/5 110/118/5 111/119/5
f 112/120/5 110/118/5 109/117/5
f 113/121/5 109/117/5 111/119/5
f 114/122/5 110/118/5 112/120/5
f 115/123/5 113/121/5 111/119/5
f 115/123/5 114/122/5 113/121/5
f 116/124/5 110/118/5 114/122/5
f 116/124/5 114/122/5 115/123/5
f 117/125/6 118/126/6 119/127/6
f 119/127/6 118/126/6 120/128/6
f 121/129/6 122/130/6 123/131/6
f 123/131/6 122/130/6 124/132/6
f 125/133/6 126/134/6 127/135/6
f 127/135/6 126/134/6 128/136/6
