# Blender v3.0.0 OBJ File: ''
# www.blender.org
mtllib Mushroom3.mtl
o Rat_and_Mushrooms.002
v -0.203307 0.400000 0.100508
v -0.203307 0.300000 -0.199492
v -0.203307 0.300000 0.100508
v -0.203307 0.400000 0.000508
v -0.203307 0.500000 0.100508
v -0.203307 0.500000 0.000508
v -0.203307 0.500000 -0.099492
v -0.203307 0.500000 -0.199492
v -0.203307 0.600000 0.000508
v -0.203307 0.600000 -0.099492
v -0.103307 0.400000 0.100508
v -0.103307 0.300000 0.100508
v -0.103307 0.300000 0.200508
v -0.103307 0.500000 0.200508
v -0.103307 0.500000 0.100508
v -0.103307 0.500000 -0.199492
v -0.103307 0.300000 -0.299492
v -0.103307 0.300000 -0.199492
v -0.103307 0.500000 -0.299492
v -0.103307 0.600000 0.100508
v -0.103307 0.500000 0.000508
v -0.103307 0.600000 0.000508
v -0.103307 0.600000 -0.099492
v -0.103307 0.500000 -0.099492
v -0.103307 0.600000 -0.199492
v -0.003307 0.300000 0.000508
v -0.003307 0.000000 -0.099492
v -0.003307 0.000000 0.000508
v -0.003307 0.300000 -0.099492
v -0.003307 0.600000 0.200508
v -0.003307 0.500000 0.100508
v -0.003307 0.500000 0.200508
v -0.003307 0.600000 0.100508
v -0.003307 0.600000 -0.199492
v -0.003307 0.500000 -0.299492
v -0.003307 0.500000 -0.199492
v -0.003307 0.600000 -0.299492
v 0.096693 0.000000 0.000508
v 0.096693 0.000000 -0.099492
v 0.096693 0.300000 0.000508
v 0.096693 0.300000 -0.099492
v 0.096693 0.500000 0.200508
v 0.096693 0.500000 0.100508
v 0.096693 0.600000 0.200508
v 0.096693 0.600000 0.100508
v 0.096693 0.500000 -0.199492
v 0.096693 0.500000 -0.299492
v 0.096693 0.600000 -0.199492
v 0.096693 0.600000 -0.299492
v 0.196693 0.300000 -0.199492
v 0.196693 0.300000 -0.299492
v 0.196693 0.400000 -0.199492
v 0.196693 0.300000 0.200508
v 0.196693 0.300000 0.100508
v 0.196693 0.500000 0.200508
v 0.196693 0.500000 0.100508
v 0.196693 0.500000 -0.199492
v 0.196693 0.500000 -0.299492
v 0.196693 0.500000 0.000508
v 0.196693 0.600000 0.100508
v 0.196693 0.600000 0.000508
v 0.196693 0.500000 -0.099492
v 0.196693 0.600000 -0.099492
v 0.196693 0.600000 -0.199492
v 0.296693 0.300000 0.100508
v 0.296693 0.300000 -0.099492
v 0.296693 0.400000 -0.099492
v 0.296693 0.300000 -0.199492
v 0.296693 0.400000 -0.199492
v 0.296693 0.500000 0.100508
v 0.296693 0.500000 0.000508
v 0.296693 0.500000 -0.099492
v 0.296693 0.500000 -0.199492
v 0.296693 0.600000 0.000508
v 0.296693 0.600000 -0.099492
v -0.003307 0.300000 0.200508
v -0.103307 0.500000 0.200508
v -0.103307 0.300000 0.200508
v -0.003307 0.400000 0.200508
v -0.003307 0.500000 0.200508
v 0.096693 0.300000 0.200508
v 0.096693 0.400000 0.200508
v -0.003307 0.600000 0.200508
v 0.096693 0.500000 0.200508
v 0.096693 0.600000 0.200508
v 0.196693 0.300000 0.200508
v 0.196693 0.500000 0.200508
v -0.103307 0.300000 0.100508
v -0.203307 0.400000 0.100508
v -0.203307 0.300000 0.100508
v -0.103307 0.400000 0.100508
v -0.203307 0.500000 0.100508
v -0.103307 0.500000 0.100508
v -0.003307 0.500000 0.100508
v -0.103307 0.600000 0.100508
v -0.003307 0.600000 0.100508
v 0.196693 0.500000 0.100508
v 0.096693 0.600000 0.100508
v 0.096693 0.500000 0.100508
v 0.196693 0.600000 0.100508
v 0.296693 0.300000 0.100508
v 0.196693 0.300000 0.100508
v 0.296693 0.500000 0.100508
v -0.103307 0.500000 0.000508
v -0.203307 0.600000 0.000508
v -0.203307 0.500000 0.000508
v -0.103307 0.600000 0.000508
v 0.096693 0.000000 0.000508
v -0.003307 0.300000 0.000508
v -0.003307 0.000000 0.000508
v 0.096693 0.300000 0.000508
v 0.296693 0.500000 0.000508
v 0.196693 0.600000 0.000508
v 0.196693 0.500000 0.000508
v 0.296693 0.600000 0.000508
v -0.203307 0.500000 -0.099492
v -0.203307 0.600000 -0.099492
v -0.103307 0.500000 -0.099492
v -0.103307 0.600000 -0.099492
v -0.003307 0.000000 -0.099492
v -0.003307 0.300000 -0.099492
v 0.096693 0.000000 -0.099492
v 0.096693 0.300000 -0.099492
v 0.196693 0.500000 -0.099492
v 0.196693 0.600000 -0.099492
v 0.296693 0.500000 -0.099492
v 0.296693 0.600000 -0.099492
v -0.203307 0.300000 -0.199492
v -0.203307 0.500000 -0.199492
v -0.103307 0.300000 -0.199492
v -0.103307 0.500000 -0.199492
v -0.103307 0.600000 -0.199492
v -0.003307 0.500000 -0.199492
v -0.003307 0.600000 -0.199492
v 0.096693 0.500000 -0.199492
v 0.096693 0.600000 -0.199492
v 0.196693 0.500000 -0.199492
v 0.196693 0.600000 -0.199492
v 0.196693 0.300000 -0.199492
v 0.196693 0.400000 -0.199492
v 0.296693 0.300000 -0.199492
v 0.296693 0.400000 -0.199492
v 0.296693 0.500000 -0.199492
v -0.103307 0.300000 -0.299492
v -0.103307 0.500000 -0.299492
v -0.003307 0.300000 -0.299492
v -0.003307 0.400000 -0.299492
v -0.003307 0.500000 -0.299492
v 0.096693 0.300000 -0.299492
v -0.003307 0.600000 -0.299492
v 0.096693 0.400000 -0.299492
v 0.096693 0.500000 -0.299492
v 0.096693 0.600000 -0.299492
v 0.196693 0.300000 -0.299492
v 0.196693 0.500000 -0.299492
v -0.003307 0.000000 -0.099492
v 0.096693 0.000000 0.000508
v -0.003307 0.000000 0.000508
v 0.096693 0.000000 -0.099492
v -0.103307 0.300000 0.100508
v -0.003307 0.300000 0.200508
v -0.103307 0.300000 0.200508
v -0.003307 0.300000 0.100508
v 0.096693 0.300000 0.200508
v 0.096693 0.300000 0.100508
v 0.196693 0.300000 0.200508
v 0.196693 0.300000 0.100508
v -0.003307 0.300000 0.000508
v 0.296693 0.300000 0.100508
v -0.203307 0.300000 0.100508
v 0.096693 0.300000 0.000508
v -0.003307 0.300000 -0.099492
v 0.096693 0.300000 -0.099492
v 0.196693 0.300000 -0.099492
v 0.296693 0.300000 -0.099492
v -0.203307 0.300000 -0.199492
v -0.103307 0.300000 -0.199492
v -0.003307 0.300000 -0.199492
v 0.096693 0.300000 -0.199492
v 0.196693 0.300000 -0.199492
v 0.296693 0.300000 -0.199492
v -0.103307 0.300000 -0.299492
v -0.003307 0.300000 -0.299492
v 0.096693 0.300000 -0.299492
v 0.196693 0.300000 -0.299492
v -0.103307 0.500000 0.200508
v -0.003307 0.500000 0.200508
v -0.103307 0.500000 0.100508
v -0.003307 0.500000 0.100508
v 0.096693 0.500000 0.200508
v 0.196693 0.500000 0.200508
v 0.096693 0.500000 0.100508
v 0.196693 0.500000 0.100508
v -0.203307 0.500000 0.100508
v -0.203307 0.500000 0.000508
v -0.103307 0.500000 0.000508
v 0.296693 0.500000 0.100508
v 0.196693 0.500000 0.000508
v 0.296693 0.500000 0.000508
v -0.203307 0.500000 -0.099492
v -0.103307 0.500000 -0.099492
v -0.203307 0.500000 -0.199492
v -0.103307 0.500000 -0.199492
v 0.196693 0.500000 -0.099492
v 0.296693 0.500000 -0.099492
v 0.196693 0.500000 -0.199492
v 0.296693 0.500000 -0.199492
v -0.003307 0.500000 -0.199492
v -0.103307 0.500000 -0.299492
v -0.003307 0.500000 -0.299492
v 0.096693 0.500000 -0.199492
v 0.096693 0.500000 -0.299492
v 0.196693 0.500000 -0.299492
v -0.003307 0.600000 0.200508
v 0.096693 0.600000 0.200508
v -0.003307 0.600000 0.100508
v 0.096693 0.600000 0.100508
v -0.103307 0.600000 0.100508
v -0.103307 0.600000 0.000508
v -0.003307 0.600000 0.000508
v 0.196693 0.600000 0.100508
v 0.096693 0.600000 0.000508
v 0.196693 0.600000 0.000508
v -0.203307 0.600000 0.000508
v -0.203307 0.600000 -0.099492
v -0.103307 0.600000 -0.099492
v 0.296693 0.600000 0.000508
v -0.003307 0.600000 -0.099492
v 0.096693 0.600000 -0.099492
v 0.196693 0.600000 -0.099492
v 0.296693 0.600000 -0.099492
v -0.103307 0.600000 -0.199492
v -0.003307 0.600000 -0.199492
v 0.096693 0.600000 -0.199492
v 0.196693 0.600000 -0.199492
v -0.003307 0.600000 -0.299492
v 0.096693 0.600000 -0.299492
vt 0.275391 0.500000
vt 0.275391 0.500000
vt 0.275391 0.500000
vt 0.275391 0.500000
vt 0.962891 0.500000
vt 0.962891 0.500000
vt 0.962891 0.500000
vt 0.275391 0.500000
vt 0.962891 0.500000
vt 0.275391 0.500000
vt 0.275391 0.500000
vt 0.275391 0.500000
vt 0.275391 0.500000
vt 0.275391 0.500000
vt 0.275391 0.500000
vt 0.275391 0.500000
vt 0.275391 0.500000
vt 0.275391 0.500000
vt 0.275391 0.500000
vt 0.275391 0.500000
vt 0.275391 0.500000
vt 0.275391 0.500000
vt 0.275391 0.500000
vt 0.275391 0.500000
vt 0.275391 0.500000
vt 0.275391 0.500000
vt 0.275391 0.500000
vt 0.275391 0.500000
vt 0.306641 0.500000
vt 0.306641 0.500000
vt 0.306641 0.500000
vt 0.306641 0.500000
vt 0.275391 0.500000
vt 0.275391 0.500000
vt 0.275391 0.500000
vt 0.275391 0.500000
vt 0.275391 0.500000
vt 0.275391 0.500000
vt 0.275391 0.500000
vt 0.275391 0.500000
vt 0.306641 0.500000
vt 0.306641 0.500000
vt 0.306641 0.500000
vt 0.306641 0.500000
vt 0.275391 0.500000
vt 0.275391 0.500000
vt 0.275391 0.500000
vt 0.275391 0.500000
vt 0.275391 0.500000
vt 0.275391 0.500000
vt 0.275391 0.500000
vt 0.275391 0.500000
vt 0.275391 0.500000
vt 0.275391 0.500000
vt 0.275391 0.500000
vt 0.275391 0.500000
vt 0.275391 0.500000
vt 0.275391 0.500000
vt 0.275391 0.500000
vt 0.275391 0.500000
vt 0.275391 0.500000
vt 0.962891 0.500000
vt 0.962891 0.500000
vt 0.962891 0.500000
vt 0.962891 0.500000
vt 0.275391 0.500000
vt 0.275391 0.500000
vt 0.275391 0.500000
vt 0.275391 0.500000
vt 0.275391 0.500000
vt 0.275391 0.500000
vt 0.962891 0.500000
vt 0.962891 0.500000
vt 0.962891 0.500000
vt 0.962891 0.500000
vt 0.275391 0.500000
vt 0.275391 0.500000
vt 0.275391 0.500000
vt 0.275391 0.500000
vt 0.275391 0.500000
vt 0.275391 0.500000
vt 0.275391 0.500000
vt 0.275391 0.500000
vt 0.275391 0.500000
vt 0.275391 0.500000
vt 0.275391 0.500000
vt 0.275391 0.500000
vt 0.962891 0.500000
vt 0.962891 0.500000
vt 0.962891 0.500000
vt 0.275391 0.500000
vt 0.275391 0.500000
vt 0.962891 0.500000
vt 0.275391 0.500000
vt 0.275391 0.500000
vt 0.275391 0.500000
vt 0.275391 0.500000
vt 0.275391 0.500000
vt 0.275391 0.500000
vt 0.275391 0.500000
vt 0.275391 0.500000
vt 0.962891 0.500000
vt 0.962891 0.500000
vt 0.962891 0.500000
vt 0.275391 0.500000
vt 0.962891 0.500000
vt 0.275391 0.500000
vt 0.275391 0.500000
vt 0.275391 0.500000
vt 0.275391 0.500000
vt 0.962891 0.500000
vt 0.962891 0.500000
vt 0.962891 0.500000
vt 0.962891 0.500000
vt 0.275391 0.500000
vt 0.275391 0.500000
vt 0.275391 0.500000
vt 0.275391 0.500000
vt 0.275391 0.500000
vt 0.275391 0.500000
vt 0.275391 0.500000
vt 0.275391 0.500000
vt 0.306641 0.500000
vt 0.306641 0.500000
vt 0.306641 0.500000
vt 0.306641 0.500000
vt 0.275391 0.500000
vt 0.275391 0.500000
vt 0.275391 0.500000
vt 0.275391 0.500000
vt 0.275391 0.500000
vt 0.275391 0.500000
vt 0.275391 0.500000
vt 0.275391 0.500000
vt 0.306641 0.500000
vt 0.306641 0.500000
vt 0.306641 0.500000
vt 0.306641 0.500000
vt 0.275391 0.500000
vt 0.275391 0.500000
vt 0.275391 0.500000
vt 0.275391 0.500000
vt 0.275391 0.500000
vt 0.275391 0.500000
vt 0.275391 0.500000
vt 0.275391 0.500000
vt 0.275391 0.500000
vt 0.275391 0.500000
vt 0.275391 0.500000
vt 0.275391 0.500000
vt 0.275391 0.500000
vt 0.275391 0.500000
vt 0.275391 0.500000
vt 0.962891 0.500000
vt 0.962891 0.500000
vt 0.962891 0.500000
vt 0.275391 0.500000
vt 0.275391 0.500000
vt 0.962891 0.500000
vt 0.275391 0.500000
vt 0.275391 0.500000
vt 0.275391 0.500000
vt 0.275391 0.500000
vt 0.275391 0.500000
vt 0.275391 0.500000
vt 0.962891 0.500000
vt 0.962891 0.500000
vt 0.962891 0.500000
vt 0.275391 0.500000
vt 0.275391 0.500000
vt 0.962891 0.500000
vt 0.275391 0.500000
vt 0.275391 0.500000
vt 0.275391 0.500000
vt 0.275391 0.500000
vt 0.275391 0.500000
vt 0.306641 0.500000
vt 0.306641 0.500000
vt 0.306641 0.500000
vt 0.306641 0.500000
vt 0.275391 0.500000
vt 0.275391 0.500000
vt 0.275391 0.500000
vt 0.962891 0.500000
vt 0.962891 0.500000
vt 0.962891 0.500000
vt 0.275391 0.500000
vt 0.275391 0.500000
vt 0.275391 0.500000
vt 0.275391 0.500000
vt 0.962891 0.500000
vt 0.275391 0.500000
vt 0.275391 0.500000
vt 0.275391 0.500000
vt 0.275391 0.500000
vt 0.275391 0.500000
vt 0.275391 0.500000
vt 0.275391 0.500000
vt 0.275391 0.500000
vt 0.275391 0.500000
vt 0.275391 0.500000
vt 0.275391 0.500000
vt 0.275391 0.500000
vt 0.275391 0.500000
vt 0.962891 0.500000
vt 0.962891 0.500000
vt 0.962891 0.500000
vt 0.275391 0.500000
vt 0.962891 0.500000
vt 0.275391 0.500000
vt 0.962891 0.500000
vt 0.962891 0.500000
vt 0.962891 0.500000
vt 0.275391 0.500000
vt 0.275391 0.500000
vt 0.962891 0.500000
vt 0.275391 0.500000
vt 0.275391 0.500000
vt 0.275391 0.500000
vt 0.275391 0.500000
vt 0.275391 0.500000
vt 0.275391 0.500000
vt 0.275391 0.500000
vt 0.275391 0.500000
vt 0.275391 0.500000
vt 0.962891 0.500000
vt 0.962891 0.500000
vt 0.962891 0.500000
vt 0.962891 0.500000
vt 0.275391 0.500000
vt 0.275391 0.500000
vt 0.275391 0.500000
vt 0.275391 0.500000
vt 0.275391 0.500000
vt 0.275391 0.500000
vt 0.275391 0.500000
vt 0.275391 0.500000
vt 0.275391 0.500000
vt 0.275391 0.500000
vt 0.275391 0.500000
vt 0.275391 0.500000
vt 0.275391 0.500000
vt 0.275391 0.500000
vt 0.275391 0.500000
vt 0.275391 0.500000
vt 0.275391 0.500000
vt 0.275391 0.500000
vt 0.275391 0.500000
vt 0.275391 0.500000
vt 0.275391 0.500000
vt 0.275391 0.500000
vt 0.275391 0.500000
vt 0.275391 0.500000
vt 0.962891 0.500000
vt 0.962891 0.500000
vt 0.962891 0.500000
vt 0.275391 0.500000
vt 0.962891 0.500000
vt 0.275391 0.500000
vt 0.275391 0.500000
vt 0.962891 0.500000
vt 0.962891 0.500000
vt 0.962891 0.500000
vt 0.275391 0.500000
vt 0.275391 0.500000
vt 0.275391 0.500000
vt 0.275391 0.500000
vt 0.962891 0.500000
vt 0.275391 0.500000
vt 0.275391 0.500000
vt 0.275391 0.500000
vt 0.275391 0.500000
vt 0.962891 0.500000
vt 0.962891 0.500000
vt 0.275391 0.500000
vt 0.275391 0.500000
vt 0.962891 0.500000
vt 0.275391 0.500000
vt 0.275391 0.500000
vt 0.275391 0.500000
vn -1.0000 0.0000 0.0000
vn 1.0000 0.0000 0.0000
vn 0.0000 -0.0000 1.0000
vn 0.0000 0.0000 -1.0000
vn 0.0000 -1.0000 -0.0000
vn 0.0000 1.0000 0.0000
usemtl palette
s 1
f 1/1/1 2/2/1 3/3/1
f 4/4/1 2/2/1 1/1/1
f 5/5/1 4/6/1 1/7/1
f 6/8/1 2/2/1 4/4/1
f 6/9/1 4/6/1 5/5/1
f 7/10/1 2/2/1 6/8/1
f 8/11/1 2/2/1 7/10/1
f 9/12/1 7/10/1 6/8/1
f 10/13/1 7/10/1 9/12/1
f 11/14/1 12/15/1 13/16/1
f 14/17/1 11/14/1 13/16/1
f 15/18/1 11/14/1 14/17/1
f 16/19/1 17/20/1 18/21/1
f 19/22/1 17/20/1 16/19/1
f 20/23/1 21/24/1 15/18/1
f 22/25/1 21/24/1 20/23/1
f 23/26/1 16/19/1 24/27/1
f 25/28/1 16/19/1 23/26/1
f 26/29/1 27/30/1 28/31/1
f 29/32/1 27/30/1 26/29/1
f 30/33/1 31/34/1 32/35/1
f 33/36/1 31/34/1 30/33/1
f 34/37/1 35/38/1 36/39/1
f 37/40/1 35/38/1 34/37/1
f 38/41/2 39/42/2 40/43/2
f 40/43/2 39/42/2 41/44/2
f 42/45/2 43/46/2 44/47/2
f 44/47/2 43/46/2 45/48/2
f 46/49/2 47/50/2 48/51/2
f 48/51/2 47/50/2 49/52/2
f 50/53/2 51/54/2 52/55/2
f 53/56/2 54/57/2 55/58/2
f 55/58/2 54/57/2 56/59/2
f 52/55/2 51/54/2 57/60/2
f 57/60/2 51/54/2 58/61/2
f 56/62/2 59/63/2 60/64/2
f 60/64/2 59/63/2 61/65/2
f 62/66/2 57/60/2 63/67/2
f 63/67/2 57/60/2 64/68/2
f 65/69/2 66/70/2 67/71/2
f 66/72/2 68/73/2 67/74/2
f 67/74/2 68/73/2 69/75/2
f 65/69/2 67/71/2 70/76/2
f 67/71/2 69/77/2 70/76/2
f 70/76/2 69/77/2 71/78/2
f 71/78/2 69/77/2 72/79/2
f 72/79/2 69/77/2 73/80/2
f 71/78/2 72/79/2 74/81/2
f 74/81/2 72/79/2 75/82/2
f 76/83/3 77/84/3 78/85/3
f 79/86/3 77/84/3 76/83/3
f 80/87/3 77/84/3 79/86/3
f 81/88/3 79/89/3 76/90/3
f 82/91/3 83/92/3 80/87/3
f 82/93/3 79/89/3 81/88/3
f 82/91/3 80/87/3 79/86/3
f 84/94/3 83/92/3 82/91/3
f 85/95/3 83/92/3 84/94/3
f 86/96/3 82/91/3 81/97/3
f 86/96/3 84/94/3 82/91/3
f 87/98/3 84/94/3 86/96/3
f 88/99/3 89/100/3 90/101/3
f 91/102/3 92/103/3 89/104/3
f 91/105/3 89/100/3 88/99/3
f 93/106/3 92/103/3 91/102/3
f 94/107/3 95/108/3 93/109/3
f 96/110/3 95/108/3 94/107/3
f 97/111/3 98/112/3 99/113/3
f 100/114/3 98/112/3 97/111/3
f 101/115/3 97/116/3 102/117/3
f 103/118/3 97/116/3 101/115/3
f 104/119/3 105/120/3 106/121/3
f 107/122/3 105/120/3 104/119/3
f 108/123/3 109/124/3 110/125/3
f 111/126/3 109/124/3 108/123/3
f 112/127/3 113/128/3 114/129/3
f 115/130/3 113/128/3 112/127/3
f 116/131/4 117/132/4 118/133/4
f 118/133/4 117/132/4 119/134/4
f 120/135/4 121/136/4 122/137/4
f 122/137/4 121/136/4 123/138/4
f 124/139/4 125/140/4 126/141/4
f 126/141/4 125/140/4 127/142/4
f 128/143/4 129/144/4 130/145/4
f 130/145/4 129/144/4 131/146/4
f 131/146/4 132/147/4 133/148/4
f 133/148/4 132/147/4 134/149/4
f 135/150/4 136/151/4 137/152/4
f 137/152/4 136/151/4 138/153/4
f 139/154/4 140/155/4 141/156/4
f 140/157/4 137/152/4 142/158/4
f 141/156/4 140/155/4 142/159/4
f 142/158/4 137/152/4 143/160/4
f 144/161/4 145/162/4 146/163/4
f 146/163/4 145/162/4 147/164/4
f 147/164/4 145/162/4 148/165/4
f 146/166/4 147/167/4 149/168/4
f 148/165/4 150/169/4 151/170/4
f 149/168/4 147/167/4 151/171/4
f 147/164/4 148/165/4 151/170/4
f 151/170/4 150/169/4 152/172/4
f 152/172/4 150/169/4 153/173/4
f 149/174/4 151/170/4 154/175/4
f 151/170/4 152/172/4 154/175/4
f 154/175/4 152/172/4 155/176/4
f 156/177/5 157/178/5 158/179/5
f 159/180/5 157/178/5 156/177/5
f 160/181/5 161/182/5 162/183/5
f 163/184/5 164/185/5 161/186/5
f 163/187/5 161/182/5 160/181/5
f 165/188/5 166/189/5 164/190/5
f 165/191/5 164/185/5 163/184/5
f 167/192/5 166/189/5 165/188/5
f 168/193/5 163/187/5 160/181/5
f 168/193/5 169/194/5 167/192/5
f 168/193/5 167/192/5 165/188/5
f 168/193/5 165/188/5 163/187/5
f 168/193/5 160/181/5 170/195/5
f 171/196/5 169/194/5 168/193/5
f 172/197/5 168/193/5 170/195/5
f 173/198/5 169/194/5 171/196/5
f 174/199/5 169/194/5 173/198/5
f 175/200/5 169/194/5 174/199/5
f 176/201/5 172/197/5 170/195/5
f 176/201/5 173/198/5 172/197/5
f 176/201/5 174/199/5 173/198/5
f 177/202/5 174/199/5 176/201/5
f 178/203/5 174/199/5 177/202/5
f 179/204/5 174/199/5 178/203/5
f 180/205/5 175/206/5 174/207/5
f 180/208/5 174/199/5 179/204/5
f 181/209/5 175/206/5 180/205/5
f 182/210/5 178/203/5 177/202/5
f 183/211/5 179/212/5 178/213/5
f 183/214/5 178/203/5 182/210/5
f 184/215/5 180/208/5 179/204/5
f 184/216/5 179/212/5 183/211/5
f 185/217/5 180/208/5 184/215/5
f 186/218/6 187/219/6 188/220/6
f 188/220/6 187/219/6 189/221/6
f 190/222/6 191/223/6 192/224/6
f 192/224/6 191/223/6 193/225/6
f 194/226/6 188/227/6 195/228/6
f 195/228/6 188/227/6 196/229/6
f 193/225/6 197/230/6 198/231/6
f 198/231/6 197/230/6 199/232/6
f 200/233/6 201/234/6 202/235/6
f 202/235/6 201/234/6 203/236/6
f 204/237/6 205/238/6 206/239/6
f 206/239/6 205/238/6 207/240/6
f 203/236/6 208/241/6 209/242/6
f 209/242/6 208/241/6 210/243/6
f 211/244/6 206/239/6 212/245/6
f 212/245/6 206/239/6 213/246/6
f 214/247/6 215/248/6 216/249/6
f 216/249/6 215/248/6 217/250/6
f 218/251/6 216/249/6 219/252/6
f 216/249/6 217/250/6 219/252/6
f 219/252/6 217/250/6 220/253/6
f 217/254/6 221/255/6 222/256/6
f 220/253/6 217/250/6 222/257/6
f 222/256/6 221/255/6 223/258/6
f 224/259/6 219/252/6 225/260/6
f 219/261/6 220/262/6 226/263/6
f 225/260/6 219/252/6 226/264/6
f 223/265/6 227/266/6 228/267/6
f 226/263/6 220/262/6 228/268/6
f 220/253/6 222/257/6 228/267/6
f 222/257/6 223/265/6 228/267/6
f 228/267/6 227/266/6 229/269/6
f 229/269/6 227/266/6 230/270/6
f 230/270/6 227/266/6 231/271/6
f 226/264/6 228/267/6 232/272/6
f 228/268/6 229/273/6 233/274/6
f 232/272/6 228/267/6 233/275/6
f 229/269/6 230/270/6 234/276/6
f 233/274/6 229/273/6 234/277/6
f 234/276/6 230/270/6 235/278/6
f 233/275/6 234/276/6 236/279/6
f 236/279/6 234/276/6 237/280/6
