# Blender v3.1.2 OBJ File: ''
# www.blender.org
mtllib FloorRock4.mtl
o Circle.002
v -9.612353 0.000000 -16.745155
v -11.144446 0.000000 -16.932003
v -13.063961 0.000000 -16.262596
v -13.866676 0.000000 -14.882656
v -13.695713 0.000000 -12.703765
v -12.989985 0.000000 -10.786980
v -12.301888 0.000000 -9.818153
v -11.214730 0.000000 -9.181234
v -9.873292 0.000000 -8.975624
v -8.435955 0.000000 -9.238020
v -7.094839 0.000000 -10.115088
v -6.234743 0.000000 -11.550312
v -6.074450 0.000000 -12.928091
v -6.348314 0.000000 -14.229714
v -7.025429 0.000000 -15.293424
v -8.007588 0.000000 -15.973743
v -9.612353 -1.000000 -16.745155
v -11.144446 -1.000000 -16.932003
v -13.063961 -1.000000 -16.262596
v -13.866676 -1.000000 -14.882656
v -13.695713 -1.000000 -12.703765
v -12.989985 -1.000000 -10.786980
v -12.301888 -1.000000 -9.818153
v -11.214730 -1.000000 -9.181234
v -9.873292 -1.000000 -8.975624
v -8.435955 -1.000000 -9.238020
v -7.094839 -1.000000 -10.115088
v -6.234743 -1.000000 -11.550312
v -6.074450 -1.000000 -12.928091
v -6.348314 -1.000000 -14.229714
v -7.025429 -1.000000 -15.293424
v -8.007588 -1.000000 -15.973743
vt 0.000000 0.000000
vt 0.000000 0.000000
vt 0.000000 0.000000
vt 0.000000 0.000000
vt 0.000000 0.000000
vt 0.000000 0.000000
vt 0.000000 0.000000
vt 0.000000 0.000000
vt 0.000000 0.000000
vt 0.000000 0.000000
vt 0.000000 0.000000
vt 0.000000 0.000000
vt 0.000000 0.000000
vt 0.000000 0.000000
vt 0.000000 0.000000
vt 0.000000 0.000000
vt 0.000000 0.000000
vt 0.000000 0.000000
vt 0.000000 0.000000
vt 0.000000 0.000000
vt 0.000000 0.000000
vt 0.000000 0.000000
vt 0.000000 0.000000
vt 0.000000 0.000000
vt 0.000000 0.000000
vt 0.000000 0.000000
vt 0.000000 0.000000
vt 0.000000 0.000000
vt 0.000000 0.000000
vt 0.000000 0.000000
vt 0.000000 0.000000
vt 0.000000 0.000000
vn 0.0000 1.0000 0.0000
vn -0.0000 -1.0000 0.0000
vn 0.1211 0.0000 -0.9926
vn -0.3293 0.0000 -0.9442
vn -0.8644 0.0000 -0.5028
vn -0.9969 0.0000 0.0782
vn -0.9384 0.0000 0.3455
vn -0.8153 0.0000 0.5791
vn -0.5055 0.0000 0.8628
vn -0.1515 0.0000 0.9885
vn 0.1796 0.0000 0.9837
vn 0.5473 0.0000 0.8369
vn 0.8578 0.0000 0.5140
vn 0.9933 0.0000 0.1156
vn 0.9786 0.0000 -0.2059
vn 0.8436 0.0000 -0.5370
vn 0.5694 0.0000 -0.8220
vn 0.4332 0.0000 -0.9013
usemtl None
s off
f 2/1/1 3/2/1 4/3/1 5/4/1 6/5/1 7/6/1 8/7/1 9/8/1 10/9/1 11/10/1 12/11/1 13/12/1 14/13/1 15/14/1 16/15/1 1/16/1
f 18/17/2 17/18/2 32/19/2 31/20/2 30/21/2 29/22/2 28/23/2 27/24/2 26/25/2 25/26/2 24/27/2 23/28/2 22/29/2 21/30/2 20/31/2 19/32/2
f 2/1/3 1/16/3 17/18/3 18/17/3
f 3/2/4 2/1/4 18/17/4 19/32/4
f 4/3/5 3/2/5 19/32/5 20/31/5
f 5/4/6 4/3/6 20/31/6 21/30/6
f 6/5/7 5/4/7 21/30/7 22/29/7
f 7/6/8 6/5/8 22/29/8 23/28/8
f 8/7/9 7/6/9 23/28/9 24/27/9
f 9/8/10 8/7/10 24/27/10 25/26/10
f 10/9/11 9/8/11 25/26/11 26/25/11
f 11/10/12 10/9/12 26/25/12 27/24/12
f 12/11/13 11/10/13 27/24/13 28/23/13
f 13/12/14 12/11/14 28/23/14 29/22/14
f 14/13/15 13/12/15 29/22/15 30/21/15
f 15/14/16 14/13/16 30/21/16 31/20/16
f 16/15/17 15/14/17 31/20/17 32/19/17
f 1/16/18 16/15/18 32/19/18 17/18/18
