# Blender v3.1.2 OBJ File: ''
# www.blender.org
mtllib FloorRock2.mtl
o Circle.001
v 10.504459 0.000000 -15.670751
v 9.318596 0.000000 -15.414526
v 8.408302 0.000000 -14.793093
v 7.685762 0.000000 -13.754997
v 7.038931 0.000000 -12.292939
v 7.283214 0.000000 -11.154840
v 7.917611 0.000000 -10.171619
v 9.161077 0.000000 -9.234941
v 10.313869 0.000000 -8.707853
v 11.575813 0.000000 -8.860287
v 12.584907 0.000000 -9.486722
v 13.199402 0.000000 -10.483873
v 13.313869 0.000000 -11.707854
v 12.965058 0.000000 -13.094964
v 12.467745 0.000000 -14.675624
v 11.614697 0.000000 -15.414526
v 10.504459 -1.000000 -15.670751
v 9.318596 -1.000000 -15.414526
v 8.408302 -1.000000 -14.793093
v 7.685762 -1.000000 -13.754997
v 7.038931 -1.000000 -12.292939
v 7.283214 -1.000000 -11.154840
v 7.917611 -1.000000 -10.171619
v 9.161077 -1.000000 -9.234941
v 10.313869 -1.000000 -8.707853
v 11.575813 -1.000000 -8.860287
v 12.584907 -1.000000 -9.486722
v 13.199402 -1.000000 -10.483873
v 13.313869 -1.000000 -11.707854
v 12.965058 -1.000000 -13.094964
v 12.467745 -1.000000 -14.675624
v 11.614697 -1.000000 -15.414526
vt 0.000000 0.000000
vt 0.000000 0.000000
vt 0.000000 0.000000
vt 0.000000 0.000000
vt 0.000000 0.000000
vt 0.000000 0.000000
vt 0.000000 0.000000
vt 0.000000 0.000000
vt 0.000000 0.000000
vt 0.000000 0.000000
vt 0.000000 0.000000
vt 0.000000 0.000000
vt 0.000000 0.000000
vt 0.000000 0.000000
vt 0.000000 0.000000
vt 0.000000 0.000000
vt 0.000000 0.000000
vt 0.000000 0.000000
vt 0.000000 0.000000
vt 0.000000 0.000000
vt 0.000000 0.000000
vt 0.000000 0.000000
vt 0.000000 0.000000
vt 0.000000 0.000000
vt 0.000000 0.000000
vt 0.000000 0.000000
vt 0.000000 0.000000
vt 0.000000 0.000000
vt 0.000000 0.000000
vt 0.000000 0.000000
vt 0.000000 0.000000
vt 0.000000 0.000000
vn 0.0000 1.0000 0.0000
vn 0.0000 -1.0000 0.0000
vn -0.2112 0.0000 -0.9774
vn -0.5638 0.0000 -0.8259
vn -0.8208 0.0000 -0.5713
vn -0.9145 0.0000 -0.4046
vn -0.9777 0.0000 0.2099
vn -0.8403 0.0000 0.5422
vn -0.6017 0.0000 0.7987
vn -0.4158 0.0000 0.9094
vn 0.1199 0.0000 0.9928
vn 0.5274 0.0000 0.8496
vn 0.8513 0.0000 0.5246
vn 0.9957 0.0000 0.0931
vn 0.9698 0.0000 -0.2439
vn 0.9539 0.0000 -0.3001
vn 0.6547 0.0000 -0.7559
vn 0.2249 0.0000 -0.9744
usemtl None
s off
f 2/1/1 3/2/1 4/3/1 5/4/1 6/5/1 7/6/1 8/7/1 9/8/1 10/9/1 11/10/1 12/11/1 13/12/1 14/13/1 15/14/1 16/15/1 1/16/1
f 18/17/2 17/18/2 32/19/2 31/20/2 30/21/2 29/22/2 28/23/2 27/24/2 26/25/2 25/26/2 24/27/2 23/28/2 22/29/2 21/30/2 20/31/2 19/32/2
f 2/1/3 1/16/3 17/18/3 18/17/3
f 3/2/4 2/1/4 18/17/4 19/32/4
f 4/3/5 3/2/5 19/32/5 20/31/5
f 5/4/6 4/3/6 20/31/6 21/30/6
f 6/5/7 5/4/7 21/30/7 22/29/7
f 7/6/8 6/5/8 22/29/8 23/28/8
f 8/7/9 7/6/9 23/28/9 24/27/9
f 9/8/10 8/7/10 24/27/10 25/26/10
f 10/9/11 9/8/11 25/26/11 26/25/11
f 11/10/12 10/9/12 26/25/12 27/24/12
f 12/11/13 11/10/13 27/24/13 28/23/13
f 13/12/14 12/11/14 28/23/14 29/22/14
f 14/13/15 13/12/15 29/22/15 30/21/15
f 15/14/16 14/13/16 30/21/16 31/20/16
f 16/15/17 15/14/17 31/20/17 32/19/17
f 1/16/18 16/15/18 32/19/18 17/18/18
