# Blender v3.1.2 OBJ File: ''
# www.blender.org
mtllib FloorRock3.mtl
o Circle
v 2.341947 0.000000 -18.926590
v 0.651459 0.000000 -18.306305
v -0.990012 0.000000 -16.902618
v -1.802088 0.000000 -14.570455
v -1.970481 0.000000 -12.547364
v -1.586311 0.000000 -11.277460
v -0.968216 0.000000 -10.295300
v -0.092085 0.000000 -9.618185
v 0.891017 0.000000 -9.344321
v 2.161994 0.000000 -10.098176
v 3.743110 0.000000 -12.087750
v 5.014543 0.000000 -13.869322
v 5.658120 0.000000 -15.557721
v 5.674281 0.000000 -17.023987
v 5.105078 0.000000 -18.102816
v 4.050693 0.000000 -18.647573
v 2.341947 -1.000000 -18.926590
v 0.651459 -1.000000 -18.306305
v -0.990012 -1.000000 -16.902618
v -1.802088 -1.000000 -14.570455
v -1.970481 -1.000000 -12.547364
v -1.586311 -1.000000 -11.277460
v -0.968216 -1.000000 -10.295300
v -0.092085 -1.000000 -9.618185
v 0.891017 -1.000000 -9.344321
v 2.161994 -1.000000 -10.098176
v 3.743110 -1.000000 -12.087750
v 5.014543 -1.000000 -13.869322
v 5.658120 -1.000000 -15.557721
v 5.674281 -1.000000 -17.023987
v 5.105078 -1.000000 -18.102816
v 4.050693 -1.000000 -18.647573
vt 0.000000 0.000000
vt 0.000000 0.000000
vt 0.000000 0.000000
vt 0.000000 0.000000
vt 0.000000 0.000000
vt 0.000000 0.000000
vt 0.000000 0.000000
vt 0.000000 0.000000
vt 0.000000 0.000000
vt 0.000000 0.000000
vt 0.000000 0.000000
vt 0.000000 0.000000
vt 0.000000 0.000000
vt 0.000000 0.000000
vt 0.000000 0.000000
vt 0.000000 0.000000
vt 0.000000 0.000000
vt 0.000000 0.000000
vt 0.000000 0.000000
vt 0.000000 0.000000
vt 0.000000 0.000000
vt 0.000000 0.000000
vt 0.000000 0.000000
vt 0.000000 0.000000
vt 0.000000 0.000000
vt 0.000000 0.000000
vt 0.000000 0.000000
vt 0.000000 0.000000
vt 0.000000 0.000000
vt 0.000000 0.000000
vt 0.000000 0.000000
vt 0.000000 0.000000
vn 0.0000 1.0000 0.0000
vn -0.0000 -1.0000 0.0000
vn -0.3445 0.0000 -0.9388
vn -0.6499 0.0000 -0.7600
vn -0.9444 0.0000 -0.3288
vn -0.9966 0.0000 -0.0829
vn -0.9572 0.0000 0.2896
vn -0.8464 0.0000 0.5326
vn -0.6115 0.0000 0.7912
vn -0.2684 0.0000 0.9633
vn 0.5101 0.0000 0.8601
vn 0.7829 0.0000 0.6222
vn 0.8140 0.0000 0.5809
vn 0.9344 0.0000 0.3562
vn 0.9999 0.0000 0.0110
vn 0.8844 0.0000 -0.4666
vn 0.4590 0.0000 -0.8884
vn 0.1612 0.0000 -0.9869
usemtl None
s off
f 2/1/1 3/2/1 4/3/1 5/4/1 6/5/1 7/6/1 8/7/1 9/8/1 10/9/1 11/10/1 12/11/1 13/12/1 14/13/1 15/14/1 16/15/1 1/16/1
f 18/17/2 17/18/2 32/19/2 31/20/2 30/21/2 29/22/2 28/23/2 27/24/2 26/25/2 25/26/2 24/27/2 23/28/2 22/29/2 21/30/2 20/31/2 19/32/2
f 2/1/3 1/16/3 17/18/3 18/17/3
f 3/2/4 2/1/4 18/17/4 19/32/4
f 4/3/5 3/2/5 19/32/5 20/31/5
f 5/4/6 4/3/6 20/31/6 21/30/6
f 6/5/7 5/4/7 21/30/7 22/29/7
f 7/6/8 6/5/8 22/29/8 23/28/8
f 8/7/9 7/6/9 23/28/9 24/27/9
f 9/8/10 8/7/10 24/27/10 25/26/10
f 10/9/11 9/8/11 25/26/11 26/25/11
f 11/10/12 10/9/12 26/25/12 27/24/12
f 12/11/13 11/10/13 27/24/13 28/23/13
f 13/12/14 12/11/14 28/23/14 29/22/14
f 14/13/15 13/12/15 29/22/15 30/21/15
f 15/14/16 14/13/16 30/21/16 31/20/16
f 16/15/17 15/14/17 31/20/17 32/19/17
f 1/16/18 16/15/18 32/19/18 17/18/18
