# Blender v3.1.2 OBJ File: 'NewOres.blend'
# www.blender.org
mtllib Rock2 - Copy.mtl
o Rock2_Cube.005
v 0.900000 4.599684 -1.000000
v -1.091787 -0.001613 1.083562
v -1.091787 0.061508 1.183563
v 0.900000 4.662804 -0.900000
v 1.000000 4.599684 -0.900000
v -1.191787 0.061508 1.083562
v -1.091787 1.197676 1.183563
v 0.900000 3.904748 -1.000000
v -1.091787 1.260796 1.083562
v -1.191787 1.197676 1.083562
v -1.091787 -0.001613 -0.716437
v 1.000000 4.599684 0.900000
v 0.900000 4.662804 0.900000
v -1.191787 0.061508 -0.716437
v 0.900000 4.599684 1.000000
v -1.091787 0.061508 -0.816437
v -1.091787 1.260796 -0.716437
v -1.091787 1.197676 -0.816437
v -1.191787 1.197676 -0.716437
v 0.510437 -0.001613 1.083562
v -0.900000 4.599684 -1.000000
v 0.610437 0.061508 1.083562
v -1.000000 4.599684 -0.900000
v 0.510437 0.061508 1.183563
v -0.900000 4.662804 -0.900000
v -1.000000 3.904748 -0.900000
v -0.900000 3.904748 -1.000000
v 0.510437 -0.001613 -0.716437
v -1.000000 4.599684 0.900000
v -0.900000 4.599684 1.000000
v 0.510437 0.061508 -0.816437
v -0.900000 4.662804 0.900000
v 0.610437 0.061508 -0.716437
v 0.901691 4.049832 -0.998708
v 1.001691 4.049832 -0.898708
v 1.001691 4.049832 0.901292
v 0.901691 4.049832 1.001292
v 1.001691 0.176074 0.901292
v 0.901691 0.176074 1.001292
v 0.901691 0.112953 0.901292
v -0.998309 0.176074 -0.898708
v -0.898309 0.176074 -0.998708
v -0.898309 0.112953 -0.898708
v -0.781108 0.088027 -1.089265
v -0.881108 0.151147 -1.089265
v -0.781108 0.151147 -1.189265
v -0.781108 2.088027 -1.089265
v -0.781108 2.024906 -1.189265
v -0.881108 2.024906 -1.089265
v 1.018891 0.088027 0.178386
v 1.118891 0.151147 0.178386
v 1.018891 0.151147 0.278386
v 1.018891 0.088027 -1.089265
v 1.018891 0.151147 -1.189265
v 1.118891 0.151147 -1.089265
v 1.018891 2.088027 -1.089265
v 1.118891 2.024906 -1.089265
v 1.018891 2.024906 -1.189265
v -1.048725 4.202651 1.108774
v -1.048725 4.265771 1.008774
v -1.148725 4.202651 1.008774
v -1.048725 4.265771 0.262027
v -1.048725 4.202651 0.162027
v -1.148725 4.202651 0.262027
v 0.432386 4.265771 1.008774
v 0.432386 4.202651 1.108774
v 0.532386 4.202651 1.008774
v -0.685883 0.835615 1.243049
v -0.685883 0.898736 1.343049
v -0.785883 0.898736 1.243049
v -0.685883 2.772495 1.343049
v -0.685883 2.835615 1.243049
v -0.785883 2.772495 1.243049
v 1.114117 0.835615 1.243049
v 1.214117 0.898736 1.243049
v 1.114117 0.898736 1.343049
v 1.114117 2.835615 1.243049
v 1.114117 2.772495 1.343049
v 1.214117 2.772495 1.243049
v 1.214117 0.898736 -0.556950
v 1.114117 2.835615 -0.556950
v 1.214117 2.772495 -0.556950
v 1.114117 2.772495 -0.656950
v -1.143657 1.929801 1.120872
v -1.143657 1.992922 1.220872
v -1.243657 1.992922 1.120872
v -1.143657 3.547792 1.220872
v -1.143657 3.610912 1.120872
v -1.243657 3.547792 1.120872
v -1.143657 1.929801 -0.606015
v -1.243657 1.992922 -0.606015
v -1.143657 1.992922 -0.706015
v -1.143657 3.610912 -0.606015
v -1.143657 3.547792 -0.706015
v -1.243657 3.547792 -0.606015
v 0.337454 3.610912 1.120872
v 0.337454 3.547792 1.220872
v 0.437454 3.547792 1.120872
v -0.785883 1.197676 1.183563
v 0.510437 0.835615 1.183563
v -0.785883 0.898736 1.183563
v -0.685883 0.835615 1.183563
v 0.610437 0.088027 -0.716437
v 0.610437 0.835615 1.083562
v 0.610437 0.176074 1.001292
v 0.610437 0.112953 0.901292
v 0.610437 0.835615 1.001292
v 0.610437 0.088027 0.178386
v 0.610437 0.112953 0.217877
v -0.881108 2.024906 -0.998708
v -0.898309 3.903933 -0.998708
v 0.901292 4.049832 -0.998708
v -0.781108 2.088027 -0.998708
v -0.881108 0.176074 -0.998708
v 0.900000 3.903933 -0.998708
v 0.901292 3.904748 -0.998708
v 0.901691 2.088027 -0.998708
v -0.998309 1.260796 0.901292
v -0.998309 1.260796 -0.716437
v -0.898309 1.260796 1.001292
v -0.785883 1.260796 1.083562
v -0.785883 1.260796 1.001292
v -0.998309 0.176074 -0.816437
v -0.998309 1.197676 -0.816437
v -0.898309 0.112953 -0.816437
v -0.820599 0.112953 -0.816437
v 0.510437 0.088027 -0.816437
v -0.781108 0.088027 -0.816437
v -0.820599 0.112953 -0.898708
v 0.901691 0.112953 0.217877
v -0.998309 1.929801 0.901292
v -0.998309 3.610912 -0.606015
v -0.998309 3.610912 0.162027
v -0.998309 3.903681 0.162027
v -0.998309 1.992922 -0.706015
v -0.998309 1.929801 -0.606015
v -0.998309 3.903681 -0.898708
v -0.998309 3.547792 -0.706015
v 0.901691 0.835615 1.001292
v 0.901691 2.835615 1.001292
v 0.532386 4.049832 1.001292
v 0.532386 2.835615 1.001292
v -0.898309 1.929801 1.001292
v -0.785883 1.929801 1.001292
v 1.001691 2.088027 -0.898708
v 1.001691 2.772495 -0.656950
v 1.001691 2.088027 -0.656950
v 1.001691 2.835615 -0.556950
v 1.001691 0.835615 0.901292
v 1.001691 0.176074 0.278386
v 1.001691 2.835615 0.901292
v 1.001691 0.835615 0.278386
v 1.018891 0.835615 0.278386
v 0.962200 0.151147 0.278386
v 1.118891 2.024906 -0.652176
v 1.118891 0.898736 -0.652176
v 1.118891 0.838629 -0.556950
v 1.118891 0.838629 0.178386
v 1.018891 2.088027 -0.656950
v -0.881108 0.151147 -0.959217
v 0.432386 3.550991 1.108774
v 0.337454 3.610912 1.108774
v -1.048725 3.610912 1.108774
v 0.532386 4.202651 1.000000
v 0.532386 2.835615 1.008774
v 0.532386 4.050648 1.000000
v 1.114117 0.835615 0.183161
v -1.000000 4.265771 0.900000
v -1.000000 4.265771 0.262027
v -0.900000 4.265771 1.000000
v 0.432386 4.265771 1.000000
v -1.148725 3.607714 1.008774
v -1.148725 3.607714 0.262027
v -1.000000 3.904748 0.162027
v -1.048725 3.610912 0.162027
v -1.000000 4.202651 0.162027
v -0.785883 1.929801 1.120872
v -0.685883 2.835615 1.220872
v 0.337454 2.835615 1.220872
v 0.437454 2.835615 1.120872
v 0.437454 2.835615 1.103707
v -0.785883 1.992922 1.220872
v -0.785883 2.772495 1.220872
v 1.114117 2.027920 -0.656950
v 0.437454 3.547792 1.103707
v -1.143657 3.610912 1.013842
v -1.143657 3.610912 0.256960
v 1.000000 4.050084 -0.900000
v 1.000000 4.050900 -0.898708
v 0.901691 4.050084 -0.998309
v 0.998708 4.051715 0.901292
v 0.901691 4.051715 0.998309
v -0.900000 3.902865 -0.997017
v -0.997017 3.902865 -0.900000
v 0.900000 4.050648 1.000000
v 1.000000 4.050900 0.900000
vt 0.612500 0.986128
vt 0.387500 0.986128
vt 0.387500 0.763872
vt 0.540800 0.763872
vt 0.540800 0.929822
vt 0.553300 0.943694
vt 0.612500 0.943694
vt 0.540800 0.737500
vt 0.387500 0.737500
vt 0.387500 0.512500
vt 0.392752 0.512500
vt 0.392752 0.624353
vt 0.397688 0.629289
vt 0.397688 0.714716
vt 0.410188 0.727216
vt 0.540800 0.727216
vt 0.621055 0.487500
vt 0.498442 0.487500
vt 0.498442 0.277150
vt 0.494497 0.264650
vt 0.378945 0.264650
vt 0.378945 0.262500
vt 0.611936 0.262500
vt 0.611936 0.487289
vt 0.611987 0.487450
vt 0.621055 0.487450
vt 0.834289 0.727216
vt 0.848161 0.714716
vt 0.848161 0.512500
vt 0.861128 0.512500
vt 0.861128 0.737500
vt 0.818694 0.737500
vt 0.818694 0.727216
vt 0.387500 0.012500
vt 0.612500 0.012500
vt 0.612500 0.237500
vt 0.387500 0.237500
vt 0.387500 0.486128
vt 0.387500 0.263872
vt 0.612500 0.263872
vt 0.612500 0.276839
vt 0.410188 0.276839
vt 0.397688 0.290711
vt 0.397688 0.301490
vt 0.392752 0.306968
vt 0.392752 0.486128
vt 0.362500 0.737500
vt 0.326093 0.737500
vt 0.326093 0.652073
vt 0.362500 0.652073
vt 0.147214 0.522784
vt 0.137500 0.522784
vt 0.137500 0.512500
vt 0.147214 0.512500
vt 0.593622 0.200913
vt 0.593623 0.104908
vt 0.611921 0.104908
vt 0.611920 0.237500
vt 0.378945 0.237500
vt 0.378945 0.227216
vt 0.442795 0.227216
vt 0.446740 0.214716
vt 0.446740 0.012500
vt 0.488553 0.012500
vt 0.488553 0.200913
vt 0.492498 0.213413
vt 0.589677 0.213413
vt 0.621055 0.808663
vt 0.545166 0.808663
vt 0.545166 0.762500
vt 0.621055 0.762500
vt 0.378945 0.798907
vt 0.378945 0.762500
vt 0.420166 0.762500
vt 0.420166 0.798907
vt 0.488553 0.987500
vt 0.446740 0.987500
vt 0.446740 0.973447
vt 0.488553 0.973447
vt 0.498442 0.512500
vt 0.621055 0.512500
vt 0.621055 0.737500
vt 0.545166 0.737500
vt 0.545166 0.555220
vt 0.541221 0.542720
vt 0.498442 0.542720
vt 0.420166 0.737500
vt 0.378945 0.737500
vt 0.378945 0.659637
vt 0.420166 0.659637
vt 0.125000 0.737500
vt 0.138872 0.737500
vt 0.138872 0.750000
vt 0.612500 1.000000
vt 0.625000 0.986128
vt 0.375000 0.237500
vt 0.387500 0.250000
vt 0.375000 0.237500
vt 0.612500 0.250000
vt 0.625000 0.263872
vt 0.625000 0.263872
vt 0.361128 0.737500
vt 0.375000 0.737500
vt 0.361128 0.750000
vt 0.361128 0.500000
vt 0.375000 0.512500
vt 0.361128 0.512500
vt 0.621055 0.500000
vt 0.621071 0.487500
vt 0.621071 0.499789
vt 0.621122 0.499789
vt 0.621173 0.749627
vt 0.621055 0.750000
vt 0.621173 0.737500
vt 0.375000 0.762500
vt 0.375000 0.762500
vt 0.378945 0.750000
vt 0.378945 0.250000
vt 0.375000 0.237500
vt 0.375000 0.012500
vt 0.387500 0.000000
vt 0.612500 0.000000
vt 0.625000 0.012500
vt 0.625000 0.237500
vt 0.138872 0.512500
vt 0.138872 0.500000
vt 0.625000 0.276839
vt 0.625000 0.943694
vt 0.125000 0.512500
vt 0.125000 0.522784
vt 0.139650 0.504936
vt 0.137500 0.500000
vt 0.139650 0.500000
vt 0.446740 0.000000
vt 0.488553 0.000000
vt 0.611870 0.237823
vt 0.611870 0.262077
vt 0.621106 0.808663
vt 0.621173 0.762500
vt 0.621106 0.762711
vt 0.621333 0.512500
vt 0.621333 0.737338
vt 0.621545 0.737500
vt 0.362500 0.750000
vt 0.326093 0.750000
vt 0.372451 0.659637
vt 0.504127 0.092247
vt 0.504127 0.012500
vt 0.605783 0.012500
vt 0.605784 0.237500
vt 0.394216 0.237500
vt 0.394216 0.104747
vt 0.484910 0.104747
vt 0.438634 0.762500
vt 0.605783 0.762500
vt 0.605784 0.987500
vt 0.504127 0.987500
vt 0.504127 0.820952
vt 0.484910 0.808452
vt 0.438634 0.808452
vt 0.637500 0.512500
vt 0.862500 0.512500
vt 0.862500 0.737500
vt 0.637500 0.737500
vt 0.438463 0.512500
vt 0.605783 0.512500
vt 0.605784 0.737500
vt 0.438711 0.737500
vt 0.438711 0.512662
vt 0.605784 0.487500
vt 0.625000 0.487500
vt 0.605784 0.500000
vt 0.362662 0.500162
vt 0.362500 0.500162
vt 0.362500 0.500000
vt 0.625000 0.737500
vt 0.605784 0.750000
vt 0.605784 0.250000
vt 0.625000 0.237500
vt 0.625000 0.237500
vt 0.394216 0.250000
vt 0.393643 0.249627
vt 0.393643 0.237500
vt 0.605784 0.000000
vt 0.625000 0.012500
vt 0.125000 0.512500
vt 0.125373 0.512500
vt 0.125211 0.512661
vt 0.125211 0.645253
vt 0.125000 0.645253
vt 0.137500 0.500000
vt 0.137711 0.500161
vt 0.137500 0.500373
vt 0.394216 0.487500
vt 0.438463 0.487923
vt 0.438386 0.487823
vt 0.394216 0.487823
vt 0.504127 0.000000
vt 0.438959 0.762077
vt 0.438959 0.737823
vt 0.605783 0.262500
vt 0.394216 0.262500
vt 0.625000 0.762500
vt 0.625000 0.987500
vt 0.625000 0.262500
vt 0.137500 0.517034
vt 0.362500 0.517034
vt 0.362500 0.732966
vt 0.311443 0.732966
vt 0.311443 0.580541
vt 0.298943 0.563508
vt 0.137500 0.563508
vt 0.382890 0.769586
vt 0.382890 0.762500
vt 0.468448 0.762500
vt 0.468448 0.764650
vt 0.386006 0.764650
vt 0.468825 0.732966
vt 0.382890 0.732966
vt 0.382890 0.517034
vt 0.617110 0.517034
vt 0.617110 0.591488
vt 0.476339 0.591488
vt 0.468825 0.607709
vt 0.637500 0.590675
vt 0.637500 0.517034
vt 0.862500 0.517034
vt 0.862500 0.532459
vt 0.652150 0.532459
vt 0.639650 0.549494
vt 0.639650 0.590675
vt 0.617110 0.232966
vt 0.382890 0.232966
vt 0.382890 0.210814
vt 0.386006 0.217541
vt 0.617110 0.217540
vt 0.382890 0.262500
vt 0.617110 0.262500
vt 0.617110 0.487500
vt 0.382890 0.487500
vt 0.176357 0.721511
vt 0.193076 0.721511
vt 0.193076 0.737026
vt 0.139871 0.737026
vt 0.139871 0.512974
vt 0.161486 0.512974
vt 0.161486 0.708537
vt 0.509705 0.764871
vt 0.615613 0.764871
vt 0.615613 0.985129
vt 0.384387 0.985129
vt 0.384387 0.931924
vt 0.500318 0.931924
vt 0.509705 0.917053
vt 0.615613 0.737026
vt 0.509705 0.737026
vt 0.509705 0.734799
vt 0.615613 0.734799
vt 0.860129 0.723139
vt 0.860129 0.737026
vt 0.639871 0.737026
vt 0.639871 0.735456
vt 0.846011 0.735456
vt 0.838514 0.512974
vt 0.860129 0.512974
vt 0.860129 0.624939
vt 0.846011 0.612622
vt 0.838514 0.612622
vt 0.384387 0.012974
vt 0.615613 0.012974
vt 0.615613 0.237026
vt 0.384387 0.237026
vt 0.384387 0.264871
vt 0.615613 0.264871
vt 0.615613 0.286486
vt 0.384387 0.286486
vt 0.125000 0.517034
vt 0.137500 0.500000
vt 0.617110 0.250000
vt 0.625000 0.262500
vt 0.625000 0.262500
vt 0.362500 0.750000
vt 0.375000 0.732966
vt 0.362500 0.500000
vt 0.375000 0.517034
vt 0.617110 0.500000
vt 0.625000 0.517034
vt 0.625000 0.517034
vt 0.125000 0.737026
vt 0.139871 0.750000
vt 0.615613 1.000000
vt 0.625000 0.985129
vt 0.125000 0.512974
vt 0.139871 0.500000
vt 0.615613 0.250000
vt 0.625000 0.264871
vt 0.625000 0.264871
vt 0.625000 0.764871
vt 0.625000 0.764871
vt 0.615613 0.750000
vt 0.132564 0.563507
vt 0.132564 0.549494
vt 0.125000 0.539186
vt 0.625000 0.217541
vt 0.625000 0.232966
vt 0.625000 0.487500
vt 0.618083 0.590675
vt 0.468449 0.734376
vt 0.311443 0.739693
vt 0.355414 0.750000
vt 0.347850 0.739693
vt 0.384387 0.000000
vt 0.615613 0.000000
vt 0.625000 0.125061
vt 0.625000 0.237026
vt 0.625000 0.012974
vt 0.625000 0.026861
vt 0.624524 0.027518
vt 0.624524 0.124403
vt 0.161486 0.500000
vt 0.625000 0.286486
vt 0.616843 0.735456
vt 0.193076 0.750000
vt 0.518704 0.764871
vt 0.615613 0.764871
vt 0.615613 0.985129
vt 0.527615 0.985129
vt 0.527615 0.778989
vt 0.615613 0.723594
vt 0.412320 0.723594
vt 0.412320 0.721618
vt 0.592888 0.721618
vt 0.593009 0.721277
vt 0.615613 0.721277
vt 0.362500 0.737500
vt 0.137500 0.737500
vt 0.137500 0.730064
vt 0.287040 0.730064
vt 0.299540 0.717564
vt 0.299540 0.707280
vt 0.335947 0.707280
vt 0.348447 0.694780
vt 0.348447 0.616917
vt 0.350597 0.616917
vt 0.362500 0.605014
vt 0.860129 0.526406
vt 0.860129 0.723594
vt 0.639871 0.723594
vt 0.639871 0.721277
vt 0.838012 0.721277
vt 0.852883 0.694871
vt 0.852883 0.526406
vt 0.527139 0.026406
vt 0.615613 0.026406
vt 0.615613 0.223594
vt 0.527139 0.223594
vt 0.527615 0.272368
vt 0.527615 0.264871
vt 0.615613 0.264871
vt 0.615613 0.272117
vt 0.571312 0.272117
vt 0.571153 0.272368
vt 0.382890 0.762500
vt 0.617110 0.762500
vt 0.617110 0.987500
vt 0.382890 0.987500
vt 0.382890 0.512500
vt 0.617110 0.512500
vt 0.617110 0.737500
vt 0.382890 0.737500
vt 0.862500 0.734728
vt 0.862500 0.737500
vt 0.637500 0.737500
vt 0.637500 0.512500
vt 0.651553 0.512500
vt 0.651553 0.694780
vt 0.664053 0.707280
vt 0.710216 0.707280
vt 0.710216 0.708215
vt 0.722083 0.720082
vt 0.722083 0.722228
vt 0.734583 0.734728
vt 0.382890 0.012500
vt 0.617110 0.012500
vt 0.617110 0.015272
vt 0.519663 0.015272
vt 0.511773 0.027772
vt 0.511773 0.042720
vt 0.428148 0.042720
vt 0.428148 0.032436
vt 0.420258 0.019936
vt 0.382890 0.019936
vt 0.617110 0.487500
vt 0.524038 0.487500
vt 0.531551 0.475597
vt 0.531551 0.473447
vt 0.617110 0.473447
vt 0.615613 1.000000
vt 0.625000 0.985129
vt 0.615613 0.250000
vt 0.625000 0.264871
vt 0.625000 0.264871
vt 0.625000 0.764871
vt 0.625000 0.764871
vt 0.615613 0.750000
vt 0.125000 0.737500
vt 0.137500 0.750000
vt 0.617110 1.000000
vt 0.625000 0.987500
vt 0.375000 0.737500
vt 0.362500 0.750000
vt 0.625000 0.762500
vt 0.625000 0.762500
vt 0.617110 0.750000
vt 0.363097 0.500597
vt 0.375000 0.512500
vt 0.363097 0.512500
vt 0.617110 0.500000
vt 0.625000 0.512500
vt 0.625000 0.512500
vt 0.527615 0.000000
vt 0.615613 0.000000
vt 0.527615 0.025068
vt 0.625000 0.026406
vt 0.625000 0.223594
vt 0.527615 0.225686
vt 0.625000 0.272117
vt 0.518228 0.762779
vt 0.412320 0.762779
vt 0.125000 0.730064
vt 0.382890 0.000000
vt 0.617110 0.000000
vt 0.625000 0.012500
vt 0.625000 0.015272
vt 0.625000 0.473447
vt 0.625000 0.487500
vt 0.382890 0.488694
vt 0.523661 0.488694
vt 0.363473 0.512500
vt 0.363474 0.604417
vn 0.0000 0.0000 1.0000
vn 1.0000 -0.0000 0.0000
vn 0.0000 0.0000 -1.0000
vn 0.0000 1.0000 0.0000
vn -1.0000 0.0000 0.0000
vn 0.0000 -1.0000 0.0000
vn -0.4709 -0.7460 0.4709
vn -0.4709 0.7460 0.4709
vn -0.4709 -0.7460 -0.4709
vn -0.4709 0.7460 -0.4709
vn 0.4709 -0.7460 0.4709
vn 0.4709 -0.7460 -0.4709
vn 0.4713 0.7458 -0.4708
vn 0.4709 0.7460 0.4709
vn -0.5338 -0.8456 0.0000
vn -0.7071 0.0000 0.7071
vn -0.5338 0.8456 0.0000
vn -0.7071 0.0000 -0.7071
vn 0.0000 -0.8456 -0.5338
vn 0.0000 0.8456 -0.5338
vn 0.7071 0.0000 -0.7071
vn 0.5338 -0.8456 0.0000
vn 0.7071 0.0000 0.7071
vn 0.0000 -0.8456 0.5338
vn 0.0000 0.8456 0.5338
vn 0.0000 0.8456 0.5339
vn 0.5338 0.8456 0.0000
vn 0.0000 0.8453 -0.5342
vn 0.4709 0.7460 -0.4709
vn 0.4709 -0.7459 -0.4710
vn -0.5339 -0.8456 0.0000
vn 0.0000 -0.8456 -0.5339
g Rock2_Cube.005_Material
usemtl Material
s off
f 7/1/1 3/2/1 24/3/1 100/4/1 102/5/1 101/6/1 99/7/1
f 104/8/2 22/9/2 33/10/2 103/11/2 108/12/2 109/13/2 106/14/2 105/15/2 107/16/2
f 34/17/3 117/18/3 113/19/3 110/20/3 114/21/3 42/22/3 111/23/3 115/24/3 116/25/3 112/26/3
f 120/27/4 118/28/4 119/29/4 17/30/4 9/31/4 121/32/4 122/33/4
f 6/34/5 10/35/5 19/36/5 14/37/5
f 31/38/3 16/39/3 18/40/3 124/41/3 123/42/3 125/43/3 126/44/3 128/45/3 127/46/3
f 40/47/6 106/48/6 109/49/6 130/50/6
f 126/51/6 125/52/6 43/53/6 129/54/6
f 132/55/5 133/56/5 134/57/5 137/58/5 41/59/5 123/60/5 124/61/5 119/62/5 118/63/5 131/64/5 136/65/5 135/66/5 138/67/5
f 141/68/1 142/69/1 140/70/1 37/71/1
f 105/72/1 39/73/1 139/74/1 107/75/1
f 143/76/1 120/77/1 122/78/1 144/79/1
f 145/80/2 35/81/2 36/82/2 151/83/2 148/84/2 146/85/2 147/86/2
f 149/87/2 38/88/2 150/89/2 152/90/2
f 6/91/7 2/92/7 3/93/7
f 10/94/8 7/1/8 9/95/8
f 14/96/9 16/97/9 11/98/9
f 19/99/10 17/100/10 18/101/10
f 20/102/11 22/103/11 24/104/11
f 31/105/12 33/106/12 28/107/12
f 35/108/13 34/17/13 190/109/13 188/110/13 189/111/13
f 192/112/14 37/113/14 36/82/14 191/114/14
f 39/115/11 40/116/11 38/117/11
f 41/59/9 42/118/9 43/119/9
f 11/98/15 2/120/15 6/34/15 14/37/15
f 3/121/16 7/122/16 10/35/16 6/34/16
f 9/123/17 17/124/17 19/36/17 10/35/17
f 18/40/18 16/39/18 14/37/18 19/36/18
f 28/107/19 11/125/19 16/126/19 31/105/19
f 18/40/20 17/100/20 119/127/20 124/41/20
f 33/10/21 31/38/21 127/46/21 103/11/21
f 20/102/22 28/107/22 33/10/22 22/9/22
f 100/4/23 24/3/23 22/9/23 104/8/23
f 2/92/24 20/102/24 24/104/24 3/93/24
f 121/128/25 9/95/25 7/1/25 99/7/25
f 41/129/15 43/53/15 125/52/15 123/130/15
f 160/131/19 129/54/19 43/53/19 42/132/19 114/133/19
f 117/18/21 34/17/21 35/81/21 145/80/21
f 131/64/16 118/63/16 120/134/16 143/135/16
f 139/74/23 39/73/23 38/88/23 149/87/23
f 151/83/23 36/82/23 37/71/23 140/70/23
f 42/22/18 41/59/18 137/58/18 194/136/18 193/137/18 111/23/18
f 166/138/26 141/68/26 37/71/26 192/139/26 195/140/26
f 36/82/27 35/81/27 189/141/27 196/142/27 191/143/27
f 40/47/24 39/144/24 105/145/24 106/48/24
f 190/109/28 34/17/28 112/26/28
f 38/88/22 40/47/22 130/50/22 154/146/22 150/89/22
f 11/125/6 28/107/6 20/102/6 2/92/6
f 169/147/5 168/148/5 29/149/5 23/150/5 26/151/5 174/152/5 176/153/5
f 195/154/1 15/155/1 30/156/1 170/157/1 171/158/1 164/159/1 166/160/1
f 4/161/4 25/162/4 32/163/4 13/164/4
f 188/165/2 5/166/2 12/167/2 196/168/2 189/169/2
f 1/170/29 4/171/29 5/172/29
f 116/173/30 115/174/30 8/175/30
f 13/176/14 15/177/14 12/167/14
f 21/178/10 23/179/10 25/180/10
f 26/151/9 27/181/9 193/182/9 194/183/9
f 29/149/8 30/184/8 32/185/8
f 26/186/31 194/187/31 137/188/31 134/189/31 174/190/31
f 27/191/32 8/175/32 115/174/32 111/192/32 193/193/32
f 8/194/21 1/170/21 5/166/21 188/165/21 190/195/21 112/196/21 116/197/21
f 170/198/16 30/184/16 29/149/16 168/148/16
f 196/168/23 12/167/23 15/155/23 195/154/23 192/199/23 191/200/23
f 21/201/18 27/202/18 26/151/18 23/150/18
f 13/203/25 32/204/25 30/156/25 15/155/25
f 4/161/27 13/164/27 12/167/27 5/166/27
f 32/185/17 25/180/17 23/150/17 29/149/17
f 25/205/20 4/171/20 1/170/20 21/201/20
f 27/202/3 21/201/3 1/170/3 8/194/3
g Rock2_Cube.005_Material.001
usemtl Material.001
f 44/206/6 53/207/6 50/208/6 108/209/6 103/210/6 127/211/6 128/212/6
f 154/213/1 52/214/1 153/215/1 152/216/1 150/217/1
f 158/218/2 51/219/2 55/220/2 57/221/2 155/222/2 156/223/2 157/224/2
f 159/225/4 56/226/4 47/227/4 113/228/4 117/229/4 145/230/4 147/231/4
f 49/232/5 45/233/5 160/234/5 114/235/5 110/236/5
f 46/237/3 48/238/3 58/239/3 54/240/3
f 143/241/6 144/242/6 177/243/6 84/244/6 90/245/6 136/246/6 131/247/6
f 179/248/1 97/249/1 87/250/1 85/251/1 182/252/1 183/253/1 178/254/1
f 98/255/2 180/256/2 181/257/2 185/258/2
f 186/259/4 88/260/4 96/261/4 162/262/4 163/263/4
f 132/264/4 93/265/4 187/266/4 175/267/4 133/268/4
f 86/269/5 89/270/5 95/271/5 91/272/5
f 92/273/3 94/274/3 138/275/3 135/276/3
f 45/277/9 46/278/9 44/206/9
f 49/279/10 47/280/10 48/281/10
f 52/282/11 50/208/11 51/283/11
f 54/284/12 55/285/12 53/207/12
f 58/286/29 56/287/29 57/288/29
f 86/289/7 84/244/7 85/290/7
f 89/291/8 87/250/8 88/292/8
f 91/293/9 92/294/9 90/245/9
f 95/295/10 93/296/10 94/297/10
f 96/298/14 97/299/14 98/300/14
f 45/277/15 44/206/15 128/212/15 126/301/15 129/302/15 160/303/15
f 113/304/17 47/305/17 49/232/17 110/236/17
f 48/238/18 46/237/18 45/233/18 49/232/18
f 53/207/19 44/206/19 46/278/19 54/284/19
f 47/280/20 56/306/20 58/239/20 48/238/20
f 57/221/21 55/220/21 54/240/21 58/239/21
f 50/208/22 53/207/22 55/220/22 51/219/22
f 155/222/27 57/221/27 56/226/27 159/225/27 184/307/27
f 153/215/23 52/214/23 51/219/23 158/218/23 167/308/23
f 109/309/24 108/209/24 50/208/24 52/282/24 154/310/24 130/311/24
f 90/245/15 84/244/15 86/289/15 91/293/15
f 85/312/16 87/313/16 89/270/16 86/269/16
f 187/314/17 93/315/17 95/271/17 89/270/17 88/316/17 186/317/17 172/318/17 173/319/17
f 94/274/18 92/273/18 91/272/18 95/271/18
f 136/246/19 90/245/19 92/294/19 135/320/19
f 138/275/20 94/274/20 93/296/20 132/321/20
f 162/262/27 96/261/27 98/255/27 185/258/27 161/322/27
f 180/256/23 98/255/23 97/249/23 179/248/23
f 182/323/24 85/290/24 84/244/24 177/243/24
f 96/298/25 88/292/25 87/250/25 97/249/25
g Rock2_Cube.005_Material.002
usemtl Material.002
f 161/324/1 66/325/1 59/326/1 163/327/1 162/328/1
f 67/329/2 165/330/2 142/331/2 141/332/2 166/333/2 164/334/2
f 74/335/6 68/336/6 102/337/6 100/338/6 104/339/6 107/340/6 139/341/6 149/342/6 152/343/6 153/344/6 167/345/6
f 62/346/4 60/347/4 65/348/4 171/349/4 170/350/4 168/351/4 169/352/4
f 172/353/5 61/354/5 64/355/5 173/356/5
f 133/357/3 175/358/3 63/359/3 176/360/3 174/361/3 134/362/3
f 76/363/1 78/364/1 71/365/1 69/366/1
f 80/367/2 82/368/2 79/369/2 75/370/2
f 178/371/4 72/372/4 77/373/4 81/374/4 148/375/4 151/376/4 140/377/4 142/378/4 165/379/4 181/380/4 180/381/4 179/382/4
f 70/383/5 73/384/5 183/385/5 182/386/5 177/387/5 144/388/5 122/389/5 121/390/5 99/391/5 101/392/5
f 83/393/3 184/394/3 159/395/3 147/396/3 146/397/3
f 61/398/8 59/326/8 60/399/8
f 64/400/10 62/401/10 63/402/10
f 65/403/14 66/404/14 67/405/14
f 70/406/7 68/336/7 69/407/7
f 73/408/8 71/365/8 72/409/8
f 74/335/11 75/410/11 76/411/11
f 77/412/14 78/413/14 79/414/14
f 156/415/12 80/416/12 157/417/12
f 83/418/29 81/419/29 82/420/29
f 163/421/16 59/422/16 61/354/16 172/353/16 186/423/16
f 60/424/17 62/425/17 64/355/17 61/354/17
f 64/355/18 63/359/18 175/358/18 187/426/18 173/356/18
f 176/360/20 63/359/20 62/401/20 169/427/20
f 171/349/27 65/348/27 67/329/27 164/334/27
f 165/330/23 67/329/23 66/325/23 161/324/23 185/428/23 181/429/23
f 65/403/25 60/399/25 59/326/25 66/325/25
f 68/336/15 70/406/15 101/430/15 102/337/15
f 69/431/16 71/432/16 73/384/16 70/383/16
f 183/385/17 73/384/17 72/433/17 178/434/17
f 148/435/20 81/436/20 83/393/20 146/397/20
f 83/393/21 82/368/21 80/367/21 156/437/21 155/438/21 184/394/21
f 157/439/22 80/367/22 75/370/22 74/335/22 167/345/22 158/440/22
f 81/374/27 77/373/27 79/369/27 82/368/27
f 78/364/23 76/363/23 75/370/23 79/369/23
f 68/336/24 74/335/24 76/411/24 69/407/24
f 77/412/25 72/409/25 71/365/25 78/364/25
