# Blender v3.1.2 OBJ File: 'Rocks.blend'
# www.blender.org
mtllib Rock3.mtl
o Icosphere.017_Icosphere.016
v -0.161643 -0.642973 -0.623250
v -0.313887 -0.334083 -0.050325
v -0.189498 -0.585125 -0.190222
v -0.362646 -0.074066 -0.300511
v -0.224314 -0.289640 -0.625196
v -0.407580 -0.067068 -0.197308
v -0.302524 -0.328700 -0.343632
v 0.121743 -0.662801 -0.555363
v 0.427489 -0.638610 0.126743
v 0.607516 -0.617209 -0.003257
v 0.384214 -0.364677 -0.428055
v 0.436929 -0.333354 -0.428984
v 0.958379 -0.524372 -0.286400
v -0.382782 -0.409542 0.314508
v -0.218740 -0.614015 0.268969
v -0.351877 -0.330890 0.504232
v -0.084179 -0.380143 0.554369
v -0.781586 -0.088049 0.327995
v -0.733030 -0.164218 0.483267
v -0.125584 -0.261886 0.683001
v 0.335989 -0.649412 0.343426
v 0.601600 -0.647216 0.125749
v 0.266637 -0.579072 0.460892
v 0.512370 -0.532005 0.454665
v 1.032981 -0.585859 -0.007823
v 0.498958 -0.523423 0.498222
v 0.566240 -0.490159 0.434415
v -0.342435 0.393248 -0.492421
v -0.005072 0.267080 -0.633668
v -0.333285 0.281041 -0.117403
v -0.216219 0.417147 -0.311678
v 0.253457 0.459854 -0.413547
v 0.219993 0.777906 -0.228125
v 0.368131 0.203449 -0.470028
v 0.898514 -0.218747 0.024177
v 0.814709 -0.129322 0.065311
v 0.405322 0.394439 -0.391062
v 0.485506 0.603588 -0.281445
v -0.056304 0.525799 0.206768
v 0.008246 0.541191 0.277817
v -0.310552 0.306593 0.655870
v -0.095974 0.434322 0.818114
v 0.211188 0.633131 0.319942
v 0.215583 0.525860 0.541385
v 0.641110 0.294626 0.445938
v 0.847558 0.047510 0.498459
v 0.704479 0.167538 0.561495
v 0.762294 0.083646 0.544635
v 0.465868 0.499991 0.325713
v 0.406288 0.399797 0.540542
vn -0.9348 -0.1677 -0.3131
vn -0.9206 -0.3881 -0.0428
vn -0.9431 -0.3054 -0.1319
vn -0.1969 -0.8503 -0.4881
vn 0.7410 -0.5774 -0.3429
vn -0.4113 -0.6891 0.5966
vn -0.3028 -0.6954 0.6517
vn -0.5271 -0.8402 0.1274
vn 0.5924 -0.4341 0.6787
vn 0.2736 -0.8822 0.3832
vn 0.1748 -0.8457 0.5043
vn -0.0784 0.9940 -0.0767
vn -0.2157 0.6637 -0.7163
vn 0.7183 0.1128 -0.6865
vn -0.5153 0.8518 0.0940
vn -0.2294 0.9444 0.2354
vn 0.6843 0.5921 0.4256
vn 0.5125 0.7102 0.4827
vn -0.6920 0.0206 -0.7216
vn -0.9929 0.1081 -0.0505
vn 0.4108 0.6882 -0.5980
vn 0.6559 0.0264 -0.7544
vn -0.3989 -0.0862 0.9129
vn -0.6848 0.7190 0.1184
vn 0.4471 -0.2594 0.8561
vn 0.5601 -0.3807 0.7358
vn -0.8622 -0.4794 -0.1634
vn -0.6577 -0.6404 -0.3966
vn -0.6279 0.7777 0.0307
vn -0.5898 0.7976 0.1263
vn -0.0497 -0.9901 -0.1309
vn 0.0691 -0.9708 -0.2296
vn 0.8278 0.5225 -0.2044
vn 0.8620 0.5060 0.0306
vn -0.1247 -0.9868 0.1037
vn 0.2927 0.0934 -0.9516
vn -0.1862 -0.7693 0.6111
vn -0.0833 -0.6386 0.7650
vn 0.2031 0.4644 -0.8620
vn 0.3891 0.3607 -0.8476
vn 0.4508 0.7827 0.4292
vn 0.4163 0.6060 0.6779
vn -0.0529 -0.9963 -0.0680
vn 0.5123 0.8370 0.1926
vn 0.3305 -0.1018 -0.9383
vn 0.2311 -0.1760 0.9569
vn -0.7504 0.6131 -0.2472
vn 0.8701 0.4487 -0.2041
usemtl Material.002
s off
f 4//1 5//1 7//1 6//1
f 2//2 6//2 7//2 3//2
f 1//3 3//3 7//3 5//3
f 9//4 12//4 13//4 10//4
f 11//5 12//5 9//5 8//5
f 14//6 15//6 17//6 16//6
f 17//7 20//7 19//7 16//7
f 14//8 16//8 19//8 18//8
f 24//9 25//9 27//9 26//9
f 22//10 25//10 24//10 21//10
f 24//11 26//11 23//11 21//11
f 30//12 31//12 29//12 28//12
f 29//13 31//13 33//13 32//13
f 37//14 38//14 35//14 34//14
f 41//15 42//15 40//15 39//15
f 40//16 42//16 44//16 43//16
f 47//17 48//17 46//17 45//17
f 49//18 50//18 47//18 45//18
f 4//19 28//19 29//19 5//19
f 4//20 6//20 30//20 28//20
f 12//21 35//21 36//21 13//21
f 34//22 35//22 12//22 11//22
f 20//23 42//23 41//23 19//23
f 18//24 19//24 41//24 39//24
f 27//25 48//25 47//25 26//25
f 46//26 48//26 27//26 25//26
f 2//27 3//27 15//27 14//27
f 2//28 14//28 18//28 6//28
f 39//29 40//29 31//29 30//29
f 31//30 40//30 43//30 33//30
f 9//31 10//31 22//31 21//31
f 13//32 25//32 22//32 10//32
f 45//33 46//33 36//33 35//33
f 38//34 49//34 45//34 35//34
f 1//35 8//35 9//35 3//35
f 1//36 5//36 11//36 8//36
f 15//37 21//37 23//37 17//37
f 23//38 26//38 20//38 17//38
f 33//39 38//39 37//39 32//39
f 29//40 32//40 37//40 34//40
f 44//41 50//41 49//41 43//41
f 47//42 50//42 44//42 42//42
f 3//43 9//43 21//43 15//43
f 43//44 49//44 38//44 33//44
f 5//45 29//45 34//45 11//45
f 26//46 47//46 42//46 20//46
f 6//47 18//47 39//47 30//47
f 36//48 46//48 25//48 13//48
