# Blender v3.1.2 OBJ File: 'Rocks.blend'
# www.blender.org
mtllib Rock2.mtl
o Icosphere.016_Icosphere.002
v -0.076092 -0.515396 -0.427164
v -0.351024 -0.336461 0.026902
v -0.137333 -0.610341 -0.152908
v -0.239282 0.009259 -0.290293
v -0.132598 -0.205976 -0.488406
v -0.398218 -0.005523 -0.137901
v -0.288568 -0.228781 -0.253739
v 0.163781 -0.494345 -0.403404
v 0.361899 -0.588166 -0.036137
v 0.610734 -0.647902 -0.008970
v 0.325609 -0.383848 -0.312304
v 0.495829 -0.288734 -0.260426
v 1.053712 -0.512268 -0.096783
v -0.394228 -0.383546 0.238498
v -0.086060 -0.710266 0.299816
v -0.645995 -0.064815 0.325933
v -0.125200 -0.318158 0.537048
v -0.281469 0.015498 0.550255
v -0.029372 -0.090427 0.621381
v 0.278259 -0.573526 0.269405
v 0.633380 -0.619502 0.169209
v 0.108868 -0.073942 0.603094
v 0.969248 -0.489921 0.268373
v 0.216608 -0.073073 0.523232
v -0.239570 0.267900 -0.408833
v -0.021281 0.292867 -0.498935
v -0.334673 0.246469 -0.239224
v -0.090299 0.491326 -0.168604
v 0.193023 0.500676 -0.394899
v 0.300090 0.790913 -0.167120
v 0.350060 0.163244 -0.388190
v 0.821170 -0.288102 -0.091856
v 0.642970 -0.065517 -0.027311
v 0.374050 0.408325 -0.346968
v 0.549451 0.621178 -0.133722
v -0.297683 0.359307 0.499987
v 0.127768 0.535754 0.413590
v -0.260925 0.353107 0.608252
v 0.004121 0.357294 0.803373
v 0.126043 0.553015 0.265277
v 0.598061 -0.013835 0.208541
v 0.624842 -0.089098 0.203921
v 0.286198 0.072955 0.544155
v 0.379572 0.441600 0.169585
vn -0.7771 0.0648 -0.6260
vn -0.8685 -0.3663 -0.3339
vn -0.8290 -0.3513 -0.4351
vn -0.0086 -0.5753 -0.8179
vn 0.5999 -0.6035 -0.5253
vn -0.4279 -0.2350 0.8727
vn -0.5732 -0.5228 0.6310
vn 0.0712 -0.5781 0.8129
vn -0.4688 0.7729 -0.4276
vn -0.4717 0.6791 -0.5625
vn 0.6440 0.1378 -0.7525
vn -0.2846 0.9140 0.2892
vn -0.6722 -0.0275 -0.7398
vn -0.7637 -0.1732 -0.6220
vn 0.4514 0.4848 -0.7491
vn 0.4225 -0.1178 -0.8987
vn -0.4807 -0.2259 0.8473
vn -0.6448 0.0807 0.7600
vn 0.5377 0.5041 0.6758
vn 0.6038 -0.4708 0.6433
vn -0.7610 -0.6353 -0.1313
vn -0.8072 -0.4208 -0.4140
vn -0.5324 0.8465 0.0020
vn -0.5810 0.7945 0.1767
vn -0.1642 -0.9842 0.0669
vn 0.3182 -0.9399 0.1240
vn -0.6917 -0.7217 0.0264
vn 0.8158 0.3215 0.4807
vn 0.1129 -0.9464 -0.3026
vn 0.2751 -0.0006 -0.9614
vn 0.1472 -0.1502 0.9776
vn 0.2546 -0.4785 0.8404
vn 0.4232 0.4512 -0.7857
vn 0.3221 0.1312 -0.9376
vn 0.7609 0.4038 0.5079
vn 0.6865 0.5208 0.5074
vn 0.1899 -0.9765 -0.1017
vn 0.4483 0.6711 0.5904
vn 0.2860 -0.1157 -0.9512
vn 0.3926 -0.3577 0.8473
vn -0.8335 0.5259 -0.1694
vn 0.7408 0.6593 0.1288
usemtl Material.002
s off
f 4//1 5//1 7//1 6//1
f 2//2 6//2 7//2 3//2
f 1//3 3//3 7//3 5//3
f 9//4 12//4 13//4 10//4
f 11//5 12//5 9//5 8//5
f 16//6 17//6 19//6 18//6
f 15//7 17//7 16//7 14//7
f 21//8 23//8 22//8 20//8
f 27//9 28//9 26//9 25//9
f 26//10 28//10 30//10 29//10
f 34//11 35//11 32//11 31//11
f 38//12 39//12 37//12 36//12
f 4//13 25//13 26//13 5//13
f 4//14 6//14 27//14 25//14
f 12//15 32//15 33//15 13//15
f 31//16 32//16 12//16 11//16
f 19//17 39//17 38//17 18//17
f 16//18 18//18 38//18 36//18
f 23//19 42//19 41//19 22//19
f 41//20 43//20 24//20 22//20
f 2//21 3//21 15//21 14//21
f 2//22 14//22 16//22 6//22
f 36//23 37//23 28//23 27//23
f 28//24 37//24 40//24 30//24
f 9//25 10//25 21//25 20//25
f 13//26 23//26 21//26 10//26
f 41//27 42//27 33//27 32//27
f 35//28 44//28 41//28 32//28
f 1//29 8//29 9//29 3//29
f 1//30 5//30 11//30 8//30
f 17//31 22//31 24//31 19//31
f 20//32 22//32 17//32 15//32
f 30//33 35//33 34//33 29//33
f 26//34 29//34 34//34 31//34
f 39//35 43//35 41//35 37//35
f 41//36 44//36 40//36 37//36
f 3//37 9//37 20//37 15//37
f 40//38 44//38 35//38 30//38
f 5//39 26//39 31//39 11//39
f 24//40 43//40 39//40 19//40
f 6//41 16//41 36//41 27//41
f 33//42 42//42 23//42 13//42
