# Blender v3.1.2 OBJ File: 'NewOres.blend'
# www.blender.org
mtllib Rock1 - Copy.mtl
o Rock1_Cube.006
v 0.900000 4.599684 -1.000000
v -0.981032 -0.001613 1.083562
v -0.981032 0.061508 1.183563
v 0.900000 4.662804 -0.900000
v 1.000000 4.599684 -0.900000
v -1.081032 0.061508 1.083562
v 0.900000 3.904748 -1.000000
v 1.000000 4.599684 0.900000
v -0.981032 -0.001613 -0.716437
v 0.900000 4.662804 0.900000
v -1.081032 0.061508 -0.716437
v -0.981032 0.061508 -0.816437
v 0.900000 4.599684 1.000000
v -1.081032 1.197676 -0.716437
v 0.510437 -0.001613 1.083562
v -0.900000 4.599684 -1.000000
v 0.610437 0.061508 1.083562
v -1.000000 4.599684 -0.900000
v 0.510437 0.061508 1.183563
v -0.900000 4.662804 -0.900000
v -1.000000 3.904748 -0.900000
v -0.900000 3.904748 -1.000000
v -1.000000 4.599684 0.900000
v 0.510437 -0.001613 -0.716437
v -0.900000 4.599684 1.000000
v 0.510437 0.061508 -0.816437
v 0.610437 0.061508 -0.716437
v -0.900000 4.662804 0.900000
v -0.900000 3.904748 1.000000
v -1.000000 3.904748 0.900000
v 0.901691 4.049832 -0.998708
v 1.001691 4.049832 -0.898708
v 0.901691 0.112953 -0.898708
v 0.901691 0.176074 -0.998708
v 1.001691 0.176074 -0.898708
v 1.001691 4.049832 0.901292
v 0.901691 4.049832 1.001292
v 1.001691 0.176074 0.901292
v 0.901691 0.176074 1.001292
v 0.901691 0.112953 0.901292
v -0.998309 0.176074 -0.898708
v -0.898309 0.176074 -0.998708
v -0.898309 0.112953 -0.898708
v -0.898309 4.049832 1.001292
v -0.781108 0.088027 -1.089265
v -0.881108 0.151147 -1.089265
v -0.781108 0.151147 -1.189265
v -0.781108 2.088027 -1.089265
v -0.781108 2.024906 -1.189265
v -0.881108 2.024906 -1.089265
v 0.291075 0.088027 -1.089265
v 0.291075 0.151147 -1.189265
v 0.391075 0.151147 -1.089265
v 0.291075 2.088027 -1.089265
v 0.391075 2.024906 -1.089265
v 0.291075 2.024906 -1.189265
v 1.046284 1.977092 1.008774
v 1.146284 2.040212 1.008774
v 1.046284 2.040212 1.108774
v 1.046284 3.658203 1.008774
v 1.046284 3.595083 1.108774
v 1.146284 3.595083 1.008774
v 1.046284 1.977092 0.262027
v 1.046284 2.040212 0.162027
v 1.146284 2.040212 0.262027
v 1.046284 3.658203 0.262027
v 1.146284 3.595083 0.262027
v 1.046284 3.595083 0.162027
v -1.097257 0.538160 1.243049
v -1.097257 0.601281 1.343049
v -1.197257 0.601281 1.243049
v -1.097257 2.475040 1.343049
v -1.097257 2.538160 1.243049
v -1.197257 2.475040 1.243049
v -1.097257 0.538160 -0.556950
v -1.197257 0.601281 -0.556950
v -1.097257 0.601281 -0.656950
v -1.097257 2.538160 -0.556950
v -1.097257 2.475040 -0.656950
v -1.197257 2.475040 -0.556950
v 0.702742 0.538160 1.243049
v 0.802742 0.601281 1.243049
v 0.702742 0.601281 1.343049
v 0.702742 2.538160 1.243049
v 0.702742 2.475040 1.343049
v 0.802742 2.475040 1.243049
v -0.680068 2.641795 1.120872
v -0.680068 2.704916 1.220872
v -0.780068 2.704916 1.120872
v -0.680068 4.259787 1.220872
v -0.680068 4.322907 1.120872
v -0.780068 4.259787 1.120872
v 0.146356 2.641795 1.120872
v 0.246356 2.704916 1.120872
v 0.146356 2.704916 1.220872
v 0.146356 4.322907 1.120872
v 0.146356 4.259787 1.220872
v 0.246356 4.259787 1.120872
v 0.510437 0.538160 1.183563
v -0.981032 0.538160 1.183563
v 0.610437 0.112953 -0.716437
v 0.610437 0.538160 1.083562
v 0.610437 0.176074 1.001292
v 0.610437 0.112953 0.901292
v 0.610437 0.538160 1.001292
v -0.881108 2.024906 -0.998708
v -0.898309 3.903933 -0.998708
v 0.901292 4.049832 -0.998708
v -0.781108 2.088027 -0.998708
v -0.881108 0.176074 -0.998708
v 0.291075 2.088027 -0.998708
v 0.391075 0.176074 -0.998708
v 0.901292 3.904748 -0.998708
v 0.391075 2.024906 -0.998708
v 0.900000 3.903933 -0.998708
v -1.081032 1.197676 -0.656950
v -1.081032 0.538160 1.083562
v -1.081032 0.538160 -0.556950
v -1.081032 0.601281 -0.656950
v -0.981032 0.165169 -0.816437
v -0.898309 0.112953 -0.816437
v -0.781108 0.088027 -0.816437
v -0.820599 0.112953 -0.816437
v 0.510437 0.112953 -0.816437
v 0.291075 0.088027 -0.816437
v 0.330565 0.112953 -0.816437
v -0.820599 0.112953 -0.898708
v 0.330565 0.112953 -0.898708
v -0.998309 3.904497 0.901292
v -0.998309 2.538160 0.901292
v -0.998309 3.903681 0.900000
v -0.998309 2.538160 -0.556950
v -0.998309 3.903681 -0.898708
v -0.998309 1.197676 -0.799161
v -0.998309 1.249891 -0.716437
v -0.998309 2.475040 -0.656950
v -0.998309 0.176074 -0.799161
v -0.998309 1.249891 -0.656950
v -0.780068 4.049832 1.001292
v 0.246356 4.049832 1.001292
v 0.901691 1.977092 1.001292
v 0.802742 0.601281 1.001292
v 0.901691 3.658203 1.001292
v 0.802742 1.977092 1.001292
v 0.246356 3.658203 1.001292
v -0.780068 2.704916 1.001292
v -0.680068 2.641795 1.001292
v -0.898309 2.538160 1.001292
v 0.702742 0.538160 1.001292
v -0.534828 2.538160 1.001292
v -0.534828 2.641795 1.001292
v 1.001691 3.658203 0.262027
v 1.001691 3.595083 0.162027
v 1.001691 3.658203 0.901292
v 1.001691 2.040212 0.162027
v 1.001691 1.977092 0.262027
v 1.001691 1.977092 0.901292
v 0.391075 0.151147 -0.959217
v 0.802742 1.977092 1.008774
v -0.881108 0.151147 -0.959217
v 0.702742 2.538160 1.108774
v 0.246356 3.595083 1.108774
v 0.802742 2.475040 1.108774
v -0.434828 2.538160 1.108774
v -0.434828 2.641795 1.108774
v 0.802742 2.040212 1.108774
v 0.246356 2.704916 1.108774
v 0.146356 2.641795 1.108774
v 0.246356 3.658203 1.008774
v -0.534828 2.538160 1.008774
v -0.534828 2.641795 1.008774
v 0.246356 4.259787 1.000000
v 0.246356 4.050648 1.000000
v -0.680068 4.322907 1.000000
v 0.146356 4.322907 1.000000
v -0.780068 4.050648 1.000000
v -0.780068 4.259787 1.000000
v 1.000000 4.050084 -0.900000
v 1.000000 4.050900 -0.898708
v 0.901691 4.050084 -0.998309
v 0.998708 4.051715 0.901292
v 0.901691 4.051715 0.998309
v -0.898309 4.050648 1.000000
v -0.899601 4.049832 1.000000
v -0.900000 3.904497 0.999601
v -0.899601 3.904748 1.000000
v -0.900000 3.902865 -0.997017
v -0.997017 3.902865 -0.900000
v 0.900000 4.050648 1.000000
v 1.000000 4.050900 0.900000
vt 0.481893 0.985220
vt 0.387500 0.985220
vt 0.387500 0.764780
vt 0.481893 0.764780
vt 0.481893 0.737500
vt 0.387500 0.737500
vt 0.387500 0.512500
vt 0.397688 0.512500
vt 0.397688 0.714716
vt 0.410188 0.727216
vt 0.481893 0.727216
vt 0.621055 0.487500
vt 0.378945 0.487500
vt 0.378945 0.423673
vt 0.494497 0.423673
vt 0.498442 0.411173
vt 0.498442 0.277150
vt 0.494497 0.264650
vt 0.378945 0.264650
vt 0.378945 0.262500
vt 0.611936 0.262500
vt 0.611936 0.487289
vt 0.611987 0.487450
vt 0.621055 0.487450
vt 0.612500 0.237500
vt 0.387500 0.237500
vt 0.387500 0.012500
vt 0.481893 0.012500
vt 0.481893 0.217564
vt 0.494393 0.230064
vt 0.612500 0.230064
vt 0.397688 0.485220
vt 0.387500 0.485220
vt 0.387500 0.264780
vt 0.408028 0.264780
vt 0.397688 0.277007
vt 0.397688 0.288492
vt 0.392752 0.294329
vt 0.392752 0.452798
vt 0.397688 0.458635
vt 0.291109 0.512500
vt 0.362500 0.512500
vt 0.362500 0.737500
vt 0.326093 0.737500
vt 0.326093 0.535284
vt 0.313593 0.522784
vt 0.291109 0.522784
vt 0.147214 0.522784
vt 0.137500 0.522784
vt 0.137500 0.512500
vt 0.147214 0.512500
vt 0.526575 0.012500
vt 0.611971 0.012500
vt 0.611921 0.012662
vt 0.611920 0.237500
vt 0.378945 0.237500
vt 0.378945 0.225057
vt 0.442795 0.225057
vt 0.446059 0.214716
vt 0.446059 0.207280
vt 0.522630 0.207280
vt 0.526575 0.194780
vt 0.596578 0.762500
vt 0.621055 0.762500
vt 0.621055 0.844417
vt 0.596578 0.844417
vt 0.378945 0.798907
vt 0.378945 0.762500
vt 0.491509 0.762500
vt 0.491509 0.774868
vt 0.405520 0.774868
vt 0.401575 0.787368
vt 0.401575 0.798907
vt 0.533053 0.942065
vt 0.533053 0.960220
vt 0.536998 0.972720
vt 0.621055 0.972720
vt 0.621055 0.987500
vt 0.526575 0.987500
vt 0.526575 0.942065
vt 0.491509 0.737500
vt 0.378945 0.737500
vt 0.378945 0.512500
vt 0.621055 0.512500
vt 0.621055 0.737500
vt 0.596578 0.737500
vt 0.596578 0.657592
vt 0.592633 0.645092
vt 0.495454 0.645092
vt 0.491509 0.657592
vt 0.139780 0.750000
vt 0.125000 0.737500
vt 0.139780 0.737500
vt 0.125000 0.512500
vt 0.139780 0.500000
vt 0.139780 0.512500
vt 0.622840 0.262227
vt 0.622840 0.262227
vt 0.612500 0.250000
vt 0.360220 0.737500
vt 0.375000 0.737500
vt 0.360220 0.750000
vt 0.360220 0.500000
vt 0.375000 0.512500
vt 0.360220 0.512500
vt 0.621055 0.500000
vt 0.621071 0.487500
vt 0.621071 0.499789
vt 0.621122 0.499789
vt 0.375000 0.512500
vt 0.362500 0.500000
vt 0.621173 0.749627
vt 0.621055 0.750000
vt 0.621173 0.737500
vt 0.375000 0.762500
vt 0.375000 0.762500
vt 0.378945 0.750000
vt 0.378945 0.250000
vt 0.375000 0.237500
vt 0.621055 0.000000
vt 0.621106 0.000161
vt 0.621055 0.000162
vt 0.387500 0.000000
vt 0.481893 0.000000
vt 0.622840 0.230064
vt 0.622840 0.237500
vt 0.612500 0.260067
vt 0.410188 0.260067
vt 0.125000 0.512500
vt 0.127160 0.522784
vt 0.125000 0.524943
vt 0.139650 0.504936
vt 0.137500 0.500000
vt 0.139650 0.500000
vt 0.298673 0.504936
vt 0.298673 0.500000
vt 0.526575 0.000000
vt 0.611987 0.000162
vt 0.611971 0.000211
vt 0.611870 0.237823
vt 0.611870 0.262077
vt 0.621106 0.987500
vt 0.621106 0.972720
vt 0.621173 0.762500
vt 0.621106 0.762711
vt 0.621106 0.844417
vt 0.621333 0.512500
vt 0.621333 0.737338
vt 0.621545 0.737500
vt 0.362500 0.750000
vt 0.326093 0.750000
vt 0.394216 0.012500
vt 0.605783 0.012500
vt 0.605784 0.237500
vt 0.394216 0.237500
vt 0.502305 0.972509
vt 0.521521 0.960009
vt 0.521521 0.856705
vt 0.502305 0.844206
vt 0.438634 0.844205
vt 0.438634 0.762500
vt 0.605783 0.762500
vt 0.605784 0.987500
vt 0.394216 0.987500
vt 0.394216 0.987450
vt 0.438386 0.987450
vt 0.438634 0.987289
vt 0.438634 0.972509
vt 0.637500 0.512500
vt 0.862500 0.512500
vt 0.862500 0.737500
vt 0.637500 0.737500
vt 0.438463 0.512500
vt 0.605783 0.512500
vt 0.605784 0.737500
vt 0.438711 0.737500
vt 0.438711 0.512662
vt 0.605784 0.487500
vt 0.625000 0.487500
vt 0.605784 0.500000
vt 0.362662 0.500162
vt 0.362500 0.500162
vt 0.362500 0.500000
vt 0.625000 0.737500
vt 0.605784 0.750000
vt 0.605784 0.250000
vt 0.625000 0.237500
vt 0.625000 0.237500
vt 0.394216 0.250000
vt 0.393643 0.249627
vt 0.393643 0.237500
vt 0.605784 0.000000
vt 0.625000 0.012500
vt 0.137500 0.749950
vt 0.137500 0.750000
vt 0.125000 0.737500
vt 0.125211 0.737500
vt 0.125211 0.737662
vt 0.125000 0.512500
vt 0.125373 0.512500
vt 0.125211 0.512661
vt 0.137500 0.500000
vt 0.137711 0.500161
vt 0.137500 0.500373
vt 0.394216 0.487500
vt 0.438463 0.487923
vt 0.438386 0.487823
vt 0.394216 0.487823
vt 0.394216 0.000000
vt 0.438959 0.762077
vt 0.438959 0.737823
vt 0.605783 0.262500
vt 0.394216 0.262500
vt 0.625000 0.762500
vt 0.625000 0.987500
vt 0.137550 0.750000
vt 0.625000 0.262500
vt 0.144651 0.563508
vt 0.144651 0.517034
vt 0.355349 0.517034
vt 0.355349 0.563507
vt 0.386006 0.532460
vt 0.382890 0.539186
vt 0.382890 0.517034
vt 0.617110 0.517034
vt 0.617110 0.532459
vt 0.644651 0.532460
vt 0.644651 0.517034
vt 0.855349 0.517034
vt 0.855349 0.532459
vt 0.617110 0.217540
vt 0.617110 0.232966
vt 0.382890 0.232966
vt 0.382890 0.210814
vt 0.386006 0.217541
vt 0.382890 0.269651
vt 0.617110 0.269651
vt 0.617110 0.480349
vt 0.382890 0.480349
vt 0.350644 0.737026
vt 0.149356 0.737026
vt 0.149356 0.721511
vt 0.184732 0.721511
vt 0.184732 0.722482
vt 0.209088 0.735456
vt 0.350644 0.735456
vt 0.384387 0.774356
vt 0.615613 0.774356
vt 0.615613 0.975644
vt 0.384387 0.975644
vt 0.615613 0.721343
vt 0.615613 0.737026
vt 0.384387 0.737026
vt 0.384387 0.735456
vt 0.516764 0.735456
vt 0.526151 0.722482
vt 0.526151 0.721511
vt 0.584391 0.721511
vt 0.584512 0.721343
vt 0.850644 0.721343
vt 0.850644 0.737026
vt 0.649356 0.737026
vt 0.649356 0.721343
vt 0.384387 0.012974
vt 0.615613 0.012974
vt 0.615613 0.028657
vt 0.584512 0.028657
vt 0.584391 0.028489
vt 0.384387 0.028489
vt 0.125000 0.517034
vt 0.144651 0.500000
vt 0.617110 0.250000
vt 0.625000 0.269651
vt 0.625000 0.269651
vt 0.355349 0.500000
vt 0.375000 0.517034
vt 0.617110 0.500000
vt 0.625000 0.517034
vt 0.625000 0.517034
vt 0.125000 0.737026
vt 0.149356 0.750000
vt 0.615613 1.000000
vt 0.625000 0.975644
vt 0.375000 0.737026
vt 0.350644 0.750000
vt 0.625000 0.774356
vt 0.625000 0.774356
vt 0.615613 0.750000
vt 0.136891 0.563507
vt 0.136891 0.549494
vt 0.125000 0.539186
vt 0.625000 0.217541
vt 0.625000 0.232966
vt 0.625000 0.480349
vt 0.366225 0.549494
vt 0.366225 0.563508
vt 0.125000 0.721511
vt 0.384387 0.000000
vt 0.615613 0.000000
vt 0.625000 0.012974
vt 0.625000 0.028657
vt 0.323912 0.723594
vt 0.323912 0.721618
vt 0.338626 0.721618
vt 0.353497 0.695212
vt 0.353497 0.526406
vt 0.360129 0.526406
vt 0.360129 0.723594
vt 0.473849 0.985129
vt 0.458437 0.985129
vt 0.458437 0.815960
vt 0.449050 0.801088
vt 0.384387 0.801089
vt 0.384387 0.764871
vt 0.615613 0.764871
vt 0.615613 0.883829
vt 0.483236 0.883829
vt 0.473849 0.898700
vt 0.384387 0.526406
vt 0.615613 0.526406
vt 0.615613 0.723594
vt 0.384387 0.723594
vt 0.362500 0.737500
vt 0.137500 0.737500
vt 0.137500 0.512500
vt 0.139528 0.512500
vt 0.139528 0.717564
vt 0.152028 0.730064
vt 0.338462 0.730064
vt 0.350962 0.717564
vt 0.350962 0.707280
vt 0.362500 0.707280
vt 0.661374 0.721618
vt 0.758829 0.721618
vt 0.758829 0.723594
vt 0.639871 0.723594
vt 0.639871 0.526406
vt 0.646503 0.526406
vt 0.646503 0.695212
vt 0.473849 0.026406
vt 0.473849 0.028382
vt 0.458437 0.028382
vt 0.458437 0.026406
vt 0.615613 0.485129
vt 0.384387 0.485129
vt 0.384387 0.478497
vt 0.615613 0.478497
vt 0.382890 0.762500
vt 0.617110 0.762500
vt 0.617110 0.987500
vt 0.382890 0.987500
vt 0.617110 0.737500
vt 0.382890 0.737500
vt 0.382890 0.707280
vt 0.554866 0.707280
vt 0.554866 0.708216
vt 0.562756 0.720716
vt 0.617110 0.720716
vt 0.850131 0.512500
vt 0.862500 0.512500
vt 0.862500 0.737500
vt 0.637500 0.737500
vt 0.637500 0.720716
vt 0.779696 0.720716
vt 0.792196 0.708216
vt 0.792196 0.707280
vt 0.837631 0.707280
vt 0.850131 0.694780
vt 0.382890 0.012500
vt 0.617110 0.012500
vt 0.617110 0.237500
vt 0.382890 0.237500
vt 0.382890 0.262500
vt 0.617110 0.262500
vt 0.617110 0.274869
vt 0.463966 0.274869
vt 0.457439 0.264528
vt 0.382890 0.264528
vt 0.375000 0.723594
vt 0.360129 0.750000
vt 0.625000 0.764871
vt 0.625000 0.764871
vt 0.615613 0.750000
vt 0.360129 0.500000
vt 0.375000 0.526406
vt 0.615613 0.500000
vt 0.625000 0.526406
vt 0.625000 0.526406
vt 0.125000 0.737500
vt 0.137500 0.750000
vt 0.617110 1.000000
vt 0.625000 0.987500
vt 0.125000 0.512500
vt 0.137500 0.500000
vt 0.617110 0.250000
vt 0.625000 0.262500
vt 0.625000 0.262500
vt 0.375000 0.737500
vt 0.362500 0.750000
vt 0.625000 0.762500
vt 0.625000 0.762500
vt 0.617110 0.750000
vt 0.473849 0.000000
vt 0.458437 0.000000
vt 0.353497 0.500000
vt 0.625000 0.478497
vt 0.625000 0.485129
vt 0.323912 0.750000
vt 0.625000 0.883829
vt 0.382890 0.000000
vt 0.617110 0.000000
vt 0.625000 0.012500
vt 0.625000 0.237500
vt 0.139528 0.500000
vt 0.625000 0.274869
vn 0.0000 0.0000 1.0000
vn 1.0000 -0.0000 0.0000
vn 0.0000 0.0000 -1.0000
vn -1.0000 -0.0000 0.0000
vn 0.0000 -1.0000 -0.0000
vn -0.4709 -0.7460 0.4709
vn -0.4709 -0.7460 -0.4709
vn -0.4709 0.7460 -0.4709
vn 0.4709 -0.7460 0.4709
vn 0.4709 -0.7460 -0.4709
vn 0.4713 0.7458 -0.4708
vn 0.4709 0.7460 0.4709
vn -0.4709 0.7457 0.4714
vn -0.5338 -0.8456 0.0000
vn -0.7071 0.0000 0.7071
vn -0.5338 0.8456 0.0000
vn -0.7071 -0.0000 -0.7071
vn 0.0000 -0.8456 -0.5338
vn 0.7071 0.0000 -0.7071
vn 0.5338 -0.8456 0.0000
vn 0.7071 0.0000 0.7071
vn 0.0000 -0.8456 0.5338
vn 0.0000 0.8455 0.5339
vn 0.0000 0.8456 0.5338
vn 0.5338 0.8456 0.0000
vn 0.0000 0.8453 -0.5342
vn 0.0000 1.0000 0.0000
vn 0.4709 0.7460 -0.4709
vn 0.4709 -0.7459 -0.4710
vn -0.4709 0.7460 0.4709
vn -0.4708 -0.7462 0.4707
vn -0.5339 -0.8456 0.0000
vn 0.0000 -0.8456 -0.5339
vn 0.0000 -0.8461 0.5331
vn 0.0000 0.8456 -0.5338
g Rock1_Cube.006_Material
usemtl Material
s off
f 100/1/1 3/2/1 19/3/1 99/4/1
f 102/5/2 17/6/2 27/7/2 101/8/2 104/9/2 103/10/2 105/11/2
f 31/12/3 34/13/3 112/14/3 114/15/3 111/16/3 109/17/3 106/18/3 110/19/3 42/20/3 107/21/3 115/22/3 113/23/3 108/24/3
f 14/25/4 11/26/4 6/27/4 117/28/4 118/29/4 119/30/4 116/31/4
f 124/32/3 26/33/3 12/34/3 120/35/3 121/36/3 123/37/3 122/38/3 125/39/3 126/40/3
f 128/41/5 33/42/5 40/43/5 104/44/5 101/45/5 124/46/5 126/47/5
f 123/48/5 121/49/5 43/50/5 127/51/5
f 130/52/4 129/53/4 131/54/4 133/55/4 41/56/4 137/57/4 134/58/4 135/59/4 138/60/4 136/61/4 132/62/4
f 143/63/1 37/64/1 140/65/1 145/66/1
f 103/67/1 39/68/1 141/69/1 144/70/1 142/71/1 149/72/1 105/73/1
f 151/74/1 147/75/1 146/76/1 139/77/1 44/78/1 148/79/1 150/80/1
f 157/81/2 38/82/2 35/83/2 32/84/2 36/85/2 154/86/2 152/87/2 153/88/2 155/89/2 156/90/2
f 3/91/6 6/92/6 2/93/6
f 11/94/7 12/95/7 9/96/7
f 135/97/8 134/98/8 14/99/8
f 15/100/9 17/101/9 19/102/9
f 26/103/10 27/104/10 24/105/10
f 32/106/11 31/12/11 180/107/11 178/108/11 179/109/11
f 35/110/10 33/42/10 34/111/10
f 182/112/12 37/113/12 36/85/12 181/114/12
f 39/115/9 40/116/9 38/117/9
f 41/56/7 42/118/7 43/119/7
f 44/120/13 183/121/13 184/122/13
f 9/96/14 2/93/14 6/92/14 11/94/14
f 6/27/15 3/123/15 100/124/15 117/28/15
f 138/125/16 135/126/16 14/25/16 116/31/16
f 12/34/17 11/26/17 14/25/17 134/127/17 137/128/17 120/35/17
f 24/105/18 9/96/18 12/95/18 26/103/18
f 27/7/19 26/33/19 124/32/19 101/8/19
f 15/100/20 24/105/20 27/7/20 17/6/20
f 99/4/21 19/3/21 17/6/21 102/5/21
f 2/93/22 15/100/22 19/102/22 3/91/22
f 41/129/14 43/50/14 121/49/14 120/130/14 137/131/14
f 160/132/18 127/51/18 43/50/18 42/133/18 110/134/18
f 34/111/18 33/42/18 128/41/18 158/135/18 112/136/18
f 32/84/19 35/83/19 34/13/19 31/12/19
f 129/53/15 130/52/15 148/137/15 44/120/15 184/122/15 186/138/15 185/139/15
f 141/69/21 39/68/21 38/82/21 157/81/21
f 154/86/21 36/85/21 37/64/21 143/63/21
f 42/20/17 41/56/17 133/55/17 188/140/17 187/141/17 107/21/17
f 183/142/23 44/78/23 139/77/23 176/143/23
f 140/65/24 37/64/24 182/144/24 189/145/24 173/146/24
f 36/85/25 32/84/25 179/147/25 190/148/25 181/149/25
f 40/43/22 39/150/22 103/151/22 104/44/22
f 180/107/26 31/12/26 108/24/26
f 40/43/20 33/42/20 35/83/20 38/82/20
f 9/96/5 24/105/5 15/100/5 2/93/5
f 30/152/4 23/153/4 18/154/4 21/155/4
f 177/156/1 174/157/1 175/158/1 172/159/1 173/160/1 189/161/1 13/162/1 25/163/1 29/164/1 186/165/1 184/166/1 183/167/1 176/168/1
f 4/169/27 20/170/27 28/171/27 10/172/27
f 178/173/2 5/174/2 8/175/2 190/176/2 179/177/2
f 1/178/28 4/179/28 5/180/28
f 113/181/29 115/182/29 7/183/29
f 10/184/12 13/185/12 8/175/12
f 16/186/8 18/187/8 20/188/8
f 21/155/7 22/189/7 187/190/7 188/191/7
f 23/153/30 25/192/30 28/193/30
f 185/194/31 29/195/31 30/196/31 131/197/31 129/198/31
f 30/196/32 21/199/32 188/200/32 133/201/32 131/197/32
f 22/202/33 7/183/33 115/182/33 107/203/33 187/204/33
f 7/205/19 1/178/19 5/174/19 178/173/19 180/206/19 108/207/19 113/208/19
f 29/209/15 25/192/15 23/153/15 30/152/15
f 190/176/21 8/175/21 13/162/21 189/161/21 182/210/21 181/211/21
f 16/212/17 22/213/17 21/155/17 18/154/17
f 10/214/24 28/215/24 25/163/24 13/162/24
f 4/169/25 10/172/25 8/175/25 5/174/25
f 185/194/34 186/216/34 29/195/34
f 28/193/16 20/188/16 18/154/16 23/153/16
f 20/217/35 4/179/35 1/178/35 16/212/35
f 22/213/3 16/212/3 1/178/3 7/205/3
g Rock1_Cube.006_Material.001
usemtl Material.001
f 122/218/5 45/219/5 51/220/5 125/221/5
f 112/222/2 158/223/2 53/224/2 55/225/2 114/226/2
f 111/227/27 54/228/27 48/229/27 109/230/27
f 106/231/4 50/232/4 46/233/4 160/234/4 110/235/4
f 47/236/3 49/237/3 56/238/3 52/239/3
f 93/240/5 87/241/5 147/242/5 151/243/5 171/244/5 165/245/5 168/246/5
f 95/247/1 97/248/1 90/249/1 88/250/1
f 172/251/2 98/252/2 94/253/2 167/254/2 162/255/2 169/256/2 145/257/2 140/258/2 173/259/2
f 174/260/27 91/261/27 96/262/27 175/263/27
f 89/264/4 92/265/4 177/266/4 176/267/4 139/268/4 146/269/4
f 46/270/7 47/271/7 45/219/7
f 50/272/8 48/273/8 49/274/8
f 52/275/10 53/276/10 51/220/10
f 56/277/28 54/278/28 55/279/28
f 89/280/6 87/241/6 88/281/6
f 92/282/30 90/249/30 91/283/30
f 93/240/9 94/284/9 95/285/9
f 96/286/12 97/287/12 98/288/12
f 46/270/14 45/219/14 122/218/14 123/289/14 127/290/14 160/291/14
f 109/292/16 48/293/16 50/232/16 106/231/16
f 49/237/17 47/236/17 46/233/17 50/232/17
f 51/220/18 45/219/18 47/271/18 52/275/18
f 48/273/35 54/294/35 56/238/35 49/237/35
f 55/225/19 53/224/19 52/239/19 56/238/19
f 125/221/20 51/220/20 53/224/20 158/223/20 128/295/20 126/296/20
f 114/226/25 55/225/25 54/228/25 111/227/25
f 87/241/14 89/280/14 146/297/14 147/242/14
f 88/298/15 90/299/15 92/265/15 89/264/15
f 177/266/16 92/265/16 91/300/16 174/301/16
f 94/253/20 93/240/20 168/246/20 167/254/20
f 175/263/25 96/262/25 98/252/25 172/251/25
f 97/248/21 95/247/21 94/253/21 98/252/21
f 87/241/22 93/240/22 95/285/22 88/281/22
f 96/286/24 91/283/24 90/249/24 97/248/24
g Rock1_Cube.006_Material.002
usemtl Material.002
f 159/302/5 144/303/5 141/304/5 157/305/5 156/306/5 63/307/5 57/308/5
f 165/309/1 164/310/1 161/311/1 163/312/1 166/313/1 59/314/1 61/315/1 162/316/1 167/317/1 168/318/1
f 65/319/2 67/320/2 62/321/2 58/322/2
f 81/323/5 69/324/5 75/325/5 118/326/5 117/327/5 100/328/5 99/329/5 102/330/5 105/331/5 149/332/5
f 143/333/27 145/334/27 169/335/27 60/336/27 66/337/27 152/338/27 154/339/27
f 171/340/4 151/341/4 150/342/4 170/343/4
f 68/344/3 64/345/3 155/346/3 153/347/3
f 83/348/1 85/349/1 72/350/1 70/351/1
f 86/352/2 82/353/2 142/354/2 144/355/2 159/356/2 166/357/2 163/358/2
f 132/359/27 78/360/27 73/361/27 84/362/27 161/363/27 164/364/27 170/365/27 150/366/27 148/367/27 130/368/27
f 71/369/4 74/370/4 80/371/4 76/372/4
f 77/373/3 79/374/3 136/375/3 138/376/3 116/377/3 119/378/3
f 57/308/9 58/379/9 59/380/9
f 60/381/12 61/382/12 62/383/12
f 64/384/10 65/385/10 63/307/10
f 68/386/28 66/387/28 67/388/28
f 71/389/6 69/324/6 70/390/6
f 74/391/30 72/350/30 73/392/30
f 76/393/7 77/394/7 75/325/7
f 80/395/8 78/396/8 79/397/8
f 81/323/9 82/398/9 83/399/9
f 84/400/12 85/401/12 86/402/12
f 165/403/15 171/340/15 170/343/15 164/404/15
f 64/384/18 63/307/18 156/306/18 155/405/18
f 152/406/35 66/407/35 68/344/35 153/347/35
f 67/320/19 65/319/19 64/345/19 68/344/19
f 57/308/20 63/307/20 65/319/20 58/322/20
f 66/337/25 60/336/25 62/321/25 67/320/25
f 61/315/21 59/314/21 58/322/21 62/321/21
f 57/308/22 59/380/22 166/408/22 159/302/22
f 61/315/24 60/381/24 169/409/24 162/316/24
f 75/325/14 69/324/14 71/389/14 76/393/14
f 70/410/15 72/411/15 74/370/15 71/369/15
f 73/412/16 78/413/16 80/371/16 74/370/16
f 79/374/17 77/373/17 76/372/17 80/371/17
f 75/325/18 77/394/18 119/414/18 118/326/18
f 136/375/35 79/374/35 78/396/35 132/415/35
f 82/353/20 81/323/20 149/332/20 142/354/20
f 161/363/25 84/362/25 86/352/25 163/358/25
f 85/349/21 83/348/21 82/353/21 86/352/21
f 69/324/22 81/323/22 83/399/22 70/390/22
f 84/400/24 73/392/24 72/350/24 85/349/24
