# Blender v3.0.0 OBJ File: ''
# www.blender.org
mtllib Rock1.mtl
o Rock1
v -3.968251 0.027294 2.011413
v -3.968251 5.027294 2.011413
v -3.968251 5.027295 -1.988587
v -3.968251 0.027294 -1.988587
v -3.968251 0.027294 -1.988587
v -3.968251 3.027294 -1.988587
v -3.968251 3.027295 -2.988587
v -3.968251 0.027295 -2.988587
v -3.968251 5.027294 1.011413
v -3.968251 6.027294 1.011414
v -3.968251 6.027294 -0.988586
v -3.968251 5.027294 -0.988587
v -3.968251 0.027295 -2.988587
v -3.968251 1.027295 -2.988587
v -3.968251 1.027295 -3.988587
v -3.968251 0.027295 -3.988587
v -3.968251 0.027294 3.011413
v -3.968251 1.027294 3.011413
v -3.968251 1.027294 2.011413
v -3.968251 0.027294 2.011413
v -2.968251 1.027294 3.011413
v -2.968251 5.027294 3.011413
v -2.968251 5.027294 2.011413
v -2.968251 1.027294 2.011413
v -2.968251 1.027295 -2.988587
v -2.968251 3.027295 -2.988587
v -2.968251 3.027295 -3.988587
v -2.968251 1.027295 -3.988587
v -2.968251 3.027294 -1.988587
v -2.968251 5.027295 -1.988587
v -2.968251 5.027295 -2.988587
v -2.968251 3.027295 -2.988587
v -2.968251 6.027294 1.011414
v -2.968251 7.027294 1.011414
v -2.968251 7.027294 -0.988586
v -2.968251 6.027294 -0.988586
v -2.968251 5.027294 -0.988587
v -2.968251 6.027294 -0.988586
v -2.968251 6.027295 -1.988586
v -2.968251 5.027295 -1.988587
v -2.968251 5.027294 2.011413
v -2.968251 6.027294 2.011414
v -2.968251 6.027294 1.011414
v -2.968251 5.027294 1.011413
v -1.968251 3.027295 -2.988587
v -1.968251 5.027295 -2.988587
v -1.968251 5.027295 -3.988587
v -1.968251 3.027295 -3.988587
v -1.968251 5.027295 -1.988587
v -1.968251 6.027295 -1.988586
v -1.968251 6.027295 -2.988586
v -1.968251 5.027295 -2.988587
v -1.968251 6.027294 -0.988586
v -1.968251 7.027294 -0.988586
v -1.968251 7.027295 -1.988586
v -1.968251 6.027295 -1.988586
v -1.968251 6.027294 2.011414
v -1.968251 7.027294 2.011414
v -1.968251 7.027294 1.011414
v -1.968251 6.027294 1.011414
v -1.968251 5.027294 3.011413
v -1.968251 6.027294 3.011414
v -1.968251 6.027294 2.011414
v -1.968251 5.027294 2.011413
v 0.031749 4.027295 -3.988587
v 0.031749 5.027295 -3.988587
v 0.031749 5.027295 -2.988587
v 0.031749 4.027295 -2.988587
v 0.031749 6.027294 1.011414
v 0.031749 7.027294 1.011414
v 0.031749 7.027294 2.011414
v 0.031749 6.027294 2.011414
v 0.031749 5.027294 2.011413
v 0.031749 6.027294 2.011414
v 0.031749 6.027294 3.011414
v 0.031749 5.027294 3.011413
v 1.031749 1.027294 2.011413
v 1.031749 5.027294 2.011413
v 1.031749 5.027294 3.011413
v 1.031749 1.027294 3.011413
v 1.031749 1.027295 -3.988587
v 1.031749 4.027295 -3.988587
v 1.031749 4.027295 -2.988587
v 1.031749 1.027295 -2.988587
v 1.031749 6.027295 -1.988586
v 1.031749 7.027295 -1.988586
v 1.031749 7.027294 1.011414
v 1.031749 6.027294 1.011414
v 1.031749 5.027295 -2.988587
v 1.031749 6.027295 -2.988586
v 1.031749 6.027295 -1.988586
v 1.031749 5.027295 -1.988587
v 1.031749 5.027294 1.011413
v 1.031749 6.027294 1.011414
v 1.031749 6.027294 2.011414
v 1.031749 5.027294 2.011413
v 2.031749 0.027295 -2.988587
v 2.031749 5.027295 -2.988587
v 2.031749 5.027294 2.011413
v 2.031749 0.027294 2.011413
v 2.031749 5.027295 -1.988587
v 2.031749 6.027295 -1.988586
v 2.031749 6.027294 1.011414
v 2.031749 5.027294 1.011413
v 2.031749 0.027295 -3.988587
v 2.031749 1.027295 -3.988587
v 2.031749 1.027295 -2.988587
v 2.031749 0.027295 -2.988587
v 2.031749 0.027294 2.011413
v 2.031749 1.027294 2.011413
v 2.031749 1.027294 3.011413
v 2.031749 0.027294 3.011413
v -3.968251 0.027295 -3.988587
v 2.031749 0.027295 -3.988587
v 2.031749 0.027294 3.011413
v -3.968251 0.027294 3.011413
v -3.968251 1.027295 -2.988587
v -2.968251 1.027295 -2.988587
v -2.968251 1.027295 -3.988587
v -3.968251 1.027295 -3.988587
v 1.031749 1.027295 -2.988587
v 2.031749 1.027295 -2.988587
v 2.031749 1.027295 -3.988587
v 1.031749 1.027295 -3.988587
v -3.968251 1.027294 3.011413
v -2.968251 1.027294 3.011413
v -2.968251 1.027294 2.011413
v -3.968251 1.027294 2.011413
v 1.031749 1.027294 3.011413
v 2.031749 1.027294 3.011413
v 2.031749 1.027294 2.011413
v 1.031749 1.027294 2.011413
v -2.968251 3.027295 -2.988587
v -1.968251 3.027295 -2.988587
v -1.968251 3.027295 -3.988587
v -2.968251 3.027295 -3.988587
v -3.968251 3.027294 -1.988587
v -2.968251 3.027294 -1.988587
v -2.968251 3.027295 -2.988587
v -3.968251 3.027295 -2.988587
v 0.031749 4.027295 -2.988587
v 1.031749 4.027295 -2.988587
v 1.031749 4.027295 -3.988587
v 0.031749 4.027295 -3.988587
v -1.968251 5.027295 -2.988587
v 0.031749 5.027295 -2.988587
v 0.031749 5.027295 -3.988587
v -1.968251 5.027295 -3.988587
v -2.968251 5.027295 -1.988587
v -1.968251 5.027295 -1.988587
v -1.968251 5.027295 -2.988587
v -2.968251 5.027295 -2.988587
v 1.031749 5.027295 -1.988587
v 2.031749 5.027295 -1.988587
v 2.031749 5.027295 -2.988587
v 1.031749 5.027295 -2.988587
v -3.968251 5.027294 -0.988587
v -2.968251 5.027294 -0.988587
v -2.968251 5.027295 -1.988587
v -3.968251 5.027295 -1.988587
v -3.968251 5.027294 2.011413
v -2.968251 5.027294 2.011413
v -2.968251 5.027294 1.011413
v -3.968251 5.027294 1.011413
v 1.031749 5.027294 2.011413
v 2.031749 5.027294 2.011413
v 2.031749 5.027294 1.011413
v 1.031749 5.027294 1.011413
v -2.968251 5.027294 3.011413
v -1.968251 5.027294 3.011413
v -1.968251 5.027294 2.011413
v -2.968251 5.027294 2.011413
v 0.031749 5.027294 3.011413
v 1.031749 5.027294 3.011413
v 1.031749 5.027294 2.011413
v 0.031749 5.027294 2.011413
v -1.968251 6.027295 -1.988586
v 1.031749 6.027295 -1.988586
v 1.031749 6.027295 -2.988586
v -1.968251 6.027295 -2.988586
v 1.031749 6.027294 1.011414
v 2.031749 6.027294 1.011414
v 2.031749 6.027295 -1.988586
v 1.031749 6.027295 -1.988586
v -3.968251 6.027294 1.011414
v -2.968251 6.027294 1.011414
v -2.968251 6.027294 -0.988586
v -3.968251 6.027294 -0.988586
v -1.968251 6.027294 3.011414
v 0.031749 6.027294 3.011414
v 0.031749 6.027294 2.011414
v -1.968251 6.027294 2.011414
v -2.968251 6.027294 -0.988586
v -1.968251 6.027294 -0.988586
v -1.968251 6.027295 -1.988586
v -2.968251 6.027295 -1.988586
v -2.968251 6.027294 2.011414
v -1.968251 6.027294 2.011414
v -1.968251 6.027294 1.011414
v -2.968251 6.027294 1.011414
v 0.031749 6.027294 2.011414
v 1.031749 6.027294 2.011414
v 1.031749 6.027294 1.011414
v 0.031749 6.027294 1.011414
v -1.968251 7.027294 1.011414
v 1.031749 7.027294 1.011414
v 1.031749 7.027295 -1.988586
v -1.968251 7.027295 -1.988586
v -2.968251 7.027294 1.011414
v -1.968251 7.027294 1.011414
v -1.968251 7.027294 -0.988586
v -2.968251 7.027294 -0.988586
v -1.968251 7.027294 2.011414
v 0.031749 7.027294 2.011414
v 0.031749 7.027294 1.011414
v -1.968251 7.027294 1.011414
v -1.968251 4.027295 -3.988587
v 1.031749 4.027295 -3.988587
v 1.031749 1.027295 -3.988587
v -1.968251 1.027295 -3.988587
v -3.968251 1.027295 -3.988587
v 2.031749 1.027295 -3.988587
v 2.031749 0.027295 -3.988587
v -3.968251 0.027295 -3.988587
v -2.968251 3.027295 -3.988587
v -1.968251 3.027295 -3.988587
v -1.968251 1.027295 -3.988587
v -2.968251 1.027295 -3.988587
v -1.968251 5.027295 -3.988587
v 0.031749 5.027295 -3.988587
v 0.031749 4.027295 -3.988587
v -1.968251 4.027295 -3.988587
v 1.031749 5.027295 -2.988587
v 2.031749 5.027295 -2.988587
v 2.031749 1.027295 -2.988587
v 1.031749 1.027295 -2.988587
v -1.968251 6.027295 -2.988586
v 1.031749 6.027295 -2.988586
v 1.031749 5.027295 -2.988587
v -1.968251 5.027295 -2.988587
v -3.968251 3.027295 -2.988587
v -2.968251 3.027295 -2.988587
v -2.968251 1.027295 -2.988587
v -3.968251 1.027295 -2.988587
v -2.968251 5.027295 -2.988587
v -1.968251 5.027295 -2.988587
v -1.968251 3.027295 -2.988587
v -2.968251 3.027295 -2.988587
v 0.031749 5.027295 -2.988587
v 1.031749 5.027295 -2.988587
v 1.031749 4.027295 -2.988587
v 0.031749 4.027295 -2.988587
v -1.968251 7.027295 -1.988586
v 1.031749 7.027295 -1.988586
v 1.031749 6.027295 -1.988586
v -1.968251 6.027295 -1.988586
v -3.968251 5.027295 -1.988587
v -2.968251 5.027295 -1.988587
v -2.968251 3.027294 -1.988587
v -3.968251 3.027294 -1.988587
v -2.968251 6.027295 -1.988586
v -1.968251 6.027295 -1.988586
v -1.968251 5.027295 -1.988587
v -2.968251 5.027295 -1.988587
v 1.031749 6.027295 -1.988586
v 2.031749 6.027295 -1.988586
v 2.031749 5.027295 -1.988587
v 1.031749 5.027295 -1.988587
v -3.968251 6.027294 -0.988586
v -2.968251 6.027294 -0.988586
v -2.968251 5.027294 -0.988587
v -3.968251 5.027294 -0.988587
v -2.968251 7.027294 -0.988586
v -1.968251 7.027294 -0.988586
v -1.968251 6.027294 -0.988586
v -2.968251 6.027294 -0.988586
v -3.968251 5.027294 1.011413
v -2.968251 5.027294 1.011413
v -2.968251 6.027294 1.011414
v -3.968251 6.027294 1.011414
v 1.031749 5.027294 1.011413
v 2.031749 5.027294 1.011413
v 2.031749 6.027294 1.011414
v 1.031749 6.027294 1.011414
v -2.968251 6.027294 1.011414
v -1.968251 6.027294 1.011414
v -1.968251 7.027294 1.011414
v -2.968251 7.027294 1.011414
v 0.031749 6.027294 1.011414
v 1.031749 6.027294 1.011414
v 1.031749 7.027294 1.011414
v 0.031749 7.027294 1.011414
v -3.968251 1.027294 2.011413
v -2.968251 1.027294 2.011413
v -2.968251 5.027294 2.011413
v -3.968251 5.027294 2.011413
v 1.031749 1.027294 2.011413
v 2.031749 1.027294 2.011413
v 2.031749 5.027294 2.011413
v 1.031749 5.027294 2.011413
v -1.968251 6.027294 2.011414
v 0.031749 6.027294 2.011414
v 0.031749 7.027294 2.011414
v -1.968251 7.027294 2.011414
v -2.968251 5.027294 2.011413
v -1.968251 5.027294 2.011413
v -1.968251 6.027294 2.011414
v -2.968251 6.027294 2.011414
v 0.031749 5.027294 2.011413
v 1.031749 5.027294 2.011413
v 1.031749 6.027294 2.011414
v 0.031749 6.027294 2.011414
v -2.968251 1.027294 3.011413
v 1.031749 1.027294 3.011413
v 1.031749 5.027294 3.011413
v -2.968251 5.027294 3.011413
v -3.968251 0.027294 3.011413
v 2.031749 0.027294 3.011413
v 2.031749 1.027294 3.011413
v -3.968251 1.027294 3.011413
v -1.968251 5.027294 3.011413
v 0.031749 5.027294 3.011413
v 0.031749 6.027294 3.011414
v -1.968251 6.027294 3.011414
vt 0.054688 0.875000
vt 0.054688 0.953125
vt 0.023438 0.953125
vt 0.023438 0.875000
vt 0.007812 0.843750
vt 0.007812 0.890625
vt 0.000000 0.890625
vt 0.000000 0.843750
vt 0.000000 0.781250
vt 0.007812 0.781250
vt 0.007812 0.812500
vt 0.000000 0.812500
vt 0.000000 0.984375
vt 0.007812 0.984375
vt 0.007812 1.000000
vt 0.000000 1.000000
vt 0.000000 0.984375
vt 0.007812 0.984375
vt 0.007812 1.000000
vt 0.000000 1.000000
vt 0.031250 0.640625
vt 0.031250 0.703125
vt 0.023438 0.703125
vt 0.023438 0.640625
vt 0.054688 0.734375
vt 0.054688 0.765625
vt 0.046875 0.765625
vt 0.046875 0.734375
vt 0.140625 0.921875
vt 0.140625 0.953125
vt 0.132812 0.953125
vt 0.132812 0.921875
vt 0.156250 0.843750
vt 0.164062 0.843750
vt 0.164062 0.875000
vt 0.156250 0.875000
vt 0.023438 0.500000
vt 0.031250 0.500000
vt 0.031250 0.515625
vt 0.023438 0.515625
vt 0.203125 0.937500
vt 0.210938 0.937500
vt 0.210938 0.953125
vt 0.203125 0.953125
vt 0.210938 0.875000
vt 0.210938 0.906250
vt 0.203125 0.906250
vt 0.203125 0.875000
vt 0.226562 0.843750
vt 0.234375 0.843750
vt 0.234375 0.859375
vt 0.226562 0.859375
vt 0.070312 0.609375
vt 0.078125 0.609375
vt 0.078125 0.625000
vt 0.070312 0.625000
vt 0.093750 0.609375
vt 0.101562 0.609375
vt 0.101562 0.625000
vt 0.093750 0.625000
vt 0.125000 0.796875
vt 0.132812 0.796875
vt 0.132812 0.812500
vt 0.125000 0.812500
vt 0.117188 1.000000
vt 0.125000 1.000000
vt 0.125000 0.984375
vt 0.117188 0.984375
vt 0.140625 1.000000
vt 0.148438 1.000000
vt 0.148438 0.984375
vt 0.140625 0.984375
vt 0.187500 1.000000
vt 0.195312 1.000000
vt 0.195312 0.984375
vt 0.187500 0.984375
vt 0.046875 0.640625
vt 0.046875 0.703125
vt 0.054688 0.703125
vt 0.054688 0.640625
vt 0.046875 0.562500
vt 0.046875 0.609375
vt 0.054688 0.609375
vt 0.054688 0.562500
vt 0.132812 0.890625
vt 0.140625 0.890625
vt 0.140625 0.843750
vt 0.132812 0.843750
vt 0.000000 0.515625
vt 0.007812 0.515625
vt 0.007812 0.500000
vt 0.000000 0.500000
vt 0.046875 0.515625
vt 0.054688 0.515625
vt 0.054688 0.500000
vt 0.046875 0.500000
vt 0.070312 0.812500
vt 0.109375 0.812500
vt 0.109375 0.734375
vt 0.070312 0.734375
vt 0.070312 0.703125
vt 0.078125 0.703125
vt 0.078125 0.656250
vt 0.070312 0.656250
vt 0.000000 1.000000
vt 0.007812 1.000000
vt 0.007812 0.984375
vt 0.000000 0.984375
vt 0.000000 1.000000
vt 0.007812 1.000000
vt 0.007812 0.984375
vt 0.000000 0.984375
vt 0.070312 0.953125
vt 0.117188 0.953125
vt 0.117188 0.843750
vt 0.070312 0.843750
vt 0.000000 0.984375
vt 0.007812 0.984375
vt 0.007812 1.000000
vt 0.000000 1.000000
vt 0.000000 0.984375
vt 0.007812 0.984375
vt 0.007812 1.000000
vt 0.000000 1.000000
vt 0.000000 0.984375
vt 0.007812 0.984375
vt 0.007812 1.000000
vt 0.000000 1.000000
vt 0.000000 0.984375
vt 0.007812 0.984375
vt 0.007812 1.000000
vt 0.000000 1.000000
vt 0.023438 0.984375
vt 0.031250 0.984375
vt 0.031250 1.000000
vt 0.023438 1.000000
vt 0.046875 0.984375
vt 0.054688 0.984375
vt 0.054688 1.000000
vt 0.046875 1.000000
vt 0.070312 0.984375
vt 0.078125 0.984375
vt 0.078125 1.000000
vt 0.070312 1.000000
vt 0.007812 0.921875
vt 0.007812 0.953125
vt 0.000000 0.953125
vt 0.000000 0.921875
vt 0.093750 0.984375
vt 0.101562 0.984375
vt 0.101562 1.000000
vt 0.093750 1.000000
vt 0.164062 0.984375
vt 0.171875 0.984375
vt 0.171875 1.000000
vt 0.164062 1.000000
vt 0.210938 0.984375
vt 0.218750 0.984375
vt 0.218750 1.000000
vt 0.210938 1.000000
vt 0.234375 0.984375
vt 0.242188 0.984375
vt 0.242188 1.000000
vt 0.234375 1.000000
vt 0.000000 0.546875
vt 0.007812 0.546875
vt 0.007812 0.562500
vt 0.000000 0.562500
vt 0.226562 0.890625
vt 0.234375 0.890625
vt 0.234375 0.906250
vt 0.226562 0.906250
vt 0.093750 0.687500
vt 0.101562 0.687500
vt 0.101562 0.703125
vt 0.093750 0.703125
vt 0.101562 0.531250
vt 0.101562 0.578125
vt 0.093750 0.578125
vt 0.093750 0.531250
vt 0.125000 0.718750
vt 0.132812 0.718750
vt 0.132812 0.765625
vt 0.125000 0.765625
vt 0.125000 0.656250
vt 0.132812 0.656250
vt 0.132812 0.687500
vt 0.125000 0.687500
vt 0.132812 0.531250
vt 0.132812 0.562500
vt 0.125000 0.562500
vt 0.125000 0.531250
vt 0.171875 0.796875
vt 0.179688 0.796875
vt 0.179688 0.812500
vt 0.171875 0.812500
vt 0.218750 0.796875
vt 0.226562 0.796875
vt 0.226562 0.812500
vt 0.218750 0.812500
vt 0.242188 0.796875
vt 0.250000 0.796875
vt 0.250000 0.812500
vt 0.242188 0.812500
vt 0.148438 0.671875
vt 0.171875 0.671875
vt 0.171875 0.718750
vt 0.148438 0.718750
vt 0.187500 0.687500
vt 0.195312 0.687500
vt 0.195312 0.718750
vt 0.187500 0.718750
vt 0.218750 0.687500
vt 0.218750 0.718750
vt 0.210938 0.718750
vt 0.210938 0.687500
vt 0.023438 0.796875
vt 0.046875 0.796875
vt 0.046875 0.843750
vt 0.023438 0.843750
vt 0.007812 0.656250
vt 0.007812 0.750000
vt 0.000000 0.750000
vt 0.000000 0.656250
vt 0.000000 0.593750
vt 0.007812 0.593750
vt 0.007812 0.625000
vt 0.000000 0.625000
vt 0.031250 0.734375
vt 0.031250 0.765625
vt 0.023438 0.765625
vt 0.023438 0.734375
vt 0.023438 0.546875
vt 0.031250 0.546875
vt 0.031250 0.609375
vt 0.023438 0.609375
vt 0.164062 0.906250
vt 0.164062 0.953125
vt 0.156250 0.953125
vt 0.156250 0.906250
vt 0.179688 0.921875
vt 0.187500 0.921875
vt 0.187500 0.953125
vt 0.179688 0.953125
vt 0.179688 0.859375
vt 0.187500 0.859375
vt 0.187500 0.890625
vt 0.179688 0.890625
vt 0.226562 0.937500
vt 0.234375 0.937500
vt 0.234375 0.953125
vt 0.226562 0.953125
vt 0.078125 0.531250
vt 0.078125 0.578125
vt 0.070312 0.578125
vt 0.070312 0.531250
vt 0.125000 0.593750
vt 0.132812 0.593750
vt 0.132812 0.625000
vt 0.125000 0.625000
vt 0.148438 0.796875
vt 0.156250 0.796875
vt 0.156250 0.812500
vt 0.148438 0.812500
vt 0.195312 0.796875
vt 0.203125 0.796875
vt 0.203125 0.812500
vt 0.195312 0.812500
vt 0.148438 0.750000
vt 0.156250 0.750000
vt 0.156250 0.765625
vt 0.148438 0.765625
vt 0.171875 0.750000
vt 0.179688 0.750000
vt 0.179688 0.765625
vt 0.171875 0.765625
vt 0.195312 0.765625
vt 0.203125 0.765625
vt 0.203125 0.750000
vt 0.195312 0.750000
vt 0.218750 0.765625
vt 0.226562 0.765625
vt 0.226562 0.750000
vt 0.218750 0.750000
vt 0.242188 0.765625
vt 0.250000 0.765625
vt 0.250000 0.750000
vt 0.242188 0.750000
vt 0.234375 0.718750
vt 0.242188 0.718750
vt 0.242188 0.703125
vt 0.234375 0.703125
vt 0.148438 0.640625
vt 0.156250 0.640625
vt 0.156250 0.578125
vt 0.148438 0.578125
vt 0.171875 0.640625
vt 0.179688 0.640625
vt 0.179688 0.578125
vt 0.171875 0.578125
vt 0.148438 0.515625
vt 0.148438 0.546875
vt 0.156250 0.546875
vt 0.156250 0.515625
vt 0.171875 0.546875
vt 0.179688 0.546875
vt 0.179688 0.531250
vt 0.171875 0.531250
vt 0.195312 0.640625
vt 0.203125 0.640625
vt 0.203125 0.625000
vt 0.195312 0.625000
vt 0.195312 0.593750
vt 0.226562 0.593750
vt 0.226562 0.531250
vt 0.195312 0.531250
vt 0.242188 0.500000
vt 0.242188 0.593750
vt 0.250000 0.593750
vt 0.250000 0.500000
vt 0.265625 0.968750
vt 0.265625 1.000000
vt 0.273438 1.000000
vt 0.273438 0.968750
vn -1.0000 -0.0000 0.0000
vn 1.0000 0.0000 0.0000
vn 0.0000 -1.0000 -0.0000
vn 0.0000 1.0000 0.0000
vn 0.0000 0.0000 -1.0000
vn 0.0000 -0.0000 1.0000
usemtl PlainTexture.001
s off
f 1/1/1 2/2/1 3/3/1 4/4/1
f 5/5/1 6/6/1 7/7/1 8/8/1
f 9/9/1 10/10/1 11/11/1 12/12/1
f 13/13/1 14/14/1 15/15/1 16/16/1
f 17/17/1 18/18/1 19/19/1 20/20/1
f 21/21/1 22/22/1 23/23/1 24/24/1
f 25/25/1 26/26/1 27/27/1 28/28/1
f 29/29/1 30/30/1 31/31/1 32/32/1
f 33/33/1 34/34/1 35/35/1 36/36/1
f 37/37/1 38/38/1 39/39/1 40/40/1
f 41/41/1 42/42/1 43/43/1 44/44/1
f 45/45/1 46/46/1 47/47/1 48/48/1
f 49/49/1 50/50/1 51/51/1 52/52/1
f 53/53/1 54/54/1 55/55/1 56/56/1
f 57/57/1 58/58/1 59/59/1 60/60/1
f 61/61/1 62/62/1 63/63/1 64/64/1
f 65/65/2 66/66/2 67/67/2 68/68/2
f 69/69/2 70/70/2 71/71/2 72/72/2
f 73/73/2 74/74/2 75/75/2 76/76/2
f 77/77/2 78/78/2 79/79/2 80/80/2
f 81/81/2 82/82/2 83/83/2 84/84/2
f 85/85/2 86/86/2 87/87/2 88/88/2
f 89/89/2 90/90/2 91/91/2 92/92/2
f 93/93/2 94/94/2 95/95/2 96/96/2
f 97/97/2 98/98/2 99/99/2 100/100/2
f 101/101/2 102/102/2 103/103/2 104/104/2
f 105/105/2 106/106/2 107/107/2 108/108/2
f 109/109/2 110/110/2 111/111/2 112/112/2
f 113/113/3 114/114/3 115/115/3 116/116/3
f 117/117/4 118/118/4 119/119/4 120/120/4
f 121/121/4 122/122/4 123/123/4 124/124/4
f 125/125/4 126/126/4 127/127/4 128/128/4
f 129/129/4 130/130/4 131/131/4 132/132/4
f 133/133/4 134/134/4 135/135/4 136/136/4
f 137/137/4 138/138/4 139/139/4 140/140/4
f 141/141/4 142/142/4 143/143/4 144/144/4
f 145/145/4 146/146/4 147/147/4 148/148/4
f 149/149/4 150/150/4 151/151/4 152/152/4
f 153/153/4 154/154/4 155/155/4 156/156/4
f 157/157/4 158/158/4 159/159/4 160/160/4
f 161/161/4 162/162/4 163/163/4 164/164/4
f 165/165/4 166/166/4 167/167/4 168/168/4
f 169/169/4 170/170/4 171/171/4 172/172/4
f 173/173/4 174/174/4 175/175/4 176/176/4
f 177/177/4 178/178/4 179/179/4 180/180/4
f 181/181/4 182/182/4 183/183/4 184/184/4
f 185/185/4 186/186/4 187/187/4 188/188/4
f 189/189/4 190/190/4 191/191/4 192/192/4
f 193/193/4 194/194/4 195/195/4 196/196/4
f 197/197/4 198/198/4 199/199/4 200/200/4
f 201/201/4 202/202/4 203/203/4 204/204/4
f 205/205/4 206/206/4 207/207/4 208/208/4
f 209/209/4 210/210/4 211/211/4 212/212/4
f 213/213/4 214/214/4 215/215/4 216/216/4
f 217/217/5 218/218/5 219/219/5 220/220/5
f 221/221/5 222/222/5 223/223/5 224/224/5
f 225/225/5 226/226/5 227/227/5 228/228/5
f 229/229/5 230/230/5 231/231/5 232/232/5
f 233/233/5 234/234/5 235/235/5 236/236/5
f 237/237/5 238/238/5 239/239/5 240/240/5
f 241/241/5 242/242/5 243/243/5 244/244/5
f 245/245/5 246/246/5 247/247/5 248/248/5
f 249/249/5 250/250/5 251/251/5 252/252/5
f 253/253/5 254/254/5 255/255/5 256/256/5
f 257/257/5 258/258/5 259/259/5 260/260/5
f 261/261/5 262/262/5 263/263/5 264/264/5
f 265/265/5 266/266/5 267/267/5 268/268/5
f 269/269/5 270/270/5 271/271/5 272/272/5
f 273/273/5 274/274/5 275/275/5 276/276/5
f 277/277/6 278/278/6 279/279/6 280/280/6
f 281/281/6 282/282/6 283/283/6 284/284/6
f 285/285/6 286/286/6 287/287/6 288/288/6
f 289/289/6 290/290/6 291/291/6 292/292/6
f 293/293/6 294/294/6 295/295/6 296/296/6
f 297/297/6 298/298/6 299/299/6 300/300/6
f 301/301/6 302/302/6 303/303/6 304/304/6
f 305/305/6 306/306/6 307/307/6 308/308/6
f 309/309/6 310/310/6 311/311/6 312/312/6
f 313/313/6 314/314/6 315/315/6 316/316/6
f 317/317/6 318/318/6 319/319/6 320/320/6
f 321/321/6 322/322/6 323/323/6 324/324/6
